{"glyphs":{"0":{"ha":792,"x_min":65,"x_max":726,"o":"m 638 118 q 594 50 638 118 q 396 -18 550 -18 q 153 118 242 -18 q 65 515 65 254 q 153 908 65 775 q 396 1042 240 1042 q 638 908 550 1042 q 726 515 726 774 q 638 118 726 254 m 218 515 q 396 108 218 108 q 574 515 574 108 q 396 915 574 915 q 218 515 218 915 z "},"1":{"ha":792,"x_min":119,"x_max":703,"o":"m 119 0 l 119 132 l 343 132 l 343 843 l 160 843 l 160 944 q 382 1022 299 971 l 503 1022 l 503 132 l 703 132 l 703 0 l 119 0 z "},"2":{"ha":792,"x_min":53,"x_max":721,"o":"m 61 0 l 61 93 q 406 451 294 299 q 518 726 518 604 q 473 863 518 813 q 344 914 428 914 q 143 800 242 914 l 53 889 q 197 1003 124 965 q 364 1042 269 1042 q 588 958 504 1042 q 672 735 672 874 q 574 447 672 596 q 299 126 476 297 q 465 136 392 136 l 721 136 l 721 0 l 61 0 z "},"3":{"ha":792,"x_min":39,"x_max":714,"o":"m 372 -18 q 39 122 164 -18 l 117 225 q 358 113 226 113 q 499 158 446 113 q 553 282 553 204 q 483 422 553 374 q 250 469 414 469 l 250 588 q 518 767 518 588 q 476 874 518 835 q 361 915 433 914 q 157 818 254 914 l 74 918 q 367 1042 211 1042 q 593 972 507 1042 q 679 778 679 903 q 633 630 679 692 q 503 538 586 568 l 503 531 q 655 440 596 507 q 714 275 714 374 q 616 61 714 140 q 372 -18 518 -18 z "},"4":{"ha":792,"x_min":28,"x_max":750,"o":"m 189 399 l 469 399 l 469 667 q 478 864 469 697 l 472 864 q 390 707 438 792 l 189 399 m 750 399 l 750 275 l 619 275 l 619 0 l 469 0 l 469 275 l 28 275 l 28 382 l 435 1022 l 619 1022 l 619 399 l 750 399 z "},"5":{"ha":792,"x_min":38,"x_max":717,"o":"m 372 -18 q 38 118 176 -18 l 114 222 q 353 113 224 113 q 499 172 442 113 q 556 331 556 231 q 503 488 556 431 q 361 544 450 544 q 197 486 286 544 l 119 538 l 150 1022 l 668 1022 l 668 888 l 289 888 l 265 625 q 406 661 335 661 q 629 578 542 661 q 717 336 717 496 q 615 78 717 174 q 372 -18 514 -18 z "},"6":{"ha":792,"x_min":74,"x_max":732,"o":"m 425 104 q 538 162 493 104 q 583 317 583 219 q 540 469 583 417 q 415 522 497 522 q 225 403 308 522 q 425 104 250 104 m 715 932 l 628 835 q 556 890 599 868 q 468 911 513 911 q 294 819 361 911 q 222 521 228 726 q 328 607 267 575 q 444 639 389 639 q 655 557 578 639 q 732 317 732 475 q 643 75 732 168 q 426 -18 554 -18 q 173 113 272 -18 q 74 492 74 243 q 184 905 74 768 q 460 1042 294 1042 q 715 932 611 1042 z "},"7":{"ha":792,"x_min":68,"x_max":726,"o":"m 432 0 l 268 0 q 343 487 282 288 q 549 888 404 686 l 68 888 l 68 1022 l 726 1022 l 726 925 q 582 713 638 814 q 495 497 526 613 q 451 274 464 382 q 432 0 439 165 z "},"8":{"ha":792,"x_min":64,"x_max":728,"o":"m 397 -18 q 158 59 253 -18 q 64 254 64 136 q 116 418 64 349 q 247 529 168 488 l 247 536 q 110 775 110 633 q 192 966 110 893 q 401 1039 274 1039 q 612 964 533 1039 q 690 768 690 889 q 651 632 690 696 q 556 528 611 568 l 556 521 q 728 250 728 422 q 635 58 728 135 q 397 -18 543 -18 m 464 568 q 556 758 556 653 q 514 877 556 831 q 399 924 472 924 q 294 883 335 924 q 253 775 253 843 q 307 653 253 699 q 464 568 361 608 m 400 97 q 528 140 479 97 q 576 254 576 183 q 559 333 576 299 q 500 396 542 368 q 425 440 458 424 q 325 483 392 456 q 206 269 206 401 q 261 146 206 194 q 400 97 317 97 z "},"9":{"ha":792,"x_min":60,"x_max":718,"o":"m 374 500 q 568 625 482 500 q 504 845 557 772 q 365 918 451 918 q 253 860 297 918 q 208 706 208 803 q 251 553 208 607 q 374 500 294 500 m 76 90 l 163 189 q 331 113 229 113 q 498 206 432 113 q 571 504 564 299 q 465 417 526 449 q 346 385 404 385 q 137 467 214 385 q 60 706 60 549 q 148 948 60 854 q 364 1042 236 1042 q 619 915 519 1042 q 718 546 718 788 q 609 122 718 263 q 338 -18 500 -18 q 76 90 182 -18 z "},"\"":{"ha":719,"x_min":124,"x_max":594,"o":"m 160 636 l 128 913 l 124 1076 l 289 1076 l 285 913 l 253 636 l 160 636 m 465 636 l 433 913 l 428 1076 l 594 1076 l 590 913 l 558 636 l 465 636 z "},"#":{"ha":792,"x_min":56,"x_max":744,"o":"m 139 0 l 176 311 l 56 311 l 56 418 l 189 418 l 215 631 l 86 631 l 86 738 l 228 738 l 264 1015 l 361 1015 l 328 738 l 519 738 l 556 1015 l 654 1015 l 619 738 l 744 738 l 744 631 l 607 631 l 581 418 l 713 418 l 713 311 l 568 311 l 531 0 l 431 0 l 468 311 l 276 311 l 238 0 l 139 0 m 288 418 l 481 418 l 507 631 l 314 631 l 288 418 z "},"%":{"ha":1304,"x_min":50,"x_max":1254,"o":"m 463 481 q 430 438 463 481 q 289 394 397 394 q 115 481 181 394 q 50 719 50 567 q 115 956 50 871 q 289 1042 181 1042 q 464 956 399 1042 q 529 719 529 871 q 463 481 529 568 m 289 489 q 379 547 346 489 q 413 719 413 606 q 379 890 413 833 q 289 947 346 947 q 200 890 233 947 q 167 719 167 833 q 200 547 167 606 q 289 489 233 489 m 321 -18 l 881 1042 l 982 1042 l 421 -18 l 321 -18 m 1015 -18 q 840 68 906 -18 q 775 306 775 154 q 840 542 775 457 q 1015 628 906 628 q 1189 542 1124 628 q 1254 306 1254 457 q 1189 68 1254 154 q 1015 -18 1124 -18 m 1015 75 q 1104 133 1071 75 q 1138 306 1138 192 q 1104 476 1138 419 q 1015 533 1071 533 q 925 476 958 533 q 892 306 892 419 q 925 133 892 192 q 1015 75 958 75 z "},"&":{"ha":979,"x_min":47,"x_max":954,"o":"m 200 276 q 253 154 200 201 q 386 107 306 107 q 563 176 475 107 q 310 453 408 308 q 200 276 200 360 m 313 793 q 356 632 313 722 q 476 727 435 683 q 517 829 517 771 q 494 902 517 874 q 428 931 472 931 q 344 892 376 931 q 313 793 313 854 m 954 113 l 914 -18 q 671 94 797 10 q 367 -18 540 -18 q 135 63 222 -18 q 47 267 47 143 q 99 431 47 363 q 244 561 151 500 q 178 792 178 690 q 247 970 178 899 q 426 1042 315 1042 q 585 983 526 1042 q 643 831 643 925 q 626 740 643 782 q 570 658 608 697 q 501 594 532 619 q 417 531 471 569 q 660 276 515 392 q 797 560 751 396 l 944 560 q 767 200 883 353 q 954 113 871 133 z "},"'":{"ha":414,"x_min":124,"x_max":289,"o":"m 160 636 l 128 913 l 124 1076 l 289 1076 l 285 913 l 253 636 l 160 636 z "},"(":{"ha":493,"x_min":124,"x_max":429,"o":"m 429 -232 l 329 -276 q 124 435 124 60 q 329 1144 124 811 l 429 1101 q 254 435 254 808 q 429 -232 254 60 z "},")":{"ha":493,"x_min":64,"x_max":371,"o":"m 164 -276 l 64 -232 q 239 435 239 60 q 64 1101 239 808 l 164 1144 q 371 435 371 813 q 164 -276 371 58 z "},"*":{"ha":672,"x_min":81,"x_max":590,"o":"m 221 622 l 149 675 l 238 826 l 81 893 l 108 978 l 275 938 l 290 1113 l 381 1113 l 396 939 l 563 978 l 590 893 l 433 826 l 524 675 l 451 622 l 336 757 l 221 622 z "},"+":{"ha":792,"x_min":53,"x_max":739,"o":"m 335 157 l 335 457 l 53 457 l 53 574 l 335 574 l 335 874 l 457 874 l 457 574 l 739 574 l 739 457 l 457 457 l 457 157 l 335 157 z "},",":{"ha":414,"x_min":74,"x_max":338,"o":"m 110 -278 l 74 -187 q 184 -108 144 -158 q 225 3 224 -58 q 210 1 219 1 q 134 28 165 1 q 103 104 103 56 q 135 178 103 150 q 214 207 167 207 q 305 161 272 207 q 338 35 338 115 q 278 -156 338 -74 q 110 -278 218 -237 z "},"-":{"ha":496,"x_min":65,"x_max":432,"o":"m 65 333 l 65 451 l 432 451 l 432 333 l 65 333 z "},".":{"ha":414,"x_min":100,"x_max":314,"o":"m 283 13 q 268 -2 283 13 q 207 -18 253 -18 q 131 13 161 -18 q 100 93 100 44 q 131 174 100 142 q 207 207 163 207 q 283 174 251 207 q 314 93 314 142 q 283 13 314 44 z "},"/":{"ha":542,"x_min":17,"x_max":514,"o":"m 17 -250 l 403 1108 l 514 1108 l 128 -250 l 17 -250 z "},":":{"ha":414,"x_min":100,"x_max":314,"o":"m 283 560 q 267 544 283 560 q 207 528 251 528 q 131 560 163 528 q 100 639 100 592 q 131 720 100 688 q 207 753 163 753 q 283 720 251 753 q 314 639 314 688 q 283 560 314 592 m 283 13 q 268 -2 283 13 q 207 -18 253 -18 q 131 13 161 -18 q 100 93 100 44 q 131 174 100 142 q 207 207 163 207 q 283 174 251 207 q 314 93 314 142 q 283 13 314 44 z "},";":{"ha":414,"x_min":74,"x_max":338,"o":"m 283 560 q 267 544 283 560 q 207 528 251 528 q 131 560 163 528 q 100 639 100 592 q 131 720 100 688 q 207 753 163 753 q 283 720 251 753 q 314 639 314 688 q 283 560 314 592 m 110 -278 l 74 -187 q 184 -108 144 -158 q 225 3 224 -58 q 210 1 219 1 q 134 28 165 1 q 103 104 103 56 q 135 178 103 150 q 214 207 167 207 q 305 161 272 207 q 338 35 338 115 q 278 -156 338 -74 q 110 -278 218 -237 z "},"<":{"ha":792,"x_min":53,"x_max":739,"o":"m 739 192 l 53 458 l 53 578 l 739 846 l 739 710 l 426 599 l 217 521 l 217 515 l 426 439 l 739 326 l 739 192 z "},"=":{"ha":792,"x_min":53,"x_max":739,"o":"m 53 629 l 53 746 l 739 746 l 739 629 l 53 629 m 53 285 l 53 401 l 739 401 l 739 285 l 53 285 z "},">":{"ha":792,"x_min":53,"x_max":739,"o":"m 53 192 l 53 326 l 365 439 l 576 515 l 576 521 l 365 599 l 53 710 l 53 846 l 739 578 l 739 458 l 53 192 z "},"?":{"ha":682,"x_min":61,"x_max":611,"o":"m 388 326 l 247 326 q 256 450 238 392 q 306 551 274 508 q 372 634 339 594 q 431 717 406 674 q 456 800 456 760 q 419 897 456 860 q 319 935 383 935 q 151 850 226 935 l 61 932 q 338 1065 178 1065 q 536 998 461 1065 q 611 811 611 931 q 586 704 611 756 q 526 612 561 653 q 456 529 490 571 q 401 435 422 488 q 388 326 381 383 m 396 13 q 381 -2 396 13 q 319 -18 365 -18 q 243 13 274 -18 q 213 93 213 44 q 243 174 213 142 q 319 207 274 207 q 395 174 364 207 q 426 93 426 142 q 396 13 426 44 z "},"@":{"ha":1350,"x_min":78,"x_max":1272,"o":"m 642 -250 q 359 -187 485 -250 q 156 6 233 -125 q 78 318 78 136 q 132 606 78 474 q 277 829 186 739 q 490 970 368 919 q 746 1021 611 1021 q 1129 874 986 1021 q 1272 490 1272 728 q 1171 185 1272 297 q 946 72 1069 72 q 833 103 879 72 q 779 190 788 133 l 775 190 q 686 114 738 143 q 586 85 635 85 q 446 145 500 85 q 392 310 392 206 q 480 563 392 447 q 697 678 568 678 q 821 601 781 678 l 824 601 l 843 665 l 946 665 l 881 344 q 961 176 840 176 q 1101 263 1039 176 q 1164 485 1164 349 q 1053 798 1164 678 q 733 918 943 918 q 533 875 631 918 q 359 756 435 832 q 238 567 283 681 q 192 322 192 453 q 322 -24 192 100 q 654 -147 451 -147 q 901 -81 785 -147 l 942 -172 q 642 -250 804 -250 m 618 189 q 750 275 679 189 l 792 513 q 700 571 757 571 q 569 490 621 571 q 517 318 517 410 q 544 221 517 253 q 618 189 572 189 z "},"A":{"ha":864,"x_min":0,"x_max":864,"o":"m 289 418 l 568 418 l 528 556 q 431 896 501 639 l 425 896 q 331 556 386 743 l 289 418 m 693 0 l 607 292 l 251 292 l 164 0 l 0 0 l 339 1022 l 525 1022 l 864 0 l 693 0 z "},"B":{"ha":926,"x_min":135,"x_max":868,"o":"m 135 0 l 135 1022 l 451 1022 q 813 771 813 1022 q 773 634 813 696 q 667 550 733 572 l 667 543 q 813 462 758 524 q 868 300 868 400 q 760 76 868 153 q 476 0 653 0 l 135 0 m 296 596 l 433 596 q 654 750 654 596 q 601 863 654 829 q 438 897 549 897 l 296 897 l 296 596 m 296 126 l 458 126 q 710 308 710 126 q 458 474 710 474 l 296 474 l 296 126 z "},"C":{"ha":897,"x_min":79,"x_max":851,"o":"m 533 -18 q 207 123 335 -18 q 79 508 79 264 q 210 897 79 753 q 540 1042 342 1042 q 831 913 713 1042 l 743 810 q 543 901 654 901 q 327 797 410 901 q 244 514 244 692 q 324 227 244 332 q 539 122 403 122 q 765 231 665 122 l 851 129 q 533 -18 724 -18 z "},"D":{"ha":971,"x_min":135,"x_max":893,"o":"m 135 0 l 135 1022 l 400 1022 q 765 893 638 1022 q 893 515 893 764 q 766 134 893 268 q 408 0 639 0 l 135 0 m 296 132 l 389 132 q 640 228 554 132 q 726 515 726 325 q 389 892 726 892 l 296 892 l 296 132 z "},"E":{"ha":833,"x_min":135,"x_max":754,"o":"m 135 0 l 135 1022 l 739 1022 l 739 888 l 296 888 l 296 603 l 671 603 l 671 467 l 296 467 l 296 136 l 754 136 l 754 0 l 135 0 z "},"F":{"ha":786,"x_min":135,"x_max":740,"o":"m 135 0 l 135 1022 l 740 1022 l 740 888 l 296 888 l 296 575 l 674 575 l 674 440 l 296 440 l 296 0 l 135 0 z "},"G":{"ha":974,"x_min":79,"x_max":875,"o":"m 551 -18 q 210 122 342 -18 q 79 508 79 263 q 213 897 79 753 q 556 1042 347 1042 q 860 913 736 1042 l 772 810 q 561 901 683 901 q 331 797 417 901 q 244 514 244 693 q 328 226 244 329 q 568 122 411 122 q 729 172 672 122 l 729 413 l 526 413 l 526 544 l 875 544 l 875 101 q 737 15 821 47 q 551 -18 653 -18 z "},"H":{"ha":1028,"x_min":135,"x_max":894,"o":"m 135 0 l 135 1022 l 296 1022 l 296 606 l 733 606 l 733 1022 l 894 1022 l 894 0 l 733 0 l 733 465 l 296 465 l 296 0 l 135 0 z "},"I":{"ha":429,"x_min":135,"x_max":296,"o":"m 135 0 l 135 1022 l 296 1022 l 296 0 l 135 0 z "},"J":{"ha":764,"x_min":42,"x_max":635,"o":"m 338 -18 q 42 151 138 -18 l 154 233 q 319 122 215 122 q 436 170 399 122 q 474 328 474 218 l 474 1022 l 635 1022 l 635 313 q 560 74 635 165 q 338 -18 486 -18 z "},"K":{"ha":921,"x_min":135,"x_max":921,"o":"m 135 0 l 135 1022 l 296 1022 l 296 539 l 300 539 l 689 1022 l 868 1022 l 551 628 l 921 0 l 742 0 l 453 500 l 296 308 l 296 0 l 135 0 z "},"L":{"ha":774,"x_min":135,"x_max":728,"o":"m 135 0 l 135 1022 l 296 1022 l 296 136 l 728 136 l 728 0 l 135 0 z "},"M":{"ha":1153,"x_min":135,"x_max":1019,"o":"m 135 0 l 135 1022 l 319 1022 l 507 506 q 542 400 519 469 q 575 299 564 331 l 582 299 q 615 401 593 332 q 649 506 636 469 l 833 1022 l 1019 1022 l 1019 0 l 869 0 l 869 506 q 890 822 869 589 l 885 822 l 803 586 l 625 99 l 525 99 l 346 586 l 265 822 l 260 822 q 279 506 279 561 l 279 0 l 135 0 z "},"N":{"ha":1019,"x_min":135,"x_max":885,"o":"m 135 0 l 135 1022 l 300 1022 l 639 422 l 746 206 l 753 206 q 732 546 732 469 l 732 1022 l 885 1022 l 885 0 l 719 0 l 381 603 l 274 817 l 267 817 q 288 482 288 553 l 288 0 l 135 0 z "},"O":{"ha":1047,"x_min":79,"x_max":969,"o":"m 846 126 q 784 54 846 126 q 524 -18 722 -18 q 202 126 325 -18 q 79 515 79 271 q 201 900 79 758 q 524 1042 324 1042 q 847 900 724 1042 q 969 515 969 758 q 846 126 969 271 m 320 228 q 358 175 320 228 q 524 122 396 122 q 728 229 651 122 q 804 515 804 336 q 728 798 804 694 q 524 901 651 901 q 320 798 396 901 q 244 515 244 694 q 320 228 244 335 z "},"P":{"ha":899,"x_min":135,"x_max":835,"o":"m 135 0 l 135 1022 l 444 1022 q 835 714 835 1022 q 730 470 835 553 q 450 388 625 388 l 296 388 l 296 0 l 135 0 m 296 517 l 435 517 q 617 565 558 517 q 676 714 676 613 q 616 852 676 811 q 429 893 556 893 l 296 893 l 296 517 z "},"Q":{"ha":1047,"x_min":79,"x_max":1001,"o":"m 244 515 q 320 222 244 331 q 524 114 396 114 q 728 222 651 114 q 804 515 804 331 q 728 798 804 694 q 524 901 651 901 q 320 798 396 901 q 244 515 244 694 m 971 -118 l 1001 -239 q 844 -265 944 -265 q 599 -197 701 -265 q 447 -12 496 -128 q 179 156 279 17 q 79 515 79 296 q 201 900 79 758 q 524 1042 324 1042 q 847 900 724 1042 q 969 515 969 758 q 874 164 969 303 q 619 -8 779 25 q 863 -133 686 -133 q 971 -118 919 -133 z "},"R":{"ha":910,"x_min":135,"x_max":875,"o":"m 296 893 l 296 542 l 450 542 q 679 726 679 542 q 622 855 679 817 q 450 893 565 893 l 296 893 m 875 0 l 693 0 l 461 413 l 296 413 l 296 0 l 135 0 l 135 1022 l 469 1022 q 839 726 839 1022 q 625 433 839 500 l 875 0 z "},"S":{"ha":844,"x_min":63,"x_max":786,"o":"m 426 -18 q 63 132 210 -18 l 157 243 q 429 122 278 122 q 572 162 521 122 q 622 267 622 201 q 612 324 622 300 q 574 369 601 349 q 526 399 546 389 q 458 431 506 410 l 317 492 q 108 760 108 579 q 203 961 108 881 q 444 1042 299 1042 q 754 913 628 1042 l 669 810 q 444 901 567 901 q 319 866 365 901 q 272 769 272 831 q 285 714 272 738 q 325 672 297 690 q 374 642 353 653 q 438 615 396 632 l 578 556 q 732 449 678 513 q 786 279 786 385 q 688 67 786 153 q 426 -18 590 -18 z "},"T":{"ha":847,"x_min":43,"x_max":806,"o":"m 343 0 l 343 888 l 43 888 l 43 1022 l 806 1022 l 806 888 l 504 888 l 504 0 l 343 0 z "},"U":{"ha":1018,"x_min":129,"x_max":889,"o":"m 510 -18 q 129 439 129 -18 l 129 1022 l 290 1022 l 290 428 q 510 122 290 122 q 733 428 733 122 l 733 1022 l 889 1022 l 889 439 q 510 -18 889 -18 z "},"V":{"ha":825,"x_min":-3,"x_max":828,"o":"m 318 0 l -3 1022 l 168 1022 l 319 493 q 365 330 336 439 q 413 158 393 221 l 419 158 q 469 333 439 224 q 513 493 499 443 l 664 1022 l 828 1022 l 508 0 l 318 0 z "},"W":{"ha":1242,"x_min":31,"x_max":1208,"o":"m 240 0 l 31 1022 l 197 1022 l 293 490 l 347 163 l 353 163 q 422 490 379 292 l 554 1022 l 696 1022 l 829 490 q 869 305 843 428 q 899 163 894 182 l 906 163 q 934 347 915 228 q 957 490 953 465 l 1054 1022 l 1208 1022 l 1007 0 l 808 0 l 671 568 q 624 803 644 685 l 617 803 q 569 568 608 756 l 435 0 l 240 0 z "},"X":{"ha":828,"x_min":22,"x_max":807,"o":"m 22 0 l 315 528 l 40 1022 l 219 1022 l 343 783 q 421 629 356 760 l 428 629 q 497 783 476 742 l 618 1022 l 788 1022 l 513 519 l 807 0 l 628 0 l 493 254 q 451 336 479 281 q 408 421 424 392 l 403 421 q 324 254 358 324 l 193 0 l 22 0 z "},"Y":{"ha":768,"x_min":-4,"x_max":772,"o":"m 303 0 l 303 388 l -4 1022 l 168 1022 l 286 751 q 382 526 354 588 l 388 526 q 431 626 394 544 q 485 751 467 707 l 604 1022 l 772 1022 l 464 388 l 464 0 l 303 0 z "},"Z":{"ha":843,"x_min":65,"x_max":782,"o":"m 65 0 l 65 97 l 578 888 l 113 888 l 113 1022 l 776 1022 l 776 926 l 265 136 l 782 136 l 782 0 l 65 0 z "},"[":{"ha":493,"x_min":144,"x_max":438,"o":"m 144 -237 l 144 1106 l 438 1106 l 438 1018 l 264 1018 l 264 -149 l 438 -149 l 438 -237 l 144 -237 z "},"\\":{"ha":542,"x_min":28,"x_max":525,"o":"m 414 -250 l 28 1108 l 139 1108 l 525 -250 l 414 -250 z "},"]":{"ha":493,"x_min":56,"x_max":350,"o":"m 56 -237 l 56 -149 l 229 -149 l 229 1018 l 56 1018 l 56 1106 l 350 1106 l 350 -237 l 56 -237 z "},"a":{"ha":799,"x_min":76,"x_max":693,"o":"m 301 -18 q 139 42 201 -18 q 76 203 76 103 q 185 392 76 325 q 533 486 294 460 q 388 653 531 653 q 167 575 289 653 l 107 683 q 415 783 265 783 q 624 699 556 783 q 693 460 693 615 l 693 0 l 563 0 l 549 88 l 544 88 q 301 -18 422 -18 m 350 108 q 533 197 436 108 l 533 385 q 300 323 369 365 q 231 214 231 281 q 263 134 231 160 q 350 108 296 108 z "},"b":{"ha":874,"x_min":121,"x_max":806,"o":"m 476 -18 q 265 79 367 -18 l 261 79 l 246 0 l 121 0 l 121 1107 l 279 1107 l 279 814 l 275 683 q 503 783 390 783 q 726 678 646 783 q 806 394 806 572 q 709 94 806 206 q 476 -18 613 -18 m 446 114 q 586 188 532 114 q 640 392 640 261 q 461 650 640 650 q 279 557 374 650 l 279 183 q 446 114 358 114 z "},"c":{"ha":718,"x_min":67,"x_max":679,"o":"m 432 -18 q 169 89 272 -18 q 67 381 67 196 q 176 674 67 565 q 444 783 286 783 q 668 696 568 783 l 589 592 q 451 651 522 651 q 294 576 356 651 q 232 381 232 501 q 292 186 232 260 q 447 113 351 113 q 614 182 532 113 l 679 76 q 432 -18 574 -18 z "},"d":{"ha":875,"x_min":69,"x_max":756,"o":"m 385 -18 q 154 88 239 -18 q 69 381 69 193 q 167 672 69 561 q 397 783 264 783 q 603 697 501 783 l 596 824 l 596 1107 l 756 1107 l 756 0 l 625 0 l 611 86 l 607 86 q 385 -18 506 -18 m 422 114 q 596 207 515 114 l 596 581 q 428 650 519 650 q 290 577 346 650 q 235 383 235 504 q 283 184 235 254 q 422 114 332 114 z "},"e":{"ha":785,"x_min":67,"x_max":726,"o":"m 439 -18 q 173 90 279 -18 q 67 381 67 197 q 171 672 67 560 q 415 783 275 783 q 645 685 564 783 q 726 421 726 588 q 719 340 726 371 l 224 340 q 297 169 233 232 q 460 107 360 107 q 642 164 554 107 l 697 63 q 439 -18 576 -18 m 222 450 l 589 450 q 545 604 589 550 q 418 658 501 658 q 288 603 343 658 q 222 450 233 547 z "},"f":{"ha":479,"x_min":43,"x_max":524,"o":"m 524 1099 l 492 979 q 408 999 449 999 q 307 861 307 999 l 307 764 l 461 764 l 461 636 l 307 636 l 307 0 l 147 0 l 147 636 l 43 636 l 43 756 l 147 764 l 147 860 q 206 1054 147 983 q 389 1125 265 1125 q 524 1099 464 1125 z "},"g":{"ha":803,"x_min":65,"x_max":782,"o":"m 382 -343 q 152 -291 239 -343 q 65 -142 65 -239 q 176 25 65 -43 l 176 32 q 107 158 107 74 q 192 300 107 238 l 192 306 q 120 392 149 339 q 92 508 92 444 q 178 709 92 635 q 388 783 264 783 q 499 764 447 783 l 769 764 l 769 644 l 624 644 q 674 504 674 592 q 592 313 674 383 q 388 242 511 242 q 281 265 332 242 q 239 185 239 228 q 367 110 239 110 l 507 110 q 782 -76 782 110 q 672 -267 782 -190 q 382 -343 561 -343 m 285 390 q 306 367 285 390 q 388 344 326 344 q 490 390 449 344 q 532 508 532 435 q 491 627 532 583 q 388 671 450 671 q 284 628 325 671 q 243 508 243 585 q 285 390 243 435 m 406 -237 q 565 -197 503 -237 q 628 -101 628 -157 q 593 -37 628 -56 q 485 -18 558 -18 l 369 -18 q 267 -7 318 -18 q 201 -118 201 -54 q 256 -206 201 -174 q 406 -237 311 -237 z "},"h":{"ha":863,"x_min":121,"x_max":756,"o":"m 121 0 l 121 1107 l 279 1107 l 279 814 l 274 663 q 521 783 400 783 q 756 481 756 783 l 756 0 l 596 0 l 596 461 q 565 603 596 560 q 467 646 535 646 q 376 622 417 646 q 279 542 335 597 l 279 0 l 121 0 z "},"i":{"ha":399,"x_min":99,"x_max":303,"o":"m 121 0 l 121 764 l 279 764 l 279 0 l 121 0 m 274 933 q 259 920 274 933 q 200 907 244 907 q 127 933 156 907 q 99 1001 99 960 q 127 1069 99 1043 q 200 1096 156 1096 q 274 1069 244 1096 q 303 1001 303 1043 q 274 933 303 960 z "},"j":{"ha":400,"x_min":-67,"x_max":304,"o":"m 51 -329 q -67 -308 -15 -329 l -37 -189 q 31 -201 10 -201 q 102 -167 82 -201 q 122 -60 122 -132 l 122 764 l 282 764 l 282 -57 q 51 -329 282 -329 m 275 933 q 260 920 275 933 q 201 907 246 907 q 128 933 157 907 q 100 1001 100 960 q 128 1069 100 1043 q 201 1096 157 1096 q 275 1069 246 1096 q 304 1001 304 1043 q 275 933 304 960 z "},"k":{"ha":799,"x_min":121,"x_max":786,"o":"m 121 0 l 121 1107 l 276 1107 l 276 393 l 281 393 l 581 764 l 757 764 l 497 454 l 786 0 l 613 0 l 406 346 l 276 197 l 276 0 l 121 0 z "},"l":{"ha":414,"x_min":121,"x_max":365,"o":"m 279 -18 q 121 179 121 -18 l 121 1107 l 279 1107 l 279 171 q 318 113 279 113 q 344 115 331 113 l 365 -6 q 279 -18 331 -18 z "},"m":{"ha":1308,"x_min":121,"x_max":1199,"o":"m 121 0 l 121 764 l 251 764 l 264 657 l 268 657 q 504 783 388 783 q 715 643 663 783 q 964 783 846 783 q 1199 481 1199 783 l 1199 0 l 1039 0 l 1039 461 q 1008 602 1039 558 q 911 646 976 646 q 739 542 835 646 l 739 0 l 579 0 l 579 461 q 549 603 579 560 q 451 646 518 646 q 279 542 375 646 l 279 0 l 121 0 z "},"n":{"ha":867,"x_min":121,"x_max":756,"o":"m 121 0 l 121 764 l 251 764 l 264 658 l 268 658 q 521 783 399 783 q 756 481 756 783 l 756 0 l 596 0 l 596 461 q 565 603 596 560 q 467 646 535 646 q 376 622 417 646 q 279 542 335 597 l 279 0 l 121 0 z "},"o":{"ha":853,"x_min":67,"x_max":786,"o":"m 681 90 q 628 36 681 90 q 426 -18 575 -18 q 172 90 278 -18 q 67 381 67 199 q 172 674 67 565 q 426 783 278 783 q 681 674 575 783 q 786 381 786 565 q 681 90 786 199 m 426 113 q 569 185 517 113 q 622 381 622 258 q 569 577 622 503 q 426 651 517 651 q 285 577 338 651 q 232 381 232 503 q 285 186 232 260 q 426 113 338 113 z "},"p":{"ha":875,"x_min":121,"x_max":806,"o":"m 121 -310 l 121 764 l 251 764 l 264 681 l 268 681 q 503 783 392 783 q 726 678 646 783 q 806 394 806 574 q 709 94 806 206 q 476 -18 613 -18 q 275 68 376 -18 l 279 -62 l 279 -310 l 121 -310 m 279 183 q 446 114 360 114 q 586 188 532 114 q 640 392 640 261 q 461 650 640 650 q 279 557 376 650 l 279 183 z "},"q":{"ha":875,"x_min":69,"x_max":756,"o":"m 596 -310 l 596 -50 l 603 82 q 385 -18 500 -18 q 154 88 239 -18 q 69 381 69 193 q 167 672 69 561 q 397 783 264 783 q 610 690 513 783 l 615 690 l 629 764 l 756 764 l 756 -310 l 596 -310 m 422 114 q 596 207 515 114 l 596 581 q 428 650 519 650 q 290 577 346 650 q 235 383 235 504 q 283 184 235 254 q 422 114 332 114 z "},"r":{"ha":568,"x_min":121,"x_max":571,"o":"m 121 0 l 121 764 l 251 764 l 264 626 l 268 626 q 366 742 308 700 q 485 783 424 783 q 571 767 536 783 l 542 628 q 465 640 501 640 q 364 601 414 640 q 279 476 314 561 l 279 0 l 121 0 z "},"s":{"ha":667,"x_min":40,"x_max":618,"o":"m 328 -18 q 40 88 168 -18 l 115 190 q 332 103 225 103 q 433 131 399 103 q 467 206 467 160 q 456 243 467 225 q 433 272 444 261 q 392 298 421 283 q 349 318 363 313 q 297 338 335 324 q 219 372 250 356 q 151 414 188 388 q 97 477 115 440 q 79 560 79 514 q 153 720 79 657 q 350 783 226 783 q 599 693 482 783 l 524 594 q 353 661 433 661 q 262 635 293 661 q 231 567 231 608 q 256 514 231 538 q 302 481 281 490 q 379 451 324 472 q 393 446 389 447 q 476 412 446 426 q 544 370 506 397 q 600 304 582 343 q 618 214 618 265 q 541 48 618 114 q 328 -18 464 -18 z "},"t":{"ha":550,"x_min":35,"x_max":528,"o":"m 378 -18 q 146 250 146 -18 l 146 636 l 35 636 l 35 756 l 153 764 l 171 975 l 306 975 l 306 764 l 504 764 l 504 636 l 306 636 l 306 249 q 417 110 306 110 q 499 128 457 110 l 528 10 q 378 -18 442 -18 z "},"u":{"ha":861,"x_min":111,"x_max":742,"o":"m 344 -18 q 111 283 111 -18 l 111 764 l 271 764 l 271 303 q 301 162 271 204 q 399 119 331 119 q 492 146 451 119 q 582 233 533 172 l 582 764 l 742 764 l 742 0 l 611 0 l 599 115 l 594 115 q 344 -18 479 -18 z "},"v":{"ha":757,"x_min":18,"x_max":738,"o":"m 289 0 l 18 764 l 182 764 l 313 353 q 379 125 325 308 l 385 125 q 451 353 439 308 l 582 764 l 738 764 l 474 0 l 289 0 z "},"w":{"ha":1150,"x_min":38,"x_max":1113,"o":"m 244 0 l 38 764 l 199 764 l 300 350 q 314 281 307 317 q 329 201 321 244 q 342 133 338 157 l 347 133 q 363 201 353 157 q 381 282 372 246 q 397 350 389 318 l 504 764 l 653 764 l 763 350 q 788 244 771 317 q 814 133 804 172 l 819 133 q 840 234 825 160 q 864 350 854 308 l 963 764 l 1113 764 l 915 0 l 724 0 l 626 378 q 578 599 613 432 l 571 599 q 522 376 543 451 l 429 0 l 244 0 z "},"x":{"ha":731,"x_min":21,"x_max":708,"o":"m 21 0 l 268 399 l 39 764 l 211 764 l 303 610 q 375 482 325 568 l 381 482 l 444 610 l 525 764 l 692 764 l 463 381 l 708 0 l 535 0 l 435 161 q 356 297 388 247 l 349 297 q 278 161 317 240 l 189 0 l 21 0 z "},"y":{"ha":756,"x_min":18,"x_max":738,"o":"m 738 764 l 457 -46 q 339 -250 408 -181 q 156 -319 269 -319 q 60 -304 101 -319 l 90 -179 q 146 -190 128 -190 q 306 -47 257 -190 l 321 6 l 18 764 l 182 764 l 324 371 q 356 271 332 346 q 393 156 379 196 l 400 156 l 460 371 l 582 764 l 738 764 z "},"z":{"ha":681,"x_min":51,"x_max":642,"o":"m 51 0 l 51 86 l 428 636 l 93 636 l 93 764 l 629 764 l 629 679 l 253 128 l 642 128 l 642 0 l 51 0 z "},"{":{"ha":493,"x_min":51,"x_max":438,"o":"m 438 -237 l 360 -237 q 216 -191 260 -237 q 172 -25 172 -144 q 179 124 172 32 q 186 265 186 215 q 155 351 186 317 q 51 386 124 385 l 51 483 q 155 518 124 485 q 186 601 186 551 q 179 744 186 653 q 172 893 172 836 q 216 1059 172 1013 q 360 1106 260 1106 l 438 1106 l 438 1018 l 401 1018 q 322 989 343 1018 q 301 885 301 960 q 306 753 301 842 q 310 611 310 664 q 286 491 310 531 q 208 438 263 451 l 208 431 q 286 376 263 417 q 310 257 310 336 q 306 115 310 204 q 301 -17 301 26 q 322 -120 301 -92 q 401 -149 343 -149 l 438 -149 l 438 -237 z "},"|":{"ha":390,"x_min":142,"x_max":249,"o":"m 142 -390 l 142 1171 l 249 1171 l 249 -390 l 142 -390 z "},"}":{"ha":493,"x_min":56,"x_max":442,"o":"m 56 -237 l 56 -149 l 92 -149 q 171 -120 150 -149 q 192 -17 192 -92 q 188 115 192 26 q 185 257 185 204 q 208 376 185 336 q 285 431 231 417 l 285 438 q 208 491 231 451 q 185 611 185 531 q 188 753 185 664 q 192 885 192 842 q 171 989 192 960 q 92 1018 150 1018 l 56 1018 l 56 1106 l 133 1106 q 278 1059 233 1106 q 322 893 322 1013 q 315 744 322 836 q 308 601 308 653 q 339 518 308 551 q 442 483 369 485 l 442 386 q 339 351 369 385 q 308 265 308 317 q 315 124 308 215 q 322 -25 322 32 q 278 -191 322 -144 q 133 -237 233 -237 l 56 -237 z "},"~":{"ha":792,"x_min":53,"x_max":739,"o":"m 532 393 q 448 413 489 393 q 380 457 407 433 q 319 501 353 481 q 257 521 286 521 q 139 428 189 521 l 53 490 q 260 638 140 638 q 363 606 313 638 q 456 542 414 574 q 535 510 499 510 q 651 603 601 510 l 739 539 q 532 393 649 393 z "},"…":{"ha":1389,"x_min":132,"x_max":1257,"o":"m 161 457 q 147 472 161 457 q 132 528 132 486 q 161 599 132 569 q 232 628 190 628 q 303 599 274 628 q 332 528 332 569 q 303 457 332 486 q 232 428 274 428 q 161 457 190 428 m 624 457 q 609 472 624 457 q 594 528 594 486 q 624 599 594 569 q 694 628 653 628 q 765 599 736 628 q 794 528 794 569 q 765 457 794 486 q 694 428 736 428 q 624 457 653 428 m 1086 457 q 1072 472 1086 457 q 1057 528 1057 486 q 1086 599 1057 569 q 1157 628 1115 628 q 1228 599 1199 628 q 1257 528 1257 569 q 1228 457 1257 486 q 1157 428 1199 428 q 1086 457 1115 428 z "},"一":{"ha":1389,"x_min":65,"x_max":1329,"o":"m 65 613 l 1329 613 l 1329 471 l 65 471 l 65 613 z "},"丁":{"ha":1389,"x_min":86,"x_max":1303,"o":"m 1303 1047 l 1303 914 l 811 914 l 811 86 q 790 -21 811 15 q 719 -72 769 -57 q 392 -99 649 -99 q 329 51 374 -19 q 613 47 506 43 q 649 57 639 49 q 660 88 660 65 l 660 914 l 86 914 l 86 1047 l 1303 1047 z "},"七":{"ha":1389,"x_min":71,"x_max":1325,"o":"m 715 65 l 1036 65 q 1124 115 1103 65 q 1157 332 1146 164 q 1288 271 1211 292 q 1224 7 1272 78 q 1043 -64 1176 -64 l 708 -64 q 515 -15 567 -64 q 464 172 464 35 l 464 556 l 90 499 l 71 628 l 464 689 l 464 1139 l 604 1139 l 604 711 l 1304 821 l 1325 689 l 604 576 l 604 171 q 624 85 604 104 q 715 65 644 65 z "},"万":{"ha":1389,"x_min":46,"x_max":1299,"o":"m 1299 939 l 576 939 q 563 682 571 767 l 1179 682 q 1178 622 1179 640 q 1138 148 1160 292 q 1076 -40 1117 4 q 946 -97 1035 -89 q 704 -96 868 -106 q 660 31 699 -31 q 894 22 758 22 q 960 39 939 21 q 1008 183 990 65 q 1039 557 1025 301 l 546 557 q 419 165 513 333 q 139 -111 325 -4 q 46 -7 113 -60 q 157 67 107 25 q 244 152 207 110 q 311 251 282 194 q 360 355 340 308 q 395 469 381 401 q 417 583 410 536 q 431 704 425 631 q 439 821 438 778 q 443 939 440 864 l 92 939 l 92 1065 l 1299 1065 l 1299 939 z "},"丈":{"ha":1389,"x_min":92,"x_max":1318,"o":"m 1300 779 l 907 779 q 858 444 897 585 q 735 199 819 304 q 1318 14 947 56 q 1240 -110 1275 -31 q 638 101 858 -58 q 165 -99 475 -32 q 92 14 142 -36 q 533 192 385 76 q 265 693 358 371 l 389 724 q 628 283 463 447 q 729 492 699 372 q 768 779 760 611 l 92 779 l 92 906 l 772 906 q 774 1144 774 981 l 914 1144 q 911 906 914 982 l 1300 906 l 1300 779 z "},"三":{"ha":1389,"x_min":96,"x_max":1290,"o":"m 175 1033 l 1217 1033 l 1217 901 l 175 901 l 175 1033 m 265 588 l 1108 588 l 1108 456 l 265 456 l 265 588 m 96 114 l 1290 114 l 1290 -17 l 96 -17 l 96 114 z "},"上":{"ha":1389,"x_min":74,"x_max":1317,"o":"m 719 88 l 1317 88 l 1317 -43 l 74 -43 l 74 88 l 581 88 l 581 1146 l 719 1146 l 719 733 l 1221 733 l 1221 604 l 719 604 l 719 88 z "},"下":{"ha":1389,"x_min":82,"x_max":1308,"o":"m 1308 933 l 735 933 l 735 699 l 758 726 q 1025 584 885 665 q 1242 443 1165 503 l 1147 325 q 735 592 1017 435 l 735 -107 l 597 -107 l 597 933 l 82 933 l 82 1065 l 1308 1065 l 1308 933 z "},"不":{"ha":1389,"x_min":61,"x_max":1335,"o":"m 1289 939 l 856 939 q 764 796 790 833 l 764 -108 l 624 -108 l 624 621 q 150 246 410 383 q 61 361 110 313 q 419 610 254 456 q 686 939 583 764 l 100 939 l 100 1071 l 1289 1071 l 1289 939 m 769 644 l 867 728 q 1131 537 999 639 q 1335 360 1264 435 l 1226 260 q 769 644 1089 417 z "},"与":{"ha":1389,"x_min":82,"x_max":1244,"o":"m 939 346 l 939 222 l 82 222 l 82 346 l 939 346 m 393 639 l 1244 639 q 1239 579 1243 599 q 1181 150 1213 289 q 1101 -36 1150 11 q 957 -92 1051 -86 q 706 -89 871 -99 q 657 40 700 -22 q 917 29 779 29 q 990 46 969 29 q 1101 519 1063 104 l 228 519 q 358 1138 301 788 l 490 1125 q 464 985 465 992 l 1217 985 l 1217 861 l 440 861 q 393 639 422 767 z "},"丐":{"ha":1389,"x_min":100,"x_max":1294,"o":"m 1294 947 l 756 947 l 756 763 l 1214 763 l 1214 642 l 756 642 l 756 451 l 1278 451 q 1271 394 1275 413 q 1222 83 1249 186 q 1150 -60 1194 -21 q 994 -110 1100 -106 q 725 -106 899 -114 q 674 21 719 -40 q 965 8 806 8 q 1043 22 1021 8 q 1131 328 1099 64 l 181 328 q 242 810 214 503 l 376 801 q 336 451 360 639 l 618 451 l 618 947 l 100 947 l 100 1071 l 1294 1071 l 1294 947 z "},"丑":{"ha":1389,"x_min":69,"x_max":1322,"o":"m 985 469 l 582 469 q 539 57 561 244 l 953 57 q 985 469 972 239 m 1004 961 l 622 961 q 593 600 607 753 l 990 600 q 1004 961 999 758 m 1092 57 l 1322 57 l 1322 -69 l 69 -69 l 69 57 l 403 57 q 450 469 428 243 l 192 469 l 192 600 l 461 600 q 488 961 481 808 l 161 961 l 161 1090 l 1144 1090 q 1092 57 1126 496 z "},"专":{"ha":1389,"x_min":82,"x_max":1292,"o":"m 1292 633 l 558 633 q 515 494 521 513 l 1086 494 l 1108 501 l 1206 443 q 856 93 1072 300 q 1067 -3 989 42 l 990 -115 q 703 19 889 -54 q 354 139 518 93 l 425 236 q 724 143 574 199 q 961 374 858 271 l 331 374 q 421 633 369 475 l 82 633 l 82 757 l 460 757 q 481 828 467 781 q 503 900 496 876 l 193 900 l 193 1024 l 536 1024 q 551 1083 538 1029 q 572 1164 565 1138 l 710 1164 q 692 1101 706 1150 q 671 1024 679 1051 l 1192 1024 l 1192 900 l 638 900 q 594 757 626 867 l 1292 757 l 1292 633 z "},"且":{"ha":1389,"x_min":79,"x_max":1313,"o":"m 419 292 l 419 75 l 985 75 l 985 292 l 419 292 m 985 964 l 419 964 l 419 753 l 985 753 l 985 964 m 985 417 l 985 633 l 419 633 l 419 417 l 985 417 m 1118 75 l 1313 75 l 1313 -50 l 79 -50 l 79 75 l 292 75 l 292 1088 l 1118 1088 l 1118 75 z "},"世":{"ha":1389,"x_min":74,"x_max":1317,"o":"m 986 703 l 754 703 l 754 396 l 986 396 l 986 703 m 1121 276 l 625 276 l 625 703 l 403 703 l 403 99 l 1279 99 l 1279 -26 l 268 -26 l 268 703 l 74 703 l 74 826 l 268 826 l 268 1128 l 403 1128 l 403 826 l 625 826 l 625 1157 l 754 1157 l 754 826 l 986 826 l 986 1142 l 1121 1142 l 1121 826 l 1317 826 l 1317 703 l 1121 703 l 1121 276 z "},"丘":{"ha":1389,"x_min":69,"x_max":1319,"o":"m 418 546 l 418 88 l 897 88 l 897 546 l 418 546 m 1029 88 l 1319 88 l 1319 -39 l 69 -39 l 69 88 l 285 88 l 285 1017 q 1068 1135 815 1046 l 1147 1021 q 418 907 893 936 l 418 672 l 1247 672 l 1247 546 l 1029 546 l 1029 88 z "},"丙":{"ha":1389,"x_min":97,"x_max":1289,"o":"m 1289 950 l 758 950 l 758 761 l 1249 761 l 1249 51 q 1233 -37 1249 -6 q 1178 -82 1217 -68 q 918 -104 1124 -104 q 874 25 908 -43 q 1085 22 933 22 q 1112 30 1104 24 q 1119 53 1119 36 l 1119 640 l 753 640 q 733 543 746 585 q 1088 253 968 379 l 999 151 q 690 426 917 249 q 381 125 600 242 q 285 224 344 179 q 613 640 576 364 l 274 640 l 274 -108 l 144 -108 l 144 761 l 619 761 l 619 950 l 97 950 l 97 1078 l 1289 1078 l 1289 950 z "},"业":{"ha":1389,"x_min":85,"x_max":1306,"o":"m 1168 857 l 1286 800 q 1056 313 1178 524 l 949 368 q 1168 857 1088 607 m 418 369 l 289 322 q 111 824 238 526 l 229 861 q 418 369 367 549 m 932 86 l 1306 86 l 1306 -42 l 85 -42 l 85 86 l 458 86 l 458 1147 l 590 1147 l 590 86 l 800 86 l 800 1146 l 932 1146 l 932 86 z "},"丛":{"ha":1389,"x_min":79,"x_max":1318,"o":"m 886 1151 l 1026 1143 q 994 839 1017 989 q 1318 239 1099 399 q 1219 122 1269 201 q 943 583 1047 267 q 665 101 860 274 q 617 153 651 121 q 557 204 582 186 q 795 564 724 335 q 886 1151 867 793 m 717 450 l 615 354 q 443 631 564 460 q 196 110 372 293 q 88 213 164 156 q 290 576 231 347 q 364 1153 350 804 l 503 1146 q 472 804 492 957 q 717 450 631 611 m 79 -72 l 79 63 l 1314 63 l 1314 -72 l 79 -72 z "},"东":{"ha":1389,"x_min":99,"x_max":1311,"o":"m 346 364 l 475 329 q 207 -60 371 96 q 99 24 167 -19 q 346 364 264 164 m 1214 463 l 825 463 l 825 56 q 811 -28 825 1 q 761 -74 797 -58 q 542 -99 708 -99 q 493 33 525 -24 q 665 32 643 31 q 688 39 682 33 q 694 58 694 44 l 694 463 l 399 463 q 246 440 264 463 q 197 574 226 507 q 244 602 222 579 q 306 679 265 625 q 422 861 350 735 l 111 861 l 111 985 l 489 985 q 576 1174 535 1071 l 717 1121 q 650 985 703 1090 l 1275 985 l 1275 861 l 581 861 q 400 588 504 728 l 694 588 l 694 776 l 825 776 l 825 588 l 1214 588 l 1214 463 m 921 311 l 1029 364 q 1311 22 1229 164 l 1194 -40 q 1079 128 1157 29 q 921 311 1001 226 z "},"丝":{"ha":1389,"x_min":75,"x_max":1313,"o":"m 899 343 l 1278 360 q 1268 246 1268 299 q 738 200 788 218 q 696 318 715 276 q 824 418 736 326 q 967 588 868 460 q 724 560 760 575 q 682 675 704 632 q 769 763 715 685 q 869 929 804 810 q 975 1161 933 1049 l 1094 1114 q 854 693 993 886 l 1050 700 q 1183 911 1124 804 l 1297 850 q 899 343 1119 565 m 326 336 l 664 353 q 656 239 653 285 q 172 193 219 211 q 129 311 153 260 q 251 415 171 321 q 383 579 304 471 q 153 553 190 568 q 111 668 135 619 q 197 757 146 678 q 292 924 231 801 q 394 1161 354 1046 l 518 1115 q 281 686 415 878 l 461 693 q 594 921 533 797 l 711 860 q 326 336 535 561 m 75 83 l 1313 83 l 1313 -36 l 75 -36 l 75 83 z "},"丢":{"ha":1389,"x_min":85,"x_max":1303,"o":"m 1303 539 l 1303 418 l 603 418 l 661 394 q 394 100 532 224 l 1003 140 q 868 311 936 233 l 988 360 q 1159 148 1076 261 q 1281 -47 1242 35 l 1153 -103 q 1076 33 1122 -39 q 362 -26 485 -14 q 197 -56 239 -39 l 197 -54 q 156 72 179 19 q 258 139 188 78 q 370 249 296 168 q 507 418 444 331 l 85 418 l 85 539 l 628 539 l 628 697 l 196 697 l 196 819 l 628 819 l 628 968 q 183 949 429 954 q 150 1067 179 1003 q 1122 1160 793 1082 l 1219 1047 q 760 979 1019 1003 l 760 819 l 1193 819 l 1193 697 l 760 697 l 760 539 l 1303 539 z "},"两":{"ha":1389,"x_min":89,"x_max":1304,"o":"m 801 779 l 801 949 l 582 949 l 582 779 l 801 779 m 1119 274 l 1119 657 l 928 657 q 915 526 925 593 q 1119 274 1056 374 m 269 657 l 269 163 q 454 657 442 324 l 269 657 m 1304 949 l 929 949 l 929 779 l 1250 779 l 1250 43 q 1235 -44 1250 -14 q 1181 -89 1219 -75 q 919 -112 1121 -112 q 876 18 910 -50 q 1086 14 944 14 q 1113 22 1106 15 q 1119 46 1119 28 l 1119 254 l 1050 161 q 888 386 1010 235 q 706 71 832 197 q 615 161 667 126 q 800 657 788 322 l 581 657 q 569 524 579 600 q 706 346 676 400 l 629 243 q 539 379 596 306 q 360 71 483 192 q 269 160 324 124 l 269 -111 l 140 -111 l 140 779 l 456 779 l 456 949 l 89 949 l 89 1072 l 1304 1072 l 1304 949 z "},"严":{"ha":1389,"x_min":42,"x_max":1296,"o":"m 614 981 l 614 643 l 771 643 l 771 981 l 614 981 m 1296 643 l 1296 529 l 281 529 l 281 426 q 142 -112 281 69 q 94 -62 126 -92 q 42 -21 61 -32 q 153 428 153 128 l 153 643 l 488 643 l 488 981 l 146 981 l 146 1093 l 1254 1093 l 1254 981 l 899 981 l 899 643 l 1296 643 m 425 706 l 308 664 q 201 915 282 783 l 313 953 q 425 706 396 825 m 1050 661 l 946 696 q 1067 954 1015 810 l 1200 917 q 1050 661 1104 740 z "},"丧":{"ha":1389,"x_min":78,"x_max":1332,"o":"m 1132 432 l 1232 357 q 954 171 1106 257 q 1332 10 1108 56 q 1253 -103 1283 -36 q 855 91 1010 -44 q 614 447 700 226 l 428 447 l 428 63 l 740 128 q 732 4 729 67 q 379 -76 457 -57 q 275 -111 301 -96 q 224 6 260 -43 q 293 101 293 32 l 293 447 l 78 447 l 78 564 l 625 564 l 625 901 l 124 901 l 124 1019 l 625 1019 l 625 1167 l 753 1167 l 753 1019 l 1267 1019 l 1267 901 l 753 901 l 753 564 l 1315 564 l 1315 447 l 740 447 q 874 243 790 331 q 1132 432 1021 331 m 228 832 l 340 879 q 494 644 451 738 l 375 592 q 228 832 331 699 m 961 586 l 861 629 q 1021 881 956 743 l 1151 832 q 961 586 1019 647 z "},"个":{"ha":1389,"x_min":49,"x_max":1346,"o":"m 626 -108 l 626 742 l 760 742 l 760 -108 l 626 -108 m 699 1167 l 814 1113 q 774 1047 789 1068 q 1346 638 1011 789 q 1251 517 1283 585 q 697 944 951 669 q 144 519 474 672 q 49 642 103 589 q 424 860 251 724 q 699 1167 597 997 z "},"丫":{"ha":1389,"x_min":188,"x_max":1211,"o":"m 188 1064 l 286 1143 q 489 989 386 1074 q 644 842 592 904 l 538 751 q 388 903 488 814 q 188 1064 288 992 m 1078 1138 l 1211 1082 q 763 656 1006 871 l 763 -110 l 626 -110 l 626 711 q 1078 1138 844 897 z "},"中":{"ha":1389,"x_min":135,"x_max":1254,"o":"m 758 460 l 1119 460 l 1119 796 l 758 796 l 758 460 m 264 460 l 624 460 l 624 796 l 264 796 l 264 460 m 758 922 l 1254 922 l 1254 258 l 1119 258 l 1119 333 l 758 333 l 758 -108 l 624 -108 l 624 333 l 264 333 l 264 251 l 135 251 l 135 922 l 624 922 l 624 1164 l 758 1164 l 758 922 z "},"丰":{"ha":1389,"x_min":78,"x_max":1314,"o":"m 1314 343 l 1314 214 l 763 214 l 763 -107 l 625 -107 l 625 214 l 78 214 l 78 343 l 625 343 l 625 538 l 196 538 l 196 661 l 625 661 l 625 838 l 126 838 l 126 965 l 625 965 l 625 1165 l 763 1165 l 763 965 l 1260 965 l 1260 838 l 763 838 l 763 661 l 1197 661 l 1197 538 l 763 538 l 763 343 l 1314 343 z "},"串":{"ha":1389,"x_min":143,"x_max":1253,"o":"m 760 226 l 1114 226 l 1114 399 l 760 399 l 760 226 m 278 226 l 621 226 l 621 399 l 278 399 l 278 226 m 331 732 l 621 732 l 621 896 l 331 896 l 331 732 m 1053 896 l 760 896 l 760 732 l 1053 732 l 1053 896 m 760 518 l 1253 518 l 1253 57 l 1114 57 l 1114 111 l 760 111 l 760 -110 l 621 -110 l 621 111 l 278 111 l 278 56 l 143 56 l 143 518 l 621 518 l 621 619 l 199 619 l 199 1008 l 621 1008 l 621 1165 l 760 1165 l 760 1008 l 1193 1008 l 1193 619 l 760 619 l 760 518 z "},"临":{"ha":1389,"x_min":113,"x_max":1318,"o":"m 113 60 l 113 1004 l 233 1004 l 233 60 l 113 60 m 343 -97 l 343 1149 l 471 1149 l 471 -97 l 343 -97 m 879 403 l 718 403 l 718 81 l 879 81 l 879 403 m 1156 81 l 1156 403 l 997 403 l 997 81 l 1156 81 m 593 -110 l 593 526 l 1286 526 l 1286 -103 l 1156 -103 l 1156 -39 l 718 -39 l 718 -110 l 593 -110 m 1129 656 l 1042 563 q 807 776 957 654 l 892 851 q 1129 656 1039 743 m 811 1010 l 1318 1010 l 1318 885 l 763 885 q 596 614 690 721 q 482 686 540 657 q 726 1172 650 854 l 853 1147 q 811 1010 835 1072 z "},"丸":{"ha":1389,"x_min":49,"x_max":1335,"o":"m 1083 38 l 1172 38 q 1205 83 1197 38 q 1215 286 1213 129 q 1335 228 1265 247 q 1296 -21 1326 46 q 1185 -87 1265 -87 l 1061 -87 q 947 -49 978 -87 q 915 99 915 -10 l 915 746 l 635 746 q 579 425 618 563 q 808 242 739 310 l 710 136 q 532 292 653 197 q 143 -112 413 26 q 49 -10 111 -54 q 418 375 311 117 q 178 531 272 476 l 265 621 q 461 503 378 558 q 499 746 488 618 l 122 746 l 122 872 l 506 872 q 510 1161 510 968 l 647 1161 q 642 872 647 1000 l 1047 872 l 1047 99 q 1053 49 1047 60 q 1083 38 1060 38 z "},"丹":{"ha":1389,"x_min":50,"x_max":1314,"o":"m 518 851 l 608 924 q 868 694 782 794 l 771 611 q 518 851 693 710 m 399 569 l 1003 569 l 1003 979 l 400 979 l 400 628 q 399 569 400 589 m 1314 569 l 1314 446 l 1133 446 l 1133 50 q 1116 -42 1133 -10 q 1058 -89 1099 -74 q 772 -111 999 -111 q 725 15 760 -46 q 963 13 860 8 q 994 22 986 14 q 1003 50 1003 29 l 1003 446 l 392 446 q 146 -111 357 72 q 99 -61 129 -90 q 50 -21 69 -32 q 263 446 232 140 l 78 446 l 78 569 l 271 569 l 271 628 l 271 1100 l 1133 1100 l 1133 569 l 1314 569 z "},"为":{"ha":1389,"x_min":79,"x_max":1253,"o":"m 471 924 l 351 871 q 215 1081 313 957 l 326 1128 q 471 924 426 1015 m 683 838 l 1253 838 q 1251 774 1253 792 q 1217 184 1235 350 q 1158 -29 1199 18 q 1035 -93 1115 -85 q 815 -93 976 -101 q 769 40 810 -24 q 978 33 860 33 q 1038 54 1017 32 q 1085 231 1068 85 q 1114 708 1101 378 l 671 708 q 182 -87 603 189 q 79 6 138 -29 q 538 708 468 254 l 115 708 l 115 838 l 553 838 q 557 989 557 917 l 557 1161 l 688 1161 l 688 989 q 683 838 688 917 m 972 297 l 858 238 q 682 504 806 353 l 792 556 q 972 297 917 410 z "},"主":{"ha":1389,"x_min":82,"x_max":1313,"o":"m 765 63 l 1313 63 l 1313 -64 l 82 -64 l 82 63 l 624 63 l 624 369 l 211 369 l 211 494 l 624 494 l 624 771 l 144 771 l 144 897 l 728 897 q 504 1090 633 999 l 610 1164 q 753 1055 679 1117 q 869 946 828 993 l 801 897 l 1243 897 l 1243 771 l 765 771 l 765 494 l 1182 494 l 1182 369 l 765 369 l 765 63 z "},"丽":{"ha":1389,"x_min":76,"x_max":1314,"o":"m 274 546 l 374 585 q 511 313 468 421 l 406 265 q 274 546 372 363 m 639 840 l 639 40 q 588 -79 639 -53 q 407 -103 542 -103 q 371 22 399 -31 q 489 21 454 18 q 511 43 511 21 l 511 722 l 268 722 l 268 -110 l 147 -110 l 147 840 l 639 840 m 1251 840 l 1251 39 q 1200 -81 1251 -56 q 1008 -103 1156 -103 q 975 18 999 -28 q 1100 17 1028 17 q 1122 40 1122 18 l 1122 722 l 865 722 l 865 -110 l 744 -110 l 744 840 l 1251 840 m 1111 306 l 1011 260 q 875 535 978 353 l 972 572 q 1111 306 1063 422 m 76 1088 l 1314 1088 l 1314 964 l 76 964 l 76 1088 z "},"举":{"ha":1389,"x_min":42,"x_max":1350,"o":"m 779 963 l 663 910 q 542 1125 629 1010 l 650 1172 q 779 963 742 1056 m 761 415 l 761 267 l 1271 267 l 1271 146 l 761 146 l 761 -110 l 631 -110 l 631 146 l 132 146 l 132 267 l 631 267 l 631 415 l 335 415 l 335 535 l 631 535 l 631 694 l 761 694 l 761 535 l 1061 535 l 1061 415 l 761 415 m 1311 783 l 1000 783 q 1158 624 1064 697 q 1350 511 1251 551 q 1264 407 1294 464 q 1041 565 1147 464 q 867 783 935 665 l 533 783 q 357 556 465 658 q 124 393 249 453 q 42 494 96 440 q 244 614 149 538 q 400 783 339 690 l 81 783 l 81 900 l 340 900 q 211 1083 290 992 l 321 1139 q 467 938 429 1019 l 394 900 l 875 900 q 1036 1149 974 1019 l 1174 1106 q 1018 900 1101 1000 l 1311 900 l 1311 783 z "},"乃":{"ha":1389,"x_min":40,"x_max":1249,"o":"m 919 593 l 1249 593 q 1246 533 1247 551 q 1214 138 1232 257 q 1160 -19 1196 19 q 1022 -75 1115 -68 q 776 -75 951 -82 q 722 61 769 -4 q 971 51 843 51 q 1036 68 1018 51 q 1101 468 1082 106 l 729 468 q 868 951 799 660 l 478 951 l 478 906 q 473 724 478 807 q 449 520 468 640 q 395 299 429 400 q 297 86 361 197 q 144 -114 232 -25 q 40 -7 93 -44 q 206 215 140 92 q 300 469 272 338 q 336 695 328 600 q 344 907 344 790 l 344 951 l 132 951 l 132 1078 l 1042 1078 q 919 593 958 735 z "},"久":{"ha":1389,"x_min":47,"x_max":1343,"o":"m 874 956 l 967 913 q 836 553 915 710 q 1042 223 910 368 q 1343 8 1175 78 q 1249 -107 1290 -36 q 760 414 938 44 q 163 -112 533 54 q 117 -52 149 -87 q 63 3 86 -17 q 514 316 322 110 q 794 818 706 522 l 465 818 q 163 418 332 568 q 110 467 146 438 q 47 514 74 497 q 290 792 183 621 q 457 1165 396 963 l 597 1132 q 528 949 561 1025 l 849 949 l 874 956 z "},"么":{"ha":1389,"x_min":82,"x_max":1318,"o":"m 603 1153 l 736 1104 q 483 772 631 938 q 183 492 335 606 q 82 585 125 554 q 376 849 232 690 q 603 1153 519 1007 m 1318 -24 l 1194 -92 q 1122 49 1167 -29 q 889 29 1004 39 q 699 14 774 19 q 553 2 625 8 q 438 -8 481 -4 q 355 -15 396 -11 q 292 -21 314 -18 q 251 -26 271 -24 q 219 -32 231 -29 q 199 -39 208 -35 q 144 92 171 42 q 333 224 196 104 q 601 494 425 299 q 915 893 776 689 l 1050 828 q 408 121 760 426 l 1050 168 q 879 414 968 301 l 997 471 q 1182 215 1092 353 q 1318 -24 1272 76 z "},"义":{"ha":1389,"x_min":53,"x_max":1338,"o":"m 817 839 l 697 790 q 560 1129 667 900 l 671 1169 q 817 839 771 975 m 1088 1063 l 1221 1022 q 797 296 1067 571 q 1338 8 1039 94 q 1249 -108 1290 -35 q 694 201 935 -10 q 122 -111 460 1 q 53 1 94 -50 q 601 292 372 101 q 199 958 349 554 l 319 996 q 700 385 450 638 q 1088 1063 958 643 z "},"之":{"ha":1389,"x_min":71,"x_max":1335,"o":"m 471 126 l 489 115 q 632 63 549 76 q 843 50 715 50 q 1335 78 1113 50 q 1297 -61 1303 4 q 838 -75 1094 -75 q 620 -59 707 -75 q 465 -1 533 -43 q 415 34 446 11 q 366 69 385 57 q 333 81 347 81 q 165 -96 285 81 l 71 25 q 338 203 235 203 q 353 201 347 203 q 704 462 528 304 q 999 772 881 619 l 140 772 l 140 899 l 703 899 q 565 1114 647 1001 l 681 1175 q 833 950 790 1031 l 742 899 l 1097 899 l 1122 906 l 1221 842 q 889 456 1094 651 q 471 126 683 261 z "},"乌":{"ha":1389,"x_min":83,"x_max":1283,"o":"m 1040 281 l 1040 167 l 83 167 l 83 281 l 1040 281 m 388 535 l 1283 535 q 1282 481 1283 497 q 1256 99 1271 213 q 1208 -50 1240 -14 q 1094 -100 1169 -93 q 886 -100 1021 -107 q 843 21 881 -32 q 1043 14 928 14 q 1099 29 1081 11 q 1154 419 1138 68 l 263 419 l 263 1025 l 535 1025 q 588 1171 569 1101 l 726 1156 q 661 1025 690 1076 l 1161 1025 q 1156 968 1158 988 q 1088 660 1135 710 q 983 621 1051 624 q 794 624 906 615 q 767 733 792 678 q 929 725 836 725 q 979 739 967 725 q 1019 908 1004 769 l 388 908 l 388 535 z "},"乍":{"ha":1389,"x_min":57,"x_max":1307,"o":"m 1307 810 l 676 810 l 676 628 l 1225 628 l 1225 504 l 676 504 l 676 318 l 1250 318 l 1250 192 l 676 192 l 676 -110 l 542 -110 l 542 810 l 393 810 q 176 514 293 638 q 57 597 126 558 q 260 849 165 696 q 415 1168 356 1001 l 550 1132 q 463 936 504 1015 l 1307 936 l 1307 810 z "},"乎":{"ha":1389,"x_min":78,"x_max":1315,"o":"m 1315 519 l 1315 388 l 778 388 l 778 57 q 759 -40 778 -7 q 696 -87 740 -72 q 400 -111 629 -111 q 344 22 385 -43 q 596 18 454 18 q 639 57 639 19 l 639 388 l 78 388 l 78 519 l 639 519 l 639 951 q 193 928 443 935 q 163 1044 192 975 q 1133 1149 807 1068 l 1199 1032 q 778 964 1018 989 l 778 519 l 1315 519 m 221 853 l 333 893 q 464 603 431 729 l 344 556 q 221 853 317 678 m 1036 560 l 929 603 q 1069 919 1014 750 l 1208 874 q 1036 560 1100 661 z "},"乏":{"ha":1389,"x_min":64,"x_max":1344,"o":"m 1156 1146 l 1247 1036 q 186 926 875 946 q 156 1043 182 974 q 1156 1146 831 1067 m 776 754 l 658 690 q 539 893 628 757 l 651 947 q 776 754 733 833 m 1119 696 l 1217 628 q 896 335 1090 479 q 499 96 701 192 q 840 39 597 39 q 1344 68 1126 39 q 1306 -71 1311 -1 q 835 -86 1086 -86 q 603 -68 692 -86 q 444 -4 515 -50 q 392 38 424 11 q 340 78 360 64 q 307 92 319 92 q 254 49 283 92 q 179 -79 225 6 q 165 -106 169 -97 l 64 22 q 311 215 217 215 q 392 175 342 215 q 708 349 550 243 q 975 563 865 454 l 171 563 l 171 689 l 1094 689 l 1119 696 z "},"乐":{"ha":1389,"x_min":56,"x_max":1332,"o":"m 322 390 l 447 349 q 163 -25 319 132 q 56 57 115 18 q 322 390 214 200 m 1279 493 l 790 493 l 790 51 q 776 -37 790 -7 q 724 -82 761 -68 q 479 -106 665 -108 q 435 25 469 -39 q 624 24 571 21 q 650 30 643 24 q 657 53 657 36 l 657 493 l 350 493 q 185 474 207 493 q 140 593 164 544 q 188 682 168 603 q 216 849 200 736 q 233 1067 232 963 q 1150 1153 846 1081 l 1219 1038 q 360 951 924 967 q 304 622 343 786 l 657 622 l 657 883 l 790 883 l 790 622 l 1281 622 l 1279 493 m 951 340 l 1064 388 q 1332 38 1249 181 l 1211 -21 q 951 340 1128 131 z "},"乒":{"ha":1389,"x_min":71,"x_max":1318,"o":"m 486 242 l 601 164 q 175 -101 408 4 q 86 -7 136 -53 q 306 110 192 39 q 486 242 421 181 m 439 674 l 439 385 l 875 385 l 875 674 l 439 674 m 1007 385 l 1318 385 l 1318 264 l 71 264 l 71 385 l 307 385 l 307 1079 q 1110 1163 835 1106 l 1178 1044 q 439 969 888 989 l 439 794 l 1243 794 l 1243 674 l 1007 674 l 1007 385 z "},"乓":{"ha":1389,"x_min":71,"x_max":1318,"o":"m 804 153 l 903 233 q 1301 -18 1185 74 l 1196 -110 q 804 153 1075 -8 m 439 674 l 439 385 l 875 385 l 875 674 l 439 674 m 1007 385 l 1318 385 l 1318 264 l 71 264 l 71 385 l 307 385 l 307 1079 q 1110 1163 835 1106 l 1178 1044 q 439 969 888 989 l 439 794 l 1243 794 l 1243 674 l 1007 674 l 1007 385 z "},"乔":{"ha":1389,"x_min":42,"x_max":1343,"o":"m 1308 708 l 956 708 q 1343 464 1106 535 q 1254 353 1292 419 q 974 517 1099 408 l 974 -110 l 842 -110 l 842 519 l 971 519 q 806 708 872 606 l 585 708 q 414 518 513 604 l 531 518 l 531 368 q 521 240 531 297 q 483 116 511 183 q 393 -10 454 49 q 239 -114 332 -68 q 139 -17 203 -62 q 278 70 222 22 q 358 172 333 118 q 392 271 383 226 q 400 372 400 315 l 400 507 q 132 342 286 411 q 42 453 94 403 q 421 708 274 540 l 79 708 l 79 832 l 510 832 q 578 974 551 899 q 175 960 386 963 q 147 1069 172 1013 q 1126 1147 801 1083 l 1218 1046 q 724 983 1018 1006 q 658 832 689 892 l 1308 832 l 1308 708 z "},"乖":{"ha":1389,"x_min":69,"x_max":1329,"o":"m 375 593 l 375 706 l 499 706 l 499 129 l 375 129 l 375 243 q 258 197 347 232 q 125 147 168 163 l 69 264 q 375 357 229 310 l 375 479 l 104 479 l 104 593 l 375 593 m 1306 760 l 760 760 l 760 -110 l 624 -110 l 624 760 l 86 760 l 86 878 l 624 878 l 624 992 q 196 974 422 978 q 167 1082 193 1022 q 1108 1158 794 1100 l 1194 1053 q 760 1001 1000 1021 l 760 878 l 1306 878 l 1306 760 m 1050 249 l 1175 249 q 1208 274 1200 249 q 1219 390 1217 300 q 1329 342 1256 360 q 1290 178 1319 221 q 1186 136 1260 136 l 1032 136 q 913 169 943 136 q 882 293 882 201 l 882 704 l 1006 704 l 1006 538 q 1207 657 1119 592 l 1297 563 q 1006 426 1197 501 l 1006 294 q 1014 257 1006 265 q 1050 249 1022 249 z "},"乘":{"ha":1389,"x_min":50,"x_max":1338,"o":"m 885 732 l 1003 732 l 1003 604 q 1179 685 1118 649 l 1257 589 q 1003 501 1161 549 l 1003 414 q 1010 382 1003 389 q 1046 375 1018 375 l 1160 375 q 1191 392 1183 375 q 1201 469 1199 408 q 1306 425 1236 440 q 1267 299 1296 332 q 1174 267 1239 267 l 1029 267 q 914 297 943 267 q 885 413 885 326 l 885 732 m 761 765 l 761 451 q 1003 201 849 313 q 1338 39 1158 89 q 1254 -69 1292 0 q 984 69 1111 -21 q 761 279 857 160 l 761 -108 l 626 -108 l 626 275 q 135 -65 426 35 q 50 43 99 -3 q 476 278 292 110 l 381 278 l 381 336 q 118 290 361 333 l 93 397 q 381 438 251 418 l 381 540 l 136 540 l 136 642 l 381 642 l 381 729 l 501 729 l 501 301 q 626 453 578 375 l 626 765 l 96 765 l 96 882 l 626 882 l 626 988 q 210 969 432 974 q 182 1079 208 1015 q 1121 1161 801 1099 l 1178 1050 q 761 997 1003 1017 l 761 882 l 1293 882 l 1293 765 l 761 765 z "},"乙":{"ha":1389,"x_min":126,"x_max":1307,"o":"m 438 82 l 1042 82 q 1142 137 1115 82 q 1175 369 1168 192 q 1307 321 1232 336 q 1233 24 1292 99 q 1028 -51 1174 -51 l 451 -51 q 208 5 289 -51 q 126 164 126 61 q 144 254 126 213 q 226 377 161 296 q 438 592 290 458 q 826 924 585 725 l 139 924 l 139 1057 l 1014 1057 l 1044 1064 l 1138 999 q 1113 979 1124 985 q 719 660 881 796 q 469 444 557 524 q 335 307 382 364 q 277 226 288 250 q 267 175 267 201 q 438 82 267 82 z "},"九":{"ha":1389,"x_min":63,"x_max":1332,"o":"m 1046 43 l 1160 43 q 1198 85 1189 43 q 1211 274 1207 128 q 1332 217 1260 235 q 1290 -18 1322 44 q 1172 -81 1258 -81 l 1025 -81 q 899 -41 932 -81 q 867 108 867 -1 l 867 735 l 590 735 q 554 485 579 599 q 482 260 529 372 q 354 52 435 147 q 163 -114 274 -43 q 63 -11 132 -60 q 344 293 257 106 q 450 735 431 481 l 101 735 l 101 863 l 458 863 q 463 1161 463 963 l 606 1161 q 599 863 603 929 l 1001 863 l 1001 108 q 1010 55 1001 67 q 1046 43 1018 43 z "},"乞":{"ha":1389,"x_min":54,"x_max":1306,"o":"m 1289 864 l 386 864 q 168 610 278 708 q 54 706 125 656 q 251 908 158 785 q 400 1165 343 1031 l 535 1124 q 467 992 508 1064 l 1289 992 l 1289 864 m 476 50 l 1074 49 q 1153 85 1132 49 q 1181 240 1175 121 q 1306 194 1229 210 q 1241 -26 1292 28 q 1061 -79 1190 -79 l 489 -79 q 280 -33 350 -79 q 210 96 210 13 q 216 149 210 126 q 251 210 222 171 q 333 296 279 250 q 490 412 388 342 q 738 572 592 482 l 290 572 l 290 696 l 967 696 l 996 700 l 1089 633 q 1063 613 1074 618 q 731 418 868 501 q 520 285 594 335 q 406 199 446 235 q 357 144 367 163 q 347 108 347 126 q 476 50 347 50 z "},"也":{"ha":1389,"x_min":46,"x_max":1321,"o":"m 576 35 l 1033 35 q 1156 78 1126 35 q 1200 268 1185 121 q 1321 218 1247 235 q 1247 -19 1303 43 q 1039 -82 1192 -82 l 578 -82 q 350 -33 410 -82 q 290 157 290 15 l 290 557 l 81 492 l 46 610 l 290 686 l 290 1069 l 417 1069 l 417 724 l 672 804 l 672 1163 l 800 1163 l 800 843 l 1089 932 l 1103 943 l 1128 963 l 1221 921 l 1214 897 q 1171 393 1207 492 q 1058 282 1139 300 q 893 272 992 269 q 860 392 888 336 q 989 388 904 388 q 1030 400 1014 388 q 1057 449 1046 413 q 1086 807 1082 524 l 800 717 l 800 192 l 672 192 l 672 678 l 417 597 l 417 154 q 447 57 417 79 q 576 35 476 35 z "},"习":{"ha":1389,"x_min":142,"x_max":1239,"o":"m 961 475 l 985 356 q 188 72 822 296 l 142 203 q 961 475 474 306 m 318 771 l 404 854 q 763 585 664 675 l 671 486 q 318 771 569 588 m 1239 1074 l 1239 1003 q 1217 242 1232 446 q 1164 -17 1203 38 q 1038 -93 1119 -82 q 801 -93 978 -99 q 760 31 801 -31 q 986 24 861 24 q 1043 47 1021 22 q 1088 276 1075 81 q 1107 950 1100 472 l 164 950 l 164 1074 l 1239 1074 z "},"乡":{"ha":1389,"x_min":99,"x_max":1253,"o":"m 1113 635 l 1253 590 q 850 126 1117 288 q 171 -107 583 -35 q 99 22 147 -43 q 615 153 399 64 q 965 394 831 242 q 386 344 519 358 q 210 314 253 329 q 165 443 190 385 q 371 526 229 451 q 675 707 483 579 q 257 660 315 679 q 214 788 240 722 q 338 851 251 793 q 498 979 393 888 q 682 1165 603 1071 l 803 1090 q 465 801 629 917 l 844 826 q 1011 963 899 868 l 1126 875 q 529 479 854 649 l 1054 517 q 1113 635 1078 556 z "},"书":{"ha":1389,"x_min":89,"x_max":1322,"o":"m 1322 944 l 1242 846 q 975 1044 1156 928 l 1050 1131 q 1322 944 1224 1028 m 696 804 l 696 557 l 986 557 l 986 804 l 696 804 m 1115 557 l 1315 557 q 1310 501 1313 521 q 1276 197 1294 292 q 1224 68 1257 101 q 1104 21 1185 28 q 890 22 1024 15 q 847 146 885 93 q 1056 136 947 136 q 1115 150 1097 136 q 1174 435 1154 183 l 696 435 l 696 -106 l 564 -106 l 564 435 l 89 435 l 89 557 l 564 557 l 564 804 l 172 804 l 172 928 l 564 928 l 564 1161 l 696 1161 l 696 928 l 1115 928 l 1115 557 z "},"买":{"ha":1389,"x_min":71,"x_max":1300,"o":"m 1122 725 l 1017 776 q 1118 961 1067 851 l 154 961 l 154 1082 l 1160 1082 l 1160 1083 l 1183 1083 l 1206 1090 l 1300 1051 q 1122 725 1207 844 m 643 753 l 569 654 q 299 811 471 733 l 368 897 q 643 753 550 824 m 479 563 l 407 468 q 144 614 314 542 l 215 699 q 479 563 389 633 m 732 153 l 799 244 q 1294 -7 1100 122 l 1211 -108 q 732 153 1018 32 m 707 890 l 836 890 q 797 433 829 581 l 1300 433 l 1300 314 l 763 314 q 556 46 700 149 q 138 -112 411 -57 q 71 -3 122 -60 q 435 117 306 42 q 625 314 565 193 l 97 314 l 97 433 l 668 433 q 707 890 700 560 z "},"乱":{"ha":1389,"x_min":56,"x_max":1333,"o":"m 604 86 l 604 342 l 244 342 l 244 86 l 604 86 m 488 992 l 488 782 l 781 782 l 781 665 l 488 665 l 488 457 l 731 457 l 731 -69 l 604 -69 l 604 -28 l 244 -28 l 244 -81 l 124 -81 l 124 457 l 363 457 l 363 665 l 56 665 l 56 782 l 363 782 l 363 971 q 113 942 288 960 q 76 1044 101 997 q 660 1156 464 1086 l 757 1056 q 488 992 664 1024 m 1017 26 l 1157 26 q 1201 76 1190 26 q 1218 283 1213 125 q 1333 226 1269 242 q 1291 -25 1324 43 q 1168 -93 1258 -93 l 999 -93 q 869 -51 903 -93 q 836 110 836 -10 l 836 1146 l 964 1146 l 964 108 q 973 41 964 56 q 1017 26 982 26 z "},"乳":{"ha":1389,"x_min":67,"x_max":1332,"o":"m 125 911 l 229 951 q 332 724 300 825 l 222 678 q 125 911 196 769 m 782 378 l 783 261 q 510 232 600 242 l 510 24 q 497 -49 510 -24 q 453 -87 485 -75 q 251 -108 407 -108 q 213 7 243 -57 q 360 6 321 3 q 380 10 375 7 q 385 26 385 14 l 385 221 q 79 192 367 219 l 67 311 q 385 339 213 322 l 385 417 q 547 569 456 468 l 139 569 l 139 678 l 649 678 l 676 686 l 760 619 q 510 378 656 494 l 510 351 q 782 378 700 369 m 339 942 l 443 975 q 519 746 496 851 l 411 706 q 339 942 393 790 m 646 692 l 544 731 q 668 1011 618 858 l 792 967 q 646 692 696 772 m 722 1168 l 807 1063 q 126 978 553 996 q 92 1082 119 1028 q 722 1168 511 1108 m 1039 40 l 1163 40 q 1203 90 1193 40 q 1218 297 1214 140 q 1332 240 1265 257 q 1291 -7 1322 60 q 1174 -74 1260 -74 l 1019 -74 q 894 -33 926 -74 q 863 122 863 8 l 863 1131 l 990 1131 l 990 121 q 999 55 990 69 q 1039 40 1008 40 z "},"乾":{"ha":1389,"x_min":67,"x_max":1338,"o":"m 224 536 l 224 422 l 519 422 l 519 536 l 224 536 m 224 729 l 224 615 l 519 615 l 519 729 l 224 729 m 436 322 l 436 207 l 668 207 l 668 104 l 436 104 l 436 -96 l 311 -96 l 311 104 l 67 104 l 67 207 l 311 207 l 311 322 l 108 322 l 108 829 l 308 829 l 308 944 l 75 944 l 75 1046 l 308 1046 l 308 1165 l 433 1165 l 433 1046 l 671 1046 l 671 944 l 433 944 l 433 829 l 639 829 l 639 756 q 849 1158 775 910 l 972 1128 q 911 964 940 1028 l 1318 964 l 1318 842 l 851 842 q 742 678 793 736 q 639 751 710 710 l 639 322 l 436 322 m 917 35 l 1169 35 q 1215 68 1203 35 q 1229 218 1226 101 q 1338 178 1285 185 q 1292 -37 1328 14 q 1165 -87 1256 -87 l 915 -87 q 715 57 715 -87 q 728 135 715 97 q 811 277 742 172 q 1015 547 881 382 l 746 547 l 746 667 l 1136 667 l 1165 668 l 1250 638 q 1235 610 1244 624 q 973 294 1063 410 q 864 142 883 179 q 844 76 844 104 q 917 35 844 35 z "},"了":{"ha":1389,"x_min":139,"x_max":1246,"o":"m 1143 1069 l 1246 994 q 1026 793 1154 894 q 768 618 897 692 l 768 47 q 750 -44 768 -12 q 688 -89 732 -75 q 396 -111 618 -114 q 344 19 388 -51 q 498 16 419 17 q 593 17 576 15 q 624 25 615 18 q 633 50 633 32 l 633 683 q 988 935 828 783 l 139 935 l 139 1063 l 1114 1063 l 1143 1069 z "},"予":{"ha":1389,"x_min":78,"x_max":1325,"o":"m 1219 656 l 1325 610 q 1089 263 1201 383 l 981 328 q 1117 524 1050 410 l 771 524 l 771 40 q 754 -44 771 -15 q 697 -86 738 -72 q 438 -107 638 -107 q 389 18 425 -50 q 603 15 449 15 q 629 22 622 17 q 636 43 636 28 l 636 524 l 78 524 l 78 647 l 757 647 q 399 804 554 742 l 465 901 q 700 807 676 817 q 925 971 819 876 l 208 971 l 208 1090 l 1051 1090 l 1079 1097 l 1174 1025 q 831 753 1029 881 q 967 690 936 706 l 940 647 l 1196 647 l 1219 656 z "},"争":{"ha":1389,"x_min":61,"x_max":1332,"o":"m 1022 313 l 1022 449 l 751 449 l 751 313 l 1022 313 m 751 696 l 751 567 l 1022 567 l 1022 696 l 751 696 m 836 939 l 465 939 q 336 810 400 864 l 724 810 q 836 939 775 857 m 1332 567 l 1332 449 l 1149 449 l 1149 196 l 1106 196 l 1106 194 l 751 194 l 751 40 q 735 -44 751 -15 q 681 -87 719 -74 q 428 -110 624 -110 q 379 14 413 -49 q 586 13 526 10 q 614 19 607 14 q 621 42 621 25 l 621 194 l 206 194 l 206 313 l 621 313 l 621 449 l 61 449 l 61 567 l 621 567 l 621 696 l 258 696 l 258 747 q 188 697 239 732 q 142 747 171 719 q 92 786 114 774 q 472 1165 344 936 l 613 1140 q 554 1051 585 1094 l 922 1051 l 944 1057 l 1036 993 q 883 810 979 910 l 1149 810 l 1149 567 l 1332 567 z "},"事":{"ha":1389,"x_min":68,"x_max":1325,"o":"m 1050 193 l 1050 279 l 754 279 l 754 193 l 1050 193 m 754 460 l 754 381 l 1050 381 l 1050 460 l 754 460 m 363 719 l 624 719 l 624 803 l 363 803 l 363 719 m 1028 803 l 754 803 l 754 719 l 1028 719 l 1028 803 m 1325 381 l 1325 279 l 1181 279 l 1181 36 l 1050 36 l 1050 96 l 754 96 l 754 24 q 740 -55 754 -29 q 689 -94 725 -81 q 453 -112 638 -112 q 408 -8 439 -56 q 590 -10 538 -12 q 617 -2 610 -8 q 624 22 624 4 l 624 96 l 190 96 l 190 193 l 624 193 l 624 279 l 68 279 l 68 381 l 624 381 l 624 460 l 203 460 l 203 551 l 624 551 l 624 633 l 239 633 l 239 889 l 624 889 l 624 960 l 97 960 l 97 1064 l 624 1064 l 624 1165 l 754 1165 l 754 1064 l 1296 1064 l 1296 960 l 754 960 l 754 889 l 1158 889 l 1158 633 l 754 633 l 754 551 l 1181 551 l 1181 381 l 1325 381 z "},"二":{"ha":1389,"x_min":85,"x_max":1307,"o":"m 200 972 l 1192 972 l 1192 832 l 200 832 l 200 972 m 85 164 l 1307 164 l 1307 17 l 85 17 l 85 164 z "},"于":{"ha":1389,"x_min":81,"x_max":1310,"o":"m 1310 624 l 1310 496 l 776 496 l 776 67 q 758 -31 776 3 q 697 -79 740 -64 q 406 -104 633 -104 q 351 32 393 -36 q 599 31 500 26 q 631 39 621 31 q 640 68 640 47 l 640 496 l 81 496 l 81 624 l 640 624 l 640 943 l 175 943 l 175 1071 l 1215 1071 l 1215 943 l 776 943 l 776 624 l 1310 624 z "},"亏":{"ha":1389,"x_min":76,"x_max":1308,"o":"m 1208 1093 l 1208 972 l 179 972 l 179 1093 l 1208 1093 m 1308 644 l 542 644 q 492 418 511 494 l 1168 418 q 1164 364 1167 382 q 1126 67 1147 163 q 1068 -61 1106 -28 q 925 -111 1022 -106 q 656 -107 829 -115 q 604 17 651 -44 q 886 6 736 6 q 958 18 939 6 q 1026 300 1003 51 l 332 300 l 332 301 l 317 301 q 397 644 364 454 l 76 644 l 76 765 l 1308 765 l 1308 644 z "},"云":{"ha":1389,"x_min":79,"x_max":1311,"o":"m 1168 1063 l 1168 931 l 232 931 l 232 1063 l 1168 1063 m 1311 544 l 665 544 q 371 107 540 314 l 1003 153 q 847 378 951 232 l 965 440 q 1285 -40 1186 144 l 1160 -115 q 1078 31 1135 -62 q 267 -43 333 -32 q 197 -60 224 -49 q 147 85 169 36 q 256 182 186 94 q 360 328 292 224 q 485 544 428 432 l 79 544 l 79 676 l 1311 676 l 1311 544 z "},"互":{"ha":1389,"x_min":76,"x_max":1319,"o":"m 439 383 l 904 383 q 938 646 931 585 l 494 646 q 439 383 447 421 m 990 60 l 1319 60 l 1319 -65 l 76 -65 l 76 60 l 856 60 q 872 166 863 96 q 886 263 882 236 l 264 263 q 415 972 350 565 l 119 972 l 119 1096 l 1279 1096 l 1279 972 l 557 972 q 518 767 525 808 l 963 767 l 986 772 l 1083 761 q 990 60 1061 518 z "},"五":{"ha":1389,"x_min":83,"x_max":1310,"o":"m 938 508 l 631 508 q 556 89 593 276 l 899 89 q 938 508 922 288 m 1035 89 l 1310 89 l 1310 -39 l 83 -39 l 83 89 l 414 89 q 492 508 443 232 l 244 508 l 244 635 l 513 635 l 551 907 l 168 907 l 168 1033 l 1215 1033 l 1215 907 l 693 907 q 653 635 685 851 l 958 635 l 983 640 l 1083 632 q 1035 89 1067 361 z "},"井":{"ha":1389,"x_min":83,"x_max":1307,"o":"m 519 461 l 874 461 l 874 761 l 525 761 l 525 631 q 519 461 525 535 m 1307 461 l 1307 331 l 1010 331 l 1010 -110 l 874 -110 l 874 331 l 503 331 q 214 -122 449 36 q 99 -28 157 -60 q 360 331 304 106 l 83 331 l 83 461 l 382 461 q 389 631 389 529 l 389 761 l 126 761 l 126 890 l 389 890 l 389 1160 l 525 1160 l 525 890 l 874 890 l 874 1163 l 1010 1163 l 1010 890 l 1272 890 l 1272 761 l 1010 761 l 1010 461 l 1307 461 z "},"亚":{"ha":1389,"x_min":63,"x_max":1325,"o":"m 590 957 l 590 89 l 785 89 l 785 957 l 590 957 m 925 89 l 1325 89 l 1325 -35 l 63 -35 l 63 89 l 450 89 l 450 957 l 104 957 l 104 1085 l 1292 1085 l 1292 957 l 925 957 l 925 89 m 114 743 l 226 783 q 414 318 365 478 l 289 265 q 114 743 244 442 m 1064 275 l 949 318 q 1139 783 1071 547 l 1265 743 q 1064 275 1175 485 z "},"些":{"ha":1389,"x_min":58,"x_max":1324,"o":"m 1150 454 l 936 454 q 792 492 829 454 q 756 635 756 529 l 756 1165 l 885 1165 l 885 907 q 1168 1032 1061 965 l 1268 929 q 885 789 1125 861 l 885 635 q 897 587 885 597 q 951 576 908 576 l 1140 576 q 1189 608 1178 576 q 1206 750 1200 639 q 1324 700 1258 713 q 1276 505 1311 556 q 1150 454 1240 454 m 235 222 l 235 346 l 1168 346 l 1168 222 l 235 222 m 701 610 l 704 490 q 74 413 379 449 l 58 540 l 144 547 l 144 1018 l 264 1018 l 264 560 l 368 571 l 368 1165 l 496 1165 l 496 940 l 690 940 l 690 825 l 496 825 l 496 586 l 701 610 m 79 -78 l 79 50 l 1311 50 l 1311 -78 l 79 -78 z "},"亡":{"ha":1389,"x_min":79,"x_max":1314,"o":"m 1314 751 l 406 751 l 406 97 l 1224 97 l 1224 -35 l 268 -35 l 268 751 l 79 751 l 79 878 l 683 878 q 581 1126 650 1001 l 715 1168 q 829 915 800 1026 l 714 878 l 1314 878 l 1314 751 z "},"亢":{"ha":1389,"x_min":54,"x_max":1340,"o":"m 1301 921 l 1301 797 l 93 797 l 93 921 l 676 921 q 586 1142 657 993 l 715 1185 q 815 967 776 1075 l 681 921 l 1301 921 m 1064 28 l 1150 28 q 1203 36 1189 28 q 1232 82 1225 44 q 1239 265 1239 133 q 1340 210 1279 228 q 1321 0 1338 54 q 1258 -72 1304 -54 q 1150 -90 1218 -90 l 1033 -90 q 913 -61 957 -90 q 876 -11 888 -43 q 865 92 865 21 l 865 540 l 521 540 l 521 460 q 138 -121 521 51 q 54 -11 108 -62 q 201 73 139 26 q 299 165 264 119 q 355 265 335 210 q 381 365 375 319 q 388 464 388 410 l 388 661 l 1000 661 l 1000 93 q 1017 35 1000 42 q 1064 28 1032 28 z "},"交":{"ha":1389,"x_min":71,"x_max":1324,"o":"m 1292 981 l 1292 856 l 94 856 l 94 981 l 654 981 q 572 1138 621 1057 l 694 1179 q 796 996 765 1071 l 756 981 l 1292 981 m 843 756 l 944 829 q 1144 681 1042 764 q 1300 536 1246 599 l 1192 451 q 1040 601 1140 514 q 843 756 940 688 m 432 825 l 558 776 q 389 603 489 690 q 194 457 289 517 q 93 551 140 517 q 281 677 189 604 q 432 825 374 750 m 890 590 l 1021 551 q 796 213 939 351 q 1324 14 1006 65 q 1244 -101 1278 -31 q 697 129 913 -40 q 149 -111 489 -28 q 71 6 124 -56 q 601 214 400 71 q 388 547 469 354 l 504 583 q 699 294 571 415 q 890 590 825 417 z "},"亥":{"ha":1389,"x_min":79,"x_max":1311,"o":"m 1093 597 l 1215 531 q 919 226 1100 364 q 1286 -14 1163 89 l 1168 -104 q 803 149 1061 -8 q 157 -108 531 -19 q 79 14 128 -39 q 1093 597 813 175 m 810 999 l 1311 999 l 1311 872 l 660 872 q 469 661 542 735 l 824 681 q 918 796 872 729 l 1040 735 q 189 189 776 357 q 111 308 164 249 q 672 553 444 393 q 247 508 297 528 q 214 642 236 575 q 315 685 279 654 q 492 872 369 732 l 83 872 l 83 999 l 653 999 q 579 1136 625 1058 l 711 1175 q 810 999 779 1076 z "},"亦":{"ha":1389,"x_min":72,"x_max":1314,"o":"m 1301 810 l 950 810 l 950 50 q 935 -37 950 -7 q 885 -83 921 -68 q 640 -107 828 -107 q 597 24 631 -43 q 786 22 733 19 q 811 28 804 22 q 818 51 818 35 l 818 810 l 618 810 l 618 660 q 613 507 618 576 q 586 347 607 438 q 529 182 565 257 q 426 26 493 107 q 269 -118 360 -54 q 171 -21 232 -64 q 341 138 274 50 q 438 321 408 225 q 478 492 468 417 q 488 661 488 568 l 488 810 l 88 810 l 88 936 l 675 936 q 575 1135 636 1036 l 697 1176 q 810 976 775 1056 l 697 936 l 1301 936 l 1301 810 m 250 676 l 381 650 q 183 210 313 375 q 72 283 139 251 q 250 676 194 424 m 994 631 l 1107 679 q 1233 447 1175 571 q 1314 236 1292 322 l 1192 181 q 1115 394 1171 268 q 994 631 1060 521 z "},"产":{"ha":1389,"x_min":50,"x_max":1289,"o":"m 1254 1010 l 1254 886 l 154 886 l 154 1010 l 653 1010 q 579 1135 615 1089 l 710 1169 q 808 1010 774 1090 l 1254 1010 m 1289 647 l 1289 521 l 306 521 l 306 456 q 157 -124 306 74 q 107 -74 142 -104 q 50 -32 72 -44 q 171 458 171 131 l 171 647 l 469 647 q 360 838 435 733 l 472 883 q 592 692 558 774 l 493 647 l 838 647 q 944 875 906 764 l 1088 829 q 969 647 978 660 l 1289 647 z "},"亩":{"ha":1389,"x_min":89,"x_max":1301,"o":"m 628 611 l 313 611 l 313 414 l 628 414 l 628 611 m 1071 414 l 1071 611 l 756 611 l 756 414 l 1071 414 m 756 88 l 1071 88 l 1071 296 l 756 296 l 756 88 m 313 296 l 313 88 l 628 88 l 628 296 l 313 296 m 186 -110 l 186 735 l 1203 735 l 1203 -106 l 1071 -106 l 1071 -35 l 313 -35 l 313 -110 l 186 -110 m 801 983 l 1301 983 l 1301 857 l 89 857 l 89 983 l 651 983 q 574 1131 619 1049 l 696 1171 q 801 983 772 1054 z "},"享":{"ha":1389,"x_min":79,"x_max":1313,"o":"m 1293 1053 l 1293 943 l 93 943 l 93 1053 l 628 1053 q 588 1151 615 1090 l 721 1175 q 774 1053 749 1125 l 1293 1053 m 390 772 l 390 668 l 1000 668 l 1000 772 l 390 772 m 1136 576 l 263 576 l 263 865 l 1136 865 l 1136 576 m 1313 260 l 1313 150 l 760 150 l 760 15 q 743 -60 760 -35 q 685 -96 726 -85 q 424 -111 629 -111 q 378 -4 411 -60 q 589 -7 436 -7 q 616 0 608 -6 q 624 21 624 6 l 624 150 l 79 150 l 79 260 l 624 260 l 624 332 l 625 332 l 624 333 q 860 403 758 365 l 210 403 l 210 504 l 1031 504 l 1031 506 l 1065 506 l 1096 511 l 1178 438 q 760 278 1003 342 l 760 260 l 1313 260 z "},"京":{"ha":1389,"x_min":74,"x_max":1297,"o":"m 315 286 l 442 242 q 313 74 388 160 q 167 -72 239 -11 q 74 10 138 -37 q 211 144 143 68 q 315 286 279 221 m 385 668 l 385 478 l 1008 478 l 1008 668 l 385 668 m 1144 367 l 768 367 l 768 32 q 753 -51 768 -22 q 700 -93 739 -79 q 450 -112 647 -112 q 408 13 440 -60 q 601 11 544 8 q 626 16 619 11 q 632 35 632 21 l 632 367 l 257 367 l 257 781 l 1144 781 l 1144 367 m 936 224 l 1043 289 q 1294 0 1225 104 l 1181 -75 q 936 224 1099 56 m 797 1000 l 1297 1000 l 1297 874 l 92 874 l 92 1000 l 644 1000 q 571 1136 600 1090 l 696 1176 q 797 1000 764 1076 z "},"亭":{"ha":1389,"x_min":88,"x_max":1304,"o":"m 282 235 l 282 340 l 1111 340 l 1111 235 l 786 235 l 786 29 q 769 -51 786 -24 q 711 -89 753 -78 q 447 -107 656 -107 q 403 10 439 -51 q 613 7 463 7 q 640 15 633 10 q 646 33 646 19 l 646 235 l 282 235 m 97 263 l 97 525 l 1292 525 l 1292 263 l 1172 263 l 1172 424 l 213 424 l 213 263 l 97 263 m 985 690 l 985 789 l 401 789 l 401 690 l 985 690 m 274 878 l 1121 878 l 1121 601 l 274 601 l 274 878 m 786 1054 l 1304 1054 l 1304 947 l 88 947 l 88 1054 l 638 1054 q 583 1144 614 1097 l 708 1176 q 786 1054 750 1119 z "},"亮":{"ha":1389,"x_min":81,"x_max":1306,"o":"m 1304 1044 l 1304 938 l 83 938 l 83 1044 l 643 1044 q 592 1147 624 1093 l 722 1175 q 790 1044 763 1113 l 1304 1044 m 1283 274 l 1156 274 l 1156 415 l 226 415 l 226 272 l 104 272 l 104 517 l 1283 517 l 1283 274 m 983 679 l 983 781 l 406 781 l 406 679 l 983 679 m 278 868 l 1119 868 l 1119 590 l 278 590 l 278 868 m 1022 25 l 1142 25 q 1178 51 1169 25 q 1189 171 1186 78 q 1306 122 1238 135 q 1265 -44 1296 -1 q 1157 -86 1235 -86 l 1001 -86 q 872 -54 904 -86 q 839 67 839 -22 l 839 229 l 535 229 q 431 6 514 83 q 150 -110 349 -71 q 81 -1 129 -47 q 249 42 186 17 q 347 110 313 67 q 394 202 382 153 q 411 336 407 251 l 976 336 l 976 68 q 985 32 976 39 q 1022 25 993 25 z "},"亲":{"ha":1389,"x_min":101,"x_max":1288,"o":"m 1226 1001 l 1226 892 l 181 892 l 181 1001 l 636 1001 q 578 1136 611 1071 l 706 1168 q 782 1001 756 1079 l 1226 1001 m 358 281 l 485 243 q 231 -60 388 69 q 122 19 190 -24 q 256 137 193 67 q 358 281 319 207 m 883 225 l 992 288 q 1244 14 1171 122 l 1129 -58 q 883 225 1054 63 m 1288 565 l 767 565 l 767 436 l 1268 436 l 1268 324 l 767 324 l 767 29 q 753 -49 767 -22 q 706 -89 739 -75 q 489 -108 654 -111 q 449 8 478 -53 q 607 7 482 7 q 628 13 622 8 q 633 32 633 18 l 633 324 l 133 324 l 133 436 l 633 436 l 633 565 l 101 565 l 101 678 l 424 678 q 344 856 399 760 l 461 885 q 558 679 529 779 l 553 678 l 828 678 q 917 879 878 768 l 1049 854 q 960 678 990 732 l 1288 678 l 1288 565 z "},"人":{"ha":1389,"x_min":57,"x_max":1340,"o":"m 614 1161 l 761 1161 q 751 954 757 1028 q 765 858 757 906 q 792 730 772 811 q 839 577 813 649 q 911 419 865 506 q 1015 261 957 332 q 1156 123 1072 190 q 1340 11 1240 56 q 1246 -99 1278 -37 q 694 610 849 89 q 164 -106 563 115 q 57 -3 125 -46 q 259 137 169 56 q 406 302 349 218 q 503 485 463 386 q 565 670 544 585 q 597 849 585 756 q 610 1006 608 943 q 614 1132 613 1068 q 614 1142 614 1139 q 614 1151 614 1146 q 614 1161 614 1157 z "},"亿":{"ha":1389,"x_min":44,"x_max":1307,"o":"m 374 1160 l 494 1124 q 367 849 446 993 l 367 -107 l 242 -107 l 242 650 q 115 494 182 565 q 44 625 85 572 q 229 865 142 722 q 374 1160 317 1007 m 765 68 l 1094 68 q 1168 118 1150 68 q 1192 336 1186 168 q 1307 293 1250 303 q 1275 71 1299 146 q 1210 -30 1251 -4 q 1088 -56 1168 -56 l 771 -56 q 574 -8 639 -56 q 508 126 508 40 q 533 240 508 182 q 678 463 557 297 q 1039 910 800 629 l 542 910 l 542 1032 l 1167 1032 l 1197 1038 l 1278 994 q 1261 972 1274 985 q 917 572 1050 732 q 726 328 783 413 q 653 208 669 244 q 638 142 638 171 q 765 68 638 68 z "},"什":{"ha":1389,"x_min":51,"x_max":1324,"o":"m 388 1158 l 508 1122 q 379 844 464 1003 l 379 -108 l 254 -108 l 254 644 q 124 485 192 557 q 51 617 93 563 q 241 858 151 714 q 388 1158 331 1003 m 1324 697 l 1324 571 l 965 571 l 965 -110 l 832 -110 l 832 571 l 460 571 l 460 697 l 832 697 l 832 1147 l 965 1147 l 965 697 l 1324 697 z "},"仁":{"ha":1389,"x_min":46,"x_max":1326,"o":"m 1268 938 l 1268 801 l 550 801 l 550 938 l 1268 938 m 396 1161 l 524 1119 q 382 828 457 957 l 382 -107 l 253 -107 l 253 631 q 124 479 199 557 q 46 613 90 553 q 243 858 150 713 q 396 1161 336 1003 m 472 119 l 1326 119 l 1326 -17 l 472 -17 l 472 119 z "},"仅":{"ha":1389,"x_min":36,"x_max":1350,"o":"m 396 1157 l 524 1117 q 381 826 465 975 l 381 -106 l 253 -106 l 253 635 q 113 475 190 553 q 36 608 78 554 q 240 853 143 707 q 396 1157 336 999 m 1128 897 l 674 897 q 896 358 749 569 q 1128 897 1061 582 m 1189 1024 l 1274 994 q 978 254 1201 542 q 1350 6 1136 81 q 1265 -100 1307 -31 q 893 157 1049 -14 q 499 -107 725 -12 q 421 -1 461 -36 q 813 257 642 78 q 551 886 647 490 l 603 897 l 514 897 l 514 1017 l 1167 1017 l 1189 1024 z "},"仆":{"ha":1389,"x_min":44,"x_max":1328,"o":"m 392 1160 l 518 1119 q 383 833 461 972 l 383 -108 l 251 -108 l 251 625 q 118 465 182 532 q 44 604 90 539 q 240 852 147 704 q 392 1160 332 1000 m 872 713 l 953 794 q 1026 729 968 781 q 1115 651 1085 678 q 1192 583 1144 625 q 1272 508 1239 540 q 1328 450 1304 476 l 1232 342 q 872 693 1157 431 l 872 -106 l 733 -106 l 733 1149 l 872 1149 l 872 713 z "},"仇":{"ha":1389,"x_min":46,"x_max":1339,"o":"m 360 1160 l 482 1124 q 349 829 432 983 l 349 -110 l 221 -110 l 221 624 q 118 494 163 544 q 46 625 89 568 q 224 866 140 724 q 360 1160 307 1008 m 1147 28 l 1188 28 q 1215 35 1206 28 q 1231 78 1226 44 q 1236 244 1236 133 q 1339 189 1279 206 q 1322 -1 1336 54 q 1276 -71 1310 -51 q 1194 -90 1247 -90 l 1113 -90 q 1019 -61 1056 -90 q 992 -11 1000 -43 q 985 97 985 21 l 985 725 l 785 725 q 698 220 768 426 q 465 -115 628 14 q 369 -18 431 -60 q 581 278 518 96 q 657 725 643 460 l 438 725 l 438 850 l 661 850 q 664 1161 664 950 l 793 1161 q 790 850 793 951 l 1115 850 l 1115 96 q 1124 35 1115 43 q 1147 28 1133 28 z "},"今":{"ha":1389,"x_min":50,"x_max":1340,"o":"m 1079 493 l 1103 500 l 1204 451 q 764 -117 1060 251 l 629 -54 q 967 361 806 149 l 225 361 l 225 493 l 1079 493 m 893 586 l 801 494 q 539 722 728 578 l 625 801 q 893 586 817 665 m 679 1176 l 806 1117 q 778 1076 803 1113 q 1037 856 879 965 q 1340 683 1194 747 q 1239 567 1286 640 q 958 749 1104 638 q 701 982 813 860 q 150 554 483 722 q 50 671 114 618 q 411 890 242 757 q 679 1176 581 1024 z "},"介":{"ha":1389,"x_min":40,"x_max":1357,"o":"m 376 446 l 376 611 l 511 611 l 511 443 q 501 298 511 363 q 463 156 492 233 q 369 10 433 79 q 206 -112 304 -58 q 99 -15 167 -58 q 247 89 188 32 q 332 210 306 146 q 367 326 358 274 q 376 446 376 379 m 892 -112 l 892 613 l 1028 613 l 1028 -112 l 892 -112 m 690 1178 l 794 1104 q 771 1069 788 1092 q 1024 849 864 949 q 1357 701 1183 749 q 1265 581 1303 649 q 952 737 1101 633 q 694 971 803 840 q 431 733 583 842 q 119 561 279 625 q 40 685 86 638 q 416 884 236 747 q 690 1178 596 1021 z "},"仍":{"ha":1389,"x_min":35,"x_max":1283,"o":"m 310 1160 l 429 1125 q 322 851 388 994 l 322 -110 l 200 -110 l 200 625 q 100 488 147 542 q 35 625 81 551 q 191 864 118 722 q 310 1160 264 1006 m 1039 681 l 1283 681 q 1281 622 1282 640 q 1245 140 1264 283 q 1190 -43 1226 -3 q 1081 -99 1156 -87 q 881 -99 1011 -106 q 839 26 875 -28 q 1025 19 919 19 q 1081 38 1063 19 q 1123 181 1107 64 q 1153 563 1139 299 l 889 563 q 975 951 935 729 l 735 951 q 720 653 731 781 q 683 374 710 526 q 597 99 656 222 q 453 -115 539 -25 q 353 -25 413 -61 q 485 168 433 56 q 561 423 538 281 q 592 677 585 565 q 601 951 600 789 l 454 951 l 454 1068 l 1118 1068 q 1039 681 1096 940 z "},"从":{"ha":1389,"x_min":53,"x_max":1333,"o":"m 718 324 l 621 229 q 433 526 565 350 q 179 -106 360 111 q 122 -60 164 -89 q 53 -15 81 -31 q 272 429 208 149 q 350 1139 335 710 l 492 1133 q 457 693 481 888 q 718 324 636 489 m 881 1140 l 1022 1133 q 979 688 1007 883 q 1333 29 1082 201 q 1238 -89 1278 -24 q 926 424 1040 69 q 644 -103 838 85 q 518 -11 599 -60 q 781 423 703 144 q 881 1140 858 701 z "},"仑":{"ha":1389,"x_min":56,"x_max":1347,"o":"m 588 56 l 944 56 q 1037 93 1015 56 q 1067 263 1058 131 q 1190 213 1114 231 q 1128 -10 1175 46 q 950 -65 1082 -65 l 583 -65 q 384 -26 436 -65 q 332 129 332 14 l 332 669 l 460 669 l 460 404 q 965 635 803 517 l 1085 539 q 460 283 872 404 l 460 131 q 483 69 460 83 q 588 56 507 56 m 692 1172 l 807 1118 q 776 1074 799 1104 q 1034 856 876 961 q 1347 694 1192 751 q 1251 578 1293 644 q 960 751 1108 642 q 704 983 813 860 q 146 574 481 725 q 56 685 103 644 q 422 890 250 761 q 692 1172 593 1018 z "},"仓":{"ha":1389,"x_min":46,"x_max":1347,"o":"m 382 678 l 1043 678 q 699 972 847 804 q 382 678 569 808 m 678 1169 l 800 1117 q 769 1068 781 1083 q 1347 667 978 829 q 1260 556 1292 624 q 1064 665 1168 600 q 1063 624 1063 653 q 1008 250 1050 300 q 901 206 974 213 q 710 208 824 200 q 679 322 707 261 q 846 314 751 314 q 894 328 883 314 q 928 556 918 356 l 447 556 l 447 129 q 472 65 447 79 q 582 51 496 51 l 951 51 q 1049 87 1026 51 q 1082 250 1072 122 q 1213 199 1138 211 q 1144 -22 1194 33 q 958 -78 1094 -78 l 576 -78 q 366 -36 421 -78 q 311 128 311 6 l 311 632 q 138 536 229 579 q 46 650 106 594 q 412 868 243 732 q 678 1169 581 1004 z "},"仔":{"ha":1389,"x_min":46,"x_max":1332,"o":"m 360 1164 l 481 1125 q 339 815 426 975 l 339 -110 l 217 -110 l 217 619 q 117 496 156 538 q 46 628 93 563 q 224 869 140 728 q 360 1164 307 1011 m 1332 571 l 1332 447 l 957 447 l 957 51 q 942 -37 957 -7 q 888 -82 926 -68 q 625 -106 828 -106 q 581 25 615 -43 q 793 24 732 21 q 820 30 813 24 q 828 54 828 36 l 828 447 l 442 447 l 442 571 l 828 571 l 828 765 q 1074 949 950 835 l 526 949 l 526 1068 l 1190 1068 l 1215 1076 l 1304 1013 q 957 713 1161 846 l 957 571 l 1332 571 z "},"他":{"ha":1389,"x_min":31,"x_max":1338,"o":"m 360 1160 l 478 1122 q 343 835 426 985 l 343 -108 l 217 -108 l 217 636 q 101 496 161 560 q 31 625 75 560 q 215 864 128 721 q 360 1160 303 1007 m 789 25 l 1110 25 q 1190 63 1169 25 q 1218 222 1210 100 q 1338 171 1279 182 q 1278 -36 1321 18 q 1118 -90 1236 -90 l 781 -90 q 598 -47 646 -90 q 550 124 550 -3 l 550 540 l 429 492 l 378 607 l 550 674 l 550 1021 l 678 1021 l 678 724 l 851 790 l 851 1161 l 974 1161 l 974 838 l 1151 907 l 1171 922 l 1194 940 l 1283 904 l 1278 885 q 1263 394 1275 463 q 1185 285 1251 306 q 1038 271 1133 268 q 1007 389 1032 342 q 1104 388 1042 388 q 1144 424 1136 388 q 1157 776 1154 465 l 974 706 l 974 206 l 851 206 l 851 657 l 678 590 l 678 122 q 698 43 678 61 q 789 25 718 25 z "},"仗":{"ha":1389,"x_min":31,"x_max":1346,"o":"m 396 1157 l 521 1118 q 381 836 456 961 l 381 -106 l 253 -106 l 253 644 q 107 478 178 546 q 31 608 69 561 q 237 853 139 707 q 396 1157 335 1000 m 1329 756 l 1043 756 q 911 213 1040 415 q 1346 4 1072 60 q 1264 -111 1294 -47 q 831 108 999 -49 q 515 -112 708 -22 q 473 -56 501 -89 q 425 -7 444 -22 q 739 210 621 81 q 540 653 610 376 l 658 678 q 815 318 708 465 q 914 756 911 483 l 464 756 l 464 879 l 914 879 l 914 1156 l 1043 1156 l 1043 879 l 1329 879 l 1329 756 z "},"付":{"ha":1389,"x_min":53,"x_max":1326,"o":"m 396 1157 l 524 1117 q 383 824 460 956 l 383 -107 l 253 -107 l 253 622 q 131 479 194 543 q 53 611 96 557 q 248 856 157 711 q 396 1157 339 1000 m 1326 863 l 1326 733 l 1161 733 l 1161 56 q 1142 -43 1161 -11 q 1079 -90 1124 -75 q 772 -112 1011 -115 q 722 17 761 -51 q 983 14 872 10 q 1018 24 1008 15 q 1028 56 1028 33 l 1028 733 l 485 733 l 485 863 l 1028 863 l 1028 1150 l 1161 1150 l 1161 863 l 1326 863 m 872 279 l 751 214 q 561 554 706 321 l 674 607 q 872 279 832 358 z "},"仙":{"ha":1389,"x_min":44,"x_max":1272,"o":"m 358 1161 l 481 1124 q 344 824 429 981 l 344 -110 l 221 -110 l 221 625 q 117 496 169 554 q 44 626 88 567 q 222 865 139 724 q 358 1161 306 1007 m 1143 850 l 1272 850 l 1272 -108 l 1143 -108 l 1143 -28 l 497 -28 l 497 843 l 624 843 l 624 93 l 815 93 l 815 1142 l 944 1142 l 944 93 l 1143 93 l 1143 850 z "},"代":{"ha":1389,"x_min":29,"x_max":1347,"o":"m 1300 922 l 1197 854 q 989 1083 1135 953 l 1085 1144 q 1300 922 1226 1028 m 421 1153 l 543 1113 q 403 843 488 981 l 403 -107 l 269 -107 l 269 653 q 103 471 189 549 q 29 600 76 538 q 250 846 146 699 q 421 1153 354 993 m 1324 685 l 913 632 q 1172 47 986 69 q 1215 103 1199 46 q 1240 279 1231 160 q 1347 208 1285 233 q 1282 -39 1325 32 q 1178 -107 1239 -110 q 1026 -47 1093 -100 q 913 102 960 6 q 836 324 867 199 q 785 614 806 449 l 481 575 l 461 697 l 772 736 q 747 1144 756 925 l 878 1144 q 900 754 885 921 l 1307 806 l 1324 685 z "},"令":{"ha":1389,"x_min":49,"x_max":1351,"o":"m 1103 542 l 1200 483 q 824 101 1078 353 q 972 -7 913 42 l 874 -117 q 673 35 804 -56 q 415 200 542 125 l 506 294 q 713 172 660 206 q 953 410 849 301 l 232 410 l 232 533 l 1081 533 l 1103 542 m 850 633 l 753 549 q 551 758 692 636 l 643 832 q 850 633 793 710 m 704 1174 l 824 1111 q 783 1063 806 1086 q 1046 865 888 961 q 1351 711 1204 768 q 1254 596 1301 669 q 967 761 1117 658 q 703 975 817 864 q 143 590 468 743 q 49 703 108 647 q 422 908 243 782 q 704 1174 600 1033 z "},"以":{"ha":1389,"x_min":126,"x_max":1344,"o":"m 832 713 l 715 643 q 513 971 653 792 l 622 1031 q 832 713 767 857 m 358 264 l 653 406 q 686 285 665 339 q 314 94 401 142 q 197 17 226 46 q 126 121 174 74 q 218 260 218 182 l 218 1064 l 358 1064 l 358 264 m 1344 -19 l 1229 -106 q 971 207 1153 19 q 586 -118 840 1 q 542 -60 574 -97 q 488 -6 510 -24 q 676 94 594 38 q 817 228 758 151 q 917 391 876 304 q 983 593 957 478 q 1022 829 1008 708 q 1042 1108 1035 950 l 1179 1103 q 1033 325 1150 582 q 1344 -19 1263 101 z "},"仪":{"ha":1389,"x_min":31,"x_max":1342,"o":"m 1000 867 l 892 807 q 746 1085 849 929 l 849 1136 q 1000 867 960 985 m 360 1160 l 481 1124 q 343 829 428 983 l 343 -107 l 221 -107 l 221 639 q 101 494 165 560 q 31 625 74 561 q 215 864 128 721 q 360 1160 303 1007 m 1144 1083 l 1274 1063 q 1153 606 1226 806 q 960 254 1081 407 q 1342 0 1113 82 q 1250 -111 1290 -42 q 868 150 1028 -22 q 461 -111 703 -14 q 382 -11 433 -62 q 789 249 629 83 q 503 1046 592 529 l 625 1064 q 881 354 699 613 q 1144 1083 1069 611 z "},"们":{"ha":1389,"x_min":49,"x_max":1281,"o":"m 303 1157 l 424 1124 q 315 826 369 949 l 315 -110 l 193 -110 l 193 588 q 115 472 154 522 q 49 610 88 550 q 303 1157 210 815 m 460 -110 l 460 876 l 586 876 l 586 -110 l 460 -110 m 518 1108 l 618 1164 q 785 903 732 1014 l 679 839 q 518 1108 631 951 m 1281 1117 l 1281 42 q 1267 -40 1281 -11 q 1219 -83 1253 -69 q 994 -107 1169 -107 q 954 14 988 -50 q 1122 13 1056 8 q 1147 19 1140 13 q 1153 43 1153 26 l 1153 1000 l 797 1000 l 797 1117 l 1281 1117 z "},"仰":{"ha":1389,"x_min":39,"x_max":1282,"o":"m 319 1165 l 439 1131 q 332 856 400 1007 l 332 -110 l 210 -110 l 210 628 q 106 481 160 547 q 39 617 71 565 q 198 862 124 717 q 319 1165 272 1007 m 586 272 l 792 344 q 804 235 792 294 q 474 92 510 124 q 413 181 453 140 q 469 306 469 228 l 469 1018 q 774 1139 644 1068 l 860 1043 q 586 949 758 999 l 586 272 m 1282 1004 l 1282 256 q 1232 138 1282 164 q 1050 113 1186 113 q 1007 236 1043 172 q 1136 235 1038 235 q 1155 240 1150 235 q 1160 258 1160 244 l 1160 890 l 971 890 l 971 -111 l 847 -111 l 847 1004 l 1282 1004 z "},"仲":{"ha":1389,"x_min":44,"x_max":1296,"o":"m 356 1163 l 479 1125 q 343 828 421 968 l 343 -108 l 221 -108 l 221 629 q 117 496 169 556 q 44 628 85 571 q 220 867 138 725 q 356 1163 303 1010 m 936 454 l 1169 454 l 1169 765 l 936 765 l 936 454 m 583 454 l 808 454 l 808 765 l 583 765 l 583 454 m 936 885 l 1296 885 l 1296 258 l 1169 258 l 1169 335 l 936 335 l 936 -107 l 808 -107 l 808 335 l 583 335 l 583 249 l 461 249 l 461 885 l 808 885 l 808 1150 l 936 1150 l 936 885 z "},"件":{"ha":1389,"x_min":44,"x_max":1325,"o":"m 361 1160 l 482 1124 q 346 824 431 981 l 346 -107 l 224 -107 l 224 629 q 115 494 168 551 q 44 625 85 571 q 223 865 139 722 q 361 1160 307 1007 m 1325 489 l 1325 363 l 957 363 l 957 -108 l 828 -108 l 828 363 l 443 363 l 443 489 l 828 489 l 828 764 l 631 764 q 538 568 585 639 q 426 631 493 600 q 592 1093 539 790 l 717 1068 q 672 890 699 985 l 828 890 l 828 1149 l 957 1149 l 957 890 l 1263 890 l 1263 764 l 957 764 l 957 489 l 1325 489 z "},"价":{"ha":1389,"x_min":51,"x_max":1347,"o":"m 364 1164 l 485 1128 q 351 831 426 971 l 351 -108 l 222 -108 l 222 622 q 122 499 156 533 q 91 565 114 522 q 51 629 68 607 q 228 869 144 726 q 364 1164 311 1011 m 604 433 l 604 619 l 735 619 l 735 432 q 496 -121 735 65 q 399 -29 454 -67 q 604 433 604 115 m 988 -107 l 988 622 l 1121 622 l 1121 -107 l 988 -107 m 817 1169 l 953 1146 q 926 1082 947 1131 q 1113 849 997 960 q 1347 676 1228 739 q 1257 574 1299 636 q 1045 741 1150 638 q 861 965 940 844 q 438 554 703 707 q 358 660 411 613 q 647 889 532 754 q 817 1169 763 1024 z "},"任":{"ha":1389,"x_min":33,"x_max":1329,"o":"m 396 1161 l 522 1122 q 381 833 464 976 l 381 -108 l 253 -108 l 253 643 q 111 482 182 550 q 33 614 83 550 q 238 858 142 713 q 396 1161 335 1004 m 1329 458 l 958 458 l 958 65 l 1310 65 l 1310 -58 l 488 -58 l 488 65 l 828 65 l 828 458 l 435 458 l 435 583 l 828 583 l 828 922 q 515 879 689 899 q 476 989 506 929 q 1188 1138 942 1047 l 1282 1028 q 958 946 1153 985 l 958 583 l 1329 583 l 1329 458 z "},"份":{"ha":1389,"x_min":44,"x_max":1353,"o":"m 351 1158 l 472 1122 q 344 832 425 989 l 344 -110 l 217 -110 l 217 621 q 115 493 161 544 q 84 559 107 517 q 44 624 61 601 q 217 863 136 721 q 351 1158 299 1006 m 942 1115 l 1058 1138 q 1168 840 1100 956 q 1353 636 1236 725 q 1264 528 1292 585 q 1188 599 1225 558 q 1187 588 1188 594 q 1186 578 1186 581 q 1155 124 1171 256 q 1107 -46 1139 -8 q 1010 -97 1075 -89 q 846 -99 965 -104 q 811 19 843 -36 q 950 14 871 14 q 997 32 981 14 q 1057 513 1036 79 l 838 513 q 733 127 813 278 q 501 -114 654 -24 q 463 -64 490 -94 q 414 -17 435 -33 q 622 185 553 56 q 710 513 690 314 l 556 513 l 556 599 q 469 514 511 550 q 390 629 432 585 q 686 1128 600 792 l 813 1100 q 586 633 732 815 l 1156 633 q 942 1115 1010 803 z "},"仿":{"ha":1389,"x_min":44,"x_max":1332,"o":"m 360 1165 l 483 1126 q 346 826 424 968 l 346 -108 l 219 -108 l 219 625 q 117 499 167 553 q 44 632 90 567 q 223 871 139 729 q 360 1165 307 1013 m 800 1138 l 928 1167 q 997 961 979 1040 l 863 925 q 800 1138 846 1004 m 1332 800 l 813 800 q 803 622 810 700 l 1243 622 q 1240 568 1242 585 q 1209 125 1226 256 q 1158 -43 1192 -6 q 1050 -94 1121 -89 q 860 -96 999 -101 q 819 24 854 -29 q 992 17 911 17 q 1043 36 1026 17 q 1106 501 1086 78 l 790 501 q 694 142 765 296 q 481 -112 622 -11 q 385 -21 442 -54 q 494 76 447 22 q 572 198 542 131 q 622 330 603 265 q 653 481 642 394 q 668 635 664 568 q 675 800 672 703 l 450 800 l 450 925 l 1332 925 l 1332 800 z "},"企":{"ha":1389,"x_min":44,"x_max":1351,"o":"m 774 363 l 774 47 l 1286 47 l 1286 -71 l 113 -71 l 113 47 l 278 47 l 278 544 l 404 544 l 404 47 l 638 47 l 638 782 l 774 782 l 774 478 l 1160 478 l 1160 363 l 774 363 m 683 1178 l 800 1122 q 768 1078 797 1118 q 1031 854 889 943 q 1351 693 1174 765 q 1268 581 1290 640 q 960 755 1097 661 q 696 989 824 849 q 133 582 471 735 q 44 692 99 643 q 411 897 239 768 q 683 1178 583 1025 z "},"伊":{"ha":1389,"x_min":31,"x_max":1331,"o":"m 375 1163 l 496 1122 q 360 847 433 972 l 360 -108 l 238 -108 l 238 661 q 101 499 181 581 q 31 631 71 572 q 225 868 133 726 q 375 1163 317 1010 m 1110 435 l 1110 636 l 869 636 l 869 576 q 863 435 869 496 l 1110 435 m 869 954 l 869 756 l 1110 756 l 1110 954 l 869 954 m 1331 756 l 1331 636 l 1236 636 l 1236 246 l 1110 246 l 1110 314 l 843 314 q 499 -115 778 26 q 411 -15 463 -58 q 713 314 649 90 l 494 314 l 494 435 l 735 435 q 742 576 742 496 l 742 636 l 419 636 l 419 756 l 742 756 l 742 954 l 510 954 l 510 1074 l 1236 1074 l 1236 756 l 1331 756 z "},"伍":{"ha":1389,"x_min":38,"x_max":1333,"o":"m 368 1161 l 488 1124 q 361 849 439 993 l 361 -108 l 236 -108 l 236 647 q 106 486 176 561 q 38 618 81 560 q 224 862 136 717 q 368 1161 313 1007 m 1075 507 l 825 507 q 750 67 794 303 l 1033 67 q 1075 507 1064 331 m 1164 67 l 1333 67 l 1333 -54 l 429 -54 l 429 67 l 618 67 q 696 507 653 229 l 499 507 l 499 628 l 715 628 q 757 938 736 778 l 488 938 l 488 1058 l 1288 1058 l 1288 938 l 889 938 q 844 628 851 676 l 1096 628 l 1118 633 l 1213 625 q 1164 67 1200 386 z "},"伏":{"ha":1389,"x_min":43,"x_max":1336,"o":"m 1268 892 l 1163 828 q 1007 1074 1111 933 l 1104 1129 q 1268 892 1213 996 m 372 1164 l 496 1126 q 363 838 442 982 l 363 -110 l 233 -110 l 233 633 q 114 489 183 564 q 43 622 88 558 q 229 865 142 721 q 372 1164 317 1010 m 1314 642 l 935 642 q 1336 4 1049 169 q 1239 -108 1282 -37 q 875 426 1001 47 q 526 -111 788 97 q 419 -25 494 -74 q 779 642 733 221 l 440 642 l 440 768 l 788 768 q 789 829 789 789 l 789 1161 l 919 1161 l 919 829 q 918 768 919 789 l 1314 768 l 1314 642 z "},"伐":{"ha":1389,"x_min":50,"x_max":1338,"o":"m 1240 961 l 1153 881 q 928 1078 1094 942 l 1013 1147 q 1240 961 1167 1032 m 396 1160 l 521 1122 q 382 835 469 989 l 382 -107 l 253 -107 l 253 638 q 125 488 189 551 q 50 617 93 567 q 245 860 153 715 q 396 1160 338 1004 m 1140 658 l 1265 613 q 983 243 1158 408 q 1163 19 1067 19 q 1203 77 1189 21 q 1225 265 1218 133 q 1338 194 1269 221 q 1281 -47 1321 17 q 1153 -111 1242 -111 q 878 151 988 -111 q 517 -62 714 25 q 429 51 479 1 q 832 278 654 136 q 753 676 778 458 l 438 646 l 426 767 l 740 799 q 722 1149 725 960 l 858 1149 q 872 810 857 988 l 1293 853 l 1303 733 l 885 690 q 943 379 907 511 q 1140 658 1068 510 z "},"休":{"ha":1389,"x_min":31,"x_max":1357,"o":"m 396 1157 l 524 1117 q 376 822 463 965 l 376 -106 l 249 -106 l 249 638 q 107 481 185 554 q 31 614 72 560 q 238 855 140 711 q 396 1157 335 999 m 1318 696 l 1003 696 q 1161 392 1067 536 q 1357 165 1256 249 q 1260 61 1296 118 q 936 568 1081 231 l 936 -110 l 808 -110 l 808 533 q 476 53 665 224 q 381 156 446 100 q 586 385 488 239 q 750 696 685 531 l 438 696 l 438 822 l 808 822 l 808 1144 l 936 1144 l 936 822 l 1318 822 l 1318 696 z "},"众":{"ha":1389,"x_min":69,"x_max":1331,"o":"m 865 661 l 996 647 q 968 467 986 564 q 1098 206 1011 329 q 1311 21 1185 83 q 1222 -93 1253 -35 q 918 275 1033 17 q 668 -110 836 32 q 557 -26 628 -69 q 769 242 697 72 q 865 661 842 413 m 675 1175 l 801 1125 q 767 1060 783 1089 q 1006 832 854 933 q 1331 683 1157 731 q 1240 569 1288 649 q 940 725 1081 622 q 700 961 799 828 q 374 668 569 785 l 501 654 q 464 442 486 542 q 707 211 624 315 l 619 117 q 432 317 549 208 q 182 -100 347 44 q 71 -19 149 -69 q 369 665 315 169 q 161 560 279 608 q 69 679 124 628 q 434 875 275 749 q 675 1175 593 1001 z "},"优":{"ha":1389,"x_min":50,"x_max":1328,"o":"m 1243 931 l 1149 857 q 967 1069 1085 954 l 1056 1132 q 1243 931 1181 1021 m 364 1160 l 486 1124 q 344 814 433 976 l 344 -108 l 221 -108 l 221 618 q 121 494 168 546 q 90 560 113 518 q 50 625 67 603 q 228 865 144 722 q 364 1160 311 1007 m 1317 721 l 826 721 q 726 228 806 433 q 469 -107 647 22 q 376 -8 439 -54 q 610 284 538 103 q 700 721 682 465 l 410 721 l 410 843 l 707 843 q 711 1147 711 993 l 839 1147 q 833 843 839 976 l 1317 843 l 1317 721 m 1046 44 l 1164 44 q 1201 81 1193 44 q 1214 257 1210 118 q 1328 204 1246 228 q 1288 -17 1318 40 q 1175 -74 1257 -74 l 1028 -74 q 906 -38 938 -74 q 875 96 875 -3 l 875 622 l 1001 622 l 1001 96 q 1010 54 1001 64 q 1046 44 1018 44 z "},"伙":{"ha":1389,"x_min":46,"x_max":1347,"o":"m 1186 913 l 1325 875 q 1174 479 1247 636 l 1057 515 q 1186 913 1138 694 m 582 458 l 457 507 q 553 908 525 643 l 675 890 q 582 458 657 622 m 372 1165 l 496 1125 q 367 850 442 985 l 367 -107 l 232 -107 l 232 639 q 117 500 174 560 q 46 635 88 568 q 230 872 143 731 q 372 1165 317 1014 m 814 1151 l 951 1151 q 938 631 951 785 q 1068 228 975 381 q 1347 14 1161 76 q 1260 -104 1293 -35 q 1025 59 1115 -47 q 883 325 935 165 q 747 70 839 176 q 499 -110 654 -36 q 408 -3 464 -46 q 528 64 475 26 q 622 140 582 101 q 693 233 663 179 q 744 335 724 288 q 778 456 764 383 q 799 585 792 528 q 809 733 806 642 q 813 893 813 825 q 814 1072 814 961 q 814 1151 814 1125 z "},"会":{"ha":1389,"x_min":58,"x_max":1338,"o":"m 131 353 l 131 479 l 1268 479 l 1268 353 l 674 353 q 421 76 558 201 l 986 115 q 843 263 917 196 l 953 319 q 1131 140 1043 240 q 1265 -37 1218 40 l 1149 -108 q 1076 1 1113 -44 q 285 -67 353 -56 q 225 -82 249 -72 q 181 50 199 11 q 286 121 219 58 q 497 353 374 196 l 131 353 m 422 744 l 988 744 q 697 972 821 850 q 422 744 585 853 m 696 1168 l 815 1114 q 772 1056 803 1094 q 1029 867 875 960 q 1338 722 1183 775 q 1247 610 1282 672 q 1022 722 1138 654 l 1022 625 l 372 625 l 372 713 q 150 594 268 650 q 58 708 114 660 q 431 912 261 790 q 696 1168 601 1033 z "},"伞":{"ha":1389,"x_min":42,"x_max":1353,"o":"m 760 815 l 760 313 l 1313 313 l 1313 189 l 760 189 l 760 -110 l 625 -110 l 625 189 l 72 189 l 72 313 l 625 313 l 625 815 l 760 815 m 265 651 l 372 699 q 522 424 483 544 l 407 368 q 265 651 379 478 m 1010 699 l 1138 651 q 958 369 1017 447 l 858 414 q 1010 699 950 547 m 706 1176 l 810 1118 q 771 1074 796 1101 q 1353 781 1001 893 q 1268 665 1293 728 q 689 993 929 793 q 128 658 456 786 q 42 774 96 719 q 418 945 238 839 q 706 1176 599 1051 z "},"伟":{"ha":1389,"x_min":54,"x_max":1317,"o":"m 367 1158 l 489 1122 q 354 826 439 982 l 354 -110 l 232 -110 l 232 628 q 125 494 176 549 q 54 625 97 561 q 230 864 147 722 q 367 1158 313 1006 m 919 476 l 1317 476 q 1314 428 1317 444 q 1288 153 1301 238 q 1249 40 1274 68 q 1172 1 1219 7 q 1053 -1 1140 -4 q 1022 111 1047 65 q 1115 107 1064 107 q 1151 121 1139 107 q 1193 356 1179 156 l 919 356 l 919 -108 l 796 -108 l 796 356 l 431 356 l 431 476 l 796 476 l 796 615 l 507 615 l 507 735 l 796 735 l 796 867 l 472 867 l 472 986 l 796 986 l 796 1164 l 919 1164 l 919 986 l 1286 986 l 1286 867 l 919 867 l 919 735 l 1240 735 l 1240 615 l 919 615 l 919 476 z "},"传":{"ha":1389,"x_min":29,"x_max":1324,"o":"m 358 1160 l 479 1122 q 340 828 425 979 l 340 -108 l 215 -108 l 215 633 q 100 493 160 557 q 29 625 74 558 q 214 864 126 721 q 358 1160 301 1007 m 1324 633 l 775 633 q 753 559 768 607 q 733 489 739 511 l 1154 489 l 1174 496 l 1263 439 q 957 103 1149 304 q 1101 -15 1042 43 l 1008 -112 q 846 29 951 -53 q 640 172 740 111 l 731 250 q 856 172 778 224 q 1039 368 988 310 l 558 368 q 643 633 594 475 l 408 633 l 408 753 l 676 753 q 714 893 694 811 l 488 893 l 488 1011 l 746 1011 l 782 1156 l 910 1138 q 876 1011 893 1069 l 1257 1011 l 1257 893 l 846 893 q 826 824 839 871 q 808 753 814 776 l 1324 753 l 1324 633 z "},"伤":{"ha":1389,"x_min":32,"x_max":1288,"o":"m 361 1161 l 483 1124 q 339 819 426 971 l 339 -108 l 217 -108 l 217 631 q 103 496 168 564 q 32 626 75 563 q 217 866 129 724 q 361 1161 304 1008 m 882 596 l 1263 596 q 1261 542 1263 558 q 1240 122 1253 243 q 1197 -35 1226 0 q 1094 -86 1163 -78 q 897 -86 1024 -93 q 858 32 892 -22 q 1036 25 954 25 q 1089 42 1074 25 q 1119 158 1108 63 q 1136 476 1129 254 l 868 476 q 753 123 838 271 q 497 -117 669 -25 q 413 -18 464 -58 q 640 181 565 57 q 740 476 715 304 l 479 476 l 479 596 l 756 596 q 765 788 760 661 l 894 788 q 882 596 890 689 m 725 965 l 1288 965 l 1288 843 l 660 843 q 517 651 592 726 q 413 731 474 692 q 663 1161 579 883 l 789 1133 q 725 965 765 1060 z "},"伦":{"ha":1389,"x_min":40,"x_max":1353,"o":"m 354 1164 l 476 1126 q 339 825 422 979 l 339 -108 l 217 -108 l 217 629 q 113 499 158 550 q 40 629 83 569 q 217 867 135 725 q 354 1164 300 1010 m 835 1172 l 974 1146 q 935 1076 949 1099 q 1126 851 1011 960 q 1353 679 1240 743 q 1261 578 1301 642 q 1055 750 1160 646 q 868 969 950 854 q 575 654 742 788 l 696 654 l 696 386 q 1088 594 922 486 l 1171 485 q 696 260 947 356 l 696 101 q 713 46 696 58 q 793 33 731 33 l 1057 33 q 1126 68 1110 33 q 1150 225 1143 103 q 1267 175 1189 193 q 1214 -31 1254 22 q 1065 -83 1174 -83 l 781 -83 q 610 -45 654 -83 q 567 101 567 -7 l 567 649 q 444 560 518 607 q 358 661 411 619 q 648 897 526 760 q 835 1172 769 1033 z "},"伪":{"ha":1389,"x_min":36,"x_max":1288,"o":"m 708 901 l 590 844 q 468 1036 557 926 l 579 1086 q 708 901 671 978 m 365 1160 l 489 1122 q 353 838 428 971 l 353 -107 l 228 -107 l 228 646 q 108 503 181 578 q 36 632 78 575 q 221 868 133 728 q 365 1160 308 1008 m 872 814 l 1288 814 q 1285 753 1286 771 q 1255 181 1272 347 q 1201 -31 1238 15 q 1090 -92 1165 -81 q 893 -92 1031 -99 q 851 33 885 -21 q 1031 26 929 26 q 1083 49 1067 26 q 1126 221 1110 78 q 1153 689 1142 364 l 860 689 q 826 493 847 586 l 925 544 q 1090 308 1044 406 l 976 244 q 825 482 935 342 q 471 -107 733 88 q 372 -15 438 -58 q 729 689 669 193 l 447 689 l 447 814 l 742 814 q 751 1149 749 904 l 883 1149 q 872 814 881 929 z "},"伯":{"ha":1389,"x_min":47,"x_max":1231,"o":"m 375 1161 l 499 1132 q 364 794 447 958 l 364 -112 l 236 -112 l 236 582 q 126 451 185 511 q 47 567 82 528 q 240 826 154 669 q 375 1161 325 982 m 642 86 l 1097 86 l 1097 381 l 642 381 l 642 86 m 1097 794 l 642 794 l 642 507 l 1097 507 l 1097 794 m 868 917 l 1231 917 l 1231 -97 l 1097 -97 l 1097 -43 l 642 -43 l 642 -107 l 513 -107 l 513 917 l 733 917 q 804 1165 785 1061 l 954 1140 q 868 917 919 1039 z "},"估":{"ha":1389,"x_min":31,"x_max":1332,"o":"m 360 1160 l 481 1122 q 339 822 428 979 l 339 -107 l 217 -107 l 217 633 q 101 494 158 554 q 31 625 74 561 q 215 864 128 721 q 360 1160 303 1007 m 1119 72 l 1119 363 l 656 363 l 656 72 l 1119 72 m 1332 747 l 951 747 l 951 485 l 1251 485 l 1251 -103 l 1119 -103 l 1119 -50 l 656 -50 l 656 -108 l 528 -108 l 528 485 l 818 485 l 818 747 l 456 747 l 456 872 l 818 872 l 818 1167 l 951 1167 l 951 872 l 1332 872 l 1332 747 z "},"伴":{"ha":1389,"x_min":43,"x_max":1314,"o":"m 1119 1088 l 1236 1054 q 1086 742 1169 886 q 976 793 1047 764 q 1119 1088 1060 926 m 743 800 l 635 740 q 456 1039 582 860 l 560 1088 q 743 800 679 926 m 314 1158 l 435 1125 q 331 851 396 1003 l 331 -108 l 207 -108 l 207 615 q 107 475 163 542 q 43 611 85 544 q 314 1158 215 818 m 1314 403 l 1314 282 l 922 282 l 922 -108 l 793 -108 l 793 282 l 408 282 l 408 403 l 793 403 l 793 589 l 465 589 l 465 710 l 793 710 l 793 1164 l 922 1164 l 922 710 l 1258 710 l 1258 589 l 922 589 l 922 403 l 1314 403 z "},"伶":{"ha":1389,"x_min":31,"x_max":1329,"o":"m 360 1160 l 481 1122 q 343 828 425 978 l 343 -108 l 215 -108 l 215 629 q 101 493 171 567 q 31 624 74 563 q 215 864 128 721 q 360 1160 303 1007 m 1147 525 l 1240 465 q 921 89 1135 289 q 1068 -24 1025 14 l 974 -111 q 586 176 831 18 l 675 254 q 817 161 717 228 q 1042 399 943 274 l 508 399 l 508 518 l 1125 518 l 1147 525 m 729 718 l 831 772 q 972 615 913 697 l 865 549 q 729 718 814 631 m 822 1167 l 944 1126 q 937 1111 942 1121 q 928 1094 932 1101 q 921 1079 924 1086 q 1105 856 992 965 q 1329 682 1218 746 q 1233 576 1269 633 q 1037 751 1138 644 q 858 975 936 858 q 453 569 694 729 q 361 668 418 622 q 632 891 510 757 q 822 1167 754 1025 z "},"伸":{"ha":1389,"x_min":53,"x_max":1274,"o":"m 382 1158 l 503 1122 q 364 828 450 983 l 364 -107 l 242 -107 l 242 636 q 124 493 192 567 q 53 624 96 563 q 238 863 150 719 q 382 1158 325 1006 m 950 393 l 1151 393 l 1151 572 l 950 572 l 950 393 m 622 393 l 818 393 l 818 572 l 622 572 l 622 393 m 818 863 l 622 863 l 622 688 l 818 688 l 818 863 m 1151 863 l 950 863 l 950 688 l 1151 688 l 1151 863 m 950 981 l 1274 981 l 1274 211 l 1151 211 l 1151 274 l 950 274 l 950 -108 l 818 -108 l 818 274 l 622 274 l 622 203 l 506 203 l 506 981 l 818 981 l 818 1164 l 950 1164 l 950 981 z "},"伺":{"ha":1389,"x_min":31,"x_max":1285,"o":"m 354 1160 l 472 1124 q 338 831 421 985 l 338 -108 l 214 -108 l 214 635 q 99 493 167 569 q 68 559 90 517 q 31 624 46 601 q 213 865 126 722 q 354 1160 300 1008 m 1065 856 l 1065 743 l 468 743 l 468 856 l 1065 856 m 874 514 l 632 514 l 632 278 l 874 278 l 874 514 m 993 168 l 632 168 l 632 72 l 513 72 l 513 624 l 993 624 l 993 168 m 1285 1093 l 1285 53 q 1217 -86 1285 -58 q 961 -110 1164 -110 q 917 22 951 -46 q 1119 18 982 18 q 1147 27 1139 19 q 1156 54 1156 35 l 1156 976 l 485 976 l 485 1093 l 1285 1093 z "},"似":{"ha":1389,"x_min":29,"x_max":1343,"o":"m 953 607 l 838 561 q 676 1000 799 747 l 783 1039 q 953 607 914 785 m 314 1160 l 435 1126 q 326 856 386 982 l 326 -108 l 204 -108 l 204 628 q 93 475 160 556 q 29 611 68 547 q 190 857 115 711 q 314 1160 265 1003 m 624 251 l 850 397 q 892 286 868 335 q 619 99 693 153 q 524 18 546 44 l 513 6 q 443 121 488 61 q 499 246 499 164 l 499 1071 l 624 1071 l 624 251 m 1343 -10 l 1225 -69 q 1093 278 1188 64 q 833 -104 1006 39 q 786 -56 821 -86 q 728 -8 751 -25 q 874 141 813 54 q 974 326 936 228 q 1035 559 1011 425 q 1069 823 1058 693 q 1083 1129 1079 953 l 1213 1128 q 1143 454 1199 701 q 1343 -10 1296 164 z "},"佃":{"ha":1389,"x_min":28,"x_max":1272,"o":"m 357 1160 l 476 1122 q 333 824 419 976 l 333 -108 l 210 -108 l 210 633 q 97 497 160 561 q 28 625 64 574 q 213 865 125 722 q 357 1160 300 1007 m 939 99 l 1144 99 l 1144 474 l 939 474 l 939 99 m 617 474 l 617 99 l 813 99 l 813 474 l 617 474 m 813 960 l 617 960 l 617 597 l 813 597 l 813 960 m 1144 597 l 1144 960 l 939 960 l 939 597 l 1144 597 m 493 1085 l 1272 1085 l 1272 -99 l 1144 -99 l 1144 -26 l 617 -26 l 617 -110 l 493 -110 l 493 1085 z "},"但":{"ha":1389,"x_min":39,"x_max":1338,"o":"m 1090 708 l 1090 951 l 678 951 l 678 708 l 1090 708 m 1090 343 l 1090 589 l 678 589 l 678 343 l 1090 343 m 1229 1071 l 1229 222 l 544 222 l 544 1071 l 1229 1071 m 375 1160 l 500 1119 q 360 829 438 963 l 360 -107 l 232 -107 l 232 632 q 111 490 181 563 q 39 625 81 567 q 227 863 138 719 q 375 1160 317 1006 m 436 63 l 1338 63 l 1338 -57 l 436 -57 l 436 63 z "},"位":{"ha":1389,"x_min":56,"x_max":1319,"o":"m 972 965 l 844 929 q 781 1149 829 1021 l 903 1179 q 972 965 951 1053 m 1268 922 l 1268 797 l 511 797 l 511 922 l 1268 922 m 814 161 l 686 124 q 599 704 667 372 l 714 731 q 814 161 790 397 m 385 1160 l 507 1122 q 372 835 457 989 l 372 -107 l 242 -107 l 242 632 q 128 494 192 560 q 56 625 99 565 q 242 864 154 721 q 385 1160 329 1007 m 1057 71 l 1319 71 l 1319 -53 l 456 -53 l 456 71 l 938 71 q 1063 739 1021 375 l 1197 717 q 1057 71 1125 313 z "},"低":{"ha":1389,"x_min":38,"x_max":1343,"o":"m 357 1158 l 479 1124 q 354 839 428 982 l 354 -108 l 231 -108 l 231 628 q 108 471 175 543 q 38 603 78 544 q 218 852 133 704 q 357 1158 303 1000 m 796 190 l 888 219 q 1011 -54 979 47 l 914 -90 q 796 190 881 18 m 642 644 l 924 644 q 904 964 910 813 q 642 919 758 936 l 642 644 m 1317 524 l 1058 524 q 1122 184 1083 311 q 1204 56 1160 57 q 1253 242 1238 56 q 1343 174 1285 201 q 1204 -99 1308 -99 q 935 524 1001 -94 l 642 524 l 642 53 l 814 94 q 817 -15 808 36 q 508 -117 549 -89 q 465 -10 499 -65 q 521 76 521 18 l 521 1017 l 522 1017 l 521 1018 q 1169 1164 942 1075 l 1275 1060 q 1026 990 1181 1026 q 1046 644 1033 778 l 1317 644 l 1317 524 z "},"住":{"ha":1389,"x_min":50,"x_max":1335,"o":"m 993 950 l 867 903 q 760 1129 840 996 l 878 1171 q 993 950 963 1039 m 381 1158 l 504 1121 q 367 829 450 978 l 367 -107 l 236 -107 l 236 626 q 122 490 185 554 q 50 624 92 569 q 236 863 149 719 q 381 1158 324 1006 m 961 60 l 1335 60 l 1335 -64 l 444 -64 l 444 60 l 831 60 l 831 376 l 525 376 l 525 499 l 831 499 l 831 776 l 478 776 l 478 900 l 1315 900 l 1315 776 l 961 776 l 961 499 l 1275 499 l 1275 376 l 961 376 l 961 60 z "},"佐":{"ha":1389,"x_min":46,"x_max":1329,"o":"m 1006 60 l 1329 60 l 1329 -62 l 508 -62 l 508 60 l 878 60 l 878 411 l 643 411 l 643 461 q 446 178 557 293 q 360 267 406 228 l 360 -107 l 236 -107 l 236 593 q 126 453 186 519 q 46 569 89 524 q 235 833 149 675 q 374 1165 321 990 l 496 1132 q 360 803 439 961 l 360 285 q 633 768 533 450 l 449 768 l 449 890 l 668 890 q 719 1153 703 1028 l 846 1135 q 796 890 825 1007 l 1313 890 l 1313 768 l 763 768 q 675 531 718 626 l 1285 531 l 1285 411 l 1006 411 l 1006 60 z "},"佑":{"ha":1389,"x_min":31,"x_max":1336,"o":"m 375 1163 l 496 1125 q 360 849 442 988 l 360 -107 l 238 -107 l 238 663 q 101 501 179 582 q 31 632 71 578 q 225 869 133 728 q 375 1163 317 1011 m 1147 401 l 764 401 l 764 99 l 1147 99 l 1147 401 m 1336 772 l 839 772 q 740 521 792 624 l 1278 521 l 1278 -92 l 1147 -92 l 1147 -22 l 764 -22 l 764 -104 l 639 -104 l 639 347 q 464 156 557 232 q 381 257 435 200 q 704 772 593 428 l 431 772 l 431 897 l 739 897 q 792 1160 771 1015 l 925 1139 q 874 897 901 1006 l 1336 897 l 1336 772 z "},"体":{"ha":1389,"x_min":40,"x_max":1354,"o":"m 335 1158 l 456 1124 q 339 843 417 1004 l 339 -107 l 215 -107 l 215 629 q 113 493 163 553 q 40 624 81 571 q 335 1158 224 825 m 1321 778 l 996 778 q 1153 453 1057 607 q 1354 210 1249 299 q 1256 107 1296 167 q 924 679 1061 300 l 924 253 l 1129 253 l 1129 136 l 924 136 l 924 -101 l 797 -101 l 797 136 l 590 136 l 590 253 l 797 253 l 797 671 q 456 103 658 297 q 364 201 425 151 q 569 446 472 290 q 729 778 665 601 l 425 778 l 425 900 l 797 900 l 797 1158 l 924 1158 l 924 900 l 1321 900 l 1321 778 z "},"何":{"ha":1389,"x_min":53,"x_max":1335,"o":"m 364 1164 l 485 1128 q 365 858 439 997 l 365 -108 l 238 -108 l 238 650 q 122 506 190 581 q 53 638 101 563 q 228 874 146 733 q 364 1164 311 1014 m 835 626 l 633 626 l 633 365 l 835 365 l 835 626 m 954 254 l 633 254 l 633 160 l 511 160 l 511 739 l 954 739 l 954 254 m 1335 1038 l 1335 914 l 1242 914 l 1242 54 q 1225 -39 1242 -7 q 1168 -86 1208 -71 q 890 -110 1101 -112 q 846 22 881 -44 q 1074 19 913 19 q 1104 28 1096 21 q 1113 56 1113 35 l 1113 914 l 481 914 l 481 1038 l 1335 1038 z "},"佘":{"ha":1389,"x_min":38,"x_max":1360,"o":"m 351 317 l 475 279 q 348 104 424 190 q 197 -40 272 18 q 93 40 156 1 q 237 167 167 92 q 351 317 307 242 m 1232 379 l 760 379 l 760 22 q 746 -51 760 -26 q 697 -90 732 -76 q 482 -110 646 -110 q 438 3 469 -53 q 601 1 508 1 q 629 25 629 3 l 629 379 l 158 379 l 158 493 l 1232 493 l 1232 379 m 392 732 l 1001 732 l 1001 618 l 392 618 l 392 732 m 894 265 l 1001 321 q 1281 21 1188 150 l 1167 -43 q 894 265 1076 93 m 694 1179 l 794 1128 q 781 1108 790 1121 q 771 1093 772 1096 q 1360 708 992 858 q 1272 596 1300 654 q 697 1003 928 757 q 124 583 467 742 q 38 694 89 646 q 412 899 235 771 q 694 1179 589 1028 z "},"余":{"ha":1389,"x_min":35,"x_max":1357,"o":"m 365 286 l 486 240 q 342 75 426 158 q 176 -64 257 -8 q 78 24 142 -24 q 236 143 158 72 q 365 286 314 214 m 886 225 l 992 290 q 1288 13 1197 124 l 1172 -61 q 886 225 1078 67 m 379 747 l 1015 747 q 693 1007 843 854 q 379 747 550 863 m 694 1179 l 794 1124 q 769 1093 778 1104 q 1357 725 994 863 q 1271 613 1297 671 q 1049 726 1154 665 l 1049 631 l 767 631 l 767 476 l 1258 476 l 1258 354 l 767 354 l 767 36 q 752 -45 767 -17 q 700 -87 738 -74 q 474 -111 642 -114 q 421 13 461 -50 q 600 11 461 11 q 631 38 631 13 l 631 354 l 144 354 l 144 476 l 631 476 l 631 631 l 335 631 l 335 718 q 124 599 240 657 q 35 708 83 663 q 405 913 225 788 q 694 1179 585 1039 z "},"佛":{"ha":1389,"x_min":26,"x_max":1313,"o":"m 356 1158 l 476 1122 q 339 831 422 979 l 339 -107 l 217 -107 l 217 639 q 97 493 161 561 q 26 624 69 563 q 211 863 124 719 q 356 1158 299 1006 m 781 422 l 914 422 l 914 581 l 782 581 l 782 508 q 781 422 782 451 m 535 422 l 667 422 q 669 508 669 451 l 669 581 l 558 581 q 547 506 556 563 q 535 422 539 450 m 782 850 l 782 690 l 914 690 l 914 850 l 782 850 m 1157 850 l 1028 850 l 1028 690 l 1157 690 l 1157 850 m 1028 422 l 1313 422 q 1311 379 1313 394 q 1299 141 1307 213 q 1274 46 1292 69 q 1203 10 1247 15 q 1081 7 1157 3 q 1051 114 1075 68 q 1142 110 1092 110 q 1175 121 1164 108 q 1197 313 1192 143 l 1028 313 l 1028 -108 l 914 -108 l 914 313 l 769 313 q 681 63 750 169 q 468 -115 611 -44 q 389 -29 436 -65 q 654 313 610 78 l 397 313 q 461 690 432 458 l 669 690 l 669 850 l 439 850 l 439 961 l 669 961 l 669 1149 l 782 1149 l 782 961 l 914 961 l 914 1147 l 1028 1147 l 1028 961 l 1271 961 l 1271 581 l 1028 581 l 1028 422 z "},"作":{"ha":1389,"x_min":50,"x_max":1335,"o":"m 381 1160 l 504 1121 q 367 831 446 971 l 367 -107 l 236 -107 l 236 626 q 122 490 185 554 q 50 624 92 569 q 236 864 149 721 q 381 1160 324 1007 m 1335 814 l 924 814 l 924 638 l 1301 638 l 1301 519 l 924 519 l 924 335 l 1321 335 l 1321 214 l 924 214 l 924 -108 l 792 -108 l 792 814 l 714 814 q 525 535 619 640 q 425 622 474 590 q 595 858 515 717 q 725 1150 675 999 l 849 1117 q 776 938 808 1007 l 1335 938 l 1335 814 z "},"你":{"ha":1389,"x_min":26,"x_max":1332,"o":"m 356 1158 l 476 1122 q 339 831 422 979 l 339 -108 l 217 -108 l 217 639 q 97 493 161 561 q 26 624 69 563 q 211 863 124 719 q 356 1158 299 1006 m 608 564 l 735 540 q 539 72 668 251 q 429 142 506 101 q 608 564 549 292 m 1189 788 l 963 788 l 963 40 q 907 -86 963 -57 q 715 -111 857 -111 q 669 18 706 -46 q 810 18 778 15 q 835 40 835 18 l 835 788 l 647 788 q 514 560 581 649 q 408 644 465 608 q 639 1158 557 819 l 767 1131 q 696 907 738 1014 l 1221 907 l 1242 911 l 1332 893 q 1271 588 1304 732 l 1161 608 q 1189 788 1175 675 m 1040 539 l 1156 576 q 1258 343 1213 469 q 1319 121 1303 217 l 1196 76 q 1138 301 1181 171 q 1040 539 1094 432 z "},"佣":{"ha":1389,"x_min":26,"x_max":1292,"o":"m 356 1160 l 476 1122 q 339 832 418 972 l 339 -108 l 217 -108 l 217 640 q 97 493 163 563 q 26 625 71 558 q 211 864 124 721 q 356 1160 299 1007 m 949 428 l 1168 428 l 1168 629 l 949 629 l 949 428 m 617 428 l 826 428 l 826 629 l 621 629 l 621 569 q 617 428 621 503 m 826 944 l 621 944 l 621 743 l 826 743 l 826 944 m 1168 743 l 1168 944 l 949 944 l 949 743 l 1168 743 m 1292 1060 l 1292 33 q 1239 -85 1292 -60 q 1047 -108 1193 -108 q 1010 11 1035 -37 q 1143 8 1068 8 q 1168 36 1168 10 l 1168 313 l 949 313 l 949 -94 l 826 -94 l 826 313 l 607 313 q 458 -115 575 38 q 412 -72 443 -97 q 360 -35 381 -47 q 472 230 444 78 q 499 569 499 382 l 499 1060 l 1292 1060 z "},"佩":{"ha":1389,"x_min":40,"x_max":1342,"o":"m 290 1158 l 407 1126 q 308 847 365 983 l 308 -108 l 196 -108 l 196 617 q 101 475 146 532 q 75 544 94 500 q 40 611 56 588 q 290 1158 200 818 m 606 769 l 606 871 l 1044 871 l 1044 769 l 885 769 l 885 633 l 1040 633 l 1040 168 q 1013 93 1040 113 q 918 75 989 75 q 890 157 911 115 l 947 157 q 958 169 958 157 l 958 558 l 871 558 l 871 -97 l 786 -97 l 786 558 l 694 558 l 694 74 l 613 74 l 613 633 l 772 633 l 772 769 l 606 769 m 449 1096 l 1214 1096 q 1209 337 1203 661 q 1251 11 1215 13 q 1274 235 1274 11 q 1342 150 1303 189 q 1314 -51 1335 4 q 1242 -107 1293 -107 q 1121 129 1150 -107 q 1103 832 1100 297 q 1103 986 1103 940 l 557 986 l 557 729 q 426 -110 557 171 q 384 -74 414 -96 q 336 -44 354 -53 q 449 729 449 204 l 449 1096 z "},"佳":{"ha":1389,"x_min":51,"x_max":1331,"o":"m 814 700 l 814 875 l 524 875 l 524 996 l 814 996 l 814 1165 l 944 1165 l 944 996 l 1243 996 l 1243 875 l 944 875 l 944 700 l 1306 700 l 1306 578 l 458 578 l 458 700 l 814 700 m 361 1160 l 482 1122 q 351 831 431 976 l 351 -108 l 224 -108 l 224 621 q 121 494 171 549 q 51 624 94 567 q 361 1160 247 829 m 944 64 l 1331 64 l 1331 -61 l 415 -61 l 415 64 l 814 64 l 814 267 l 497 267 l 497 389 l 814 389 l 814 531 l 944 531 l 944 389 l 1268 389 l 1268 267 l 944 267 l 944 64 z "},"使":{"ha":1389,"x_min":32,"x_max":1349,"o":"m 376 1169 l 497 1129 q 360 850 433 975 l 360 -115 l 238 -115 l 238 664 q 103 506 171 574 q 32 636 72 582 q 226 874 135 732 q 376 1169 318 1017 m 608 500 l 821 500 l 821 543 l 821 676 l 608 676 l 608 500 m 1168 676 l 949 676 l 949 543 l 949 500 l 1168 500 l 1168 676 m 1292 393 l 940 393 q 856 139 921 236 q 1349 6 1054 36 q 1272 -111 1303 -46 q 781 47 978 -68 q 481 -112 671 -56 q 401 -6 447 -50 q 675 119 575 36 q 489 338 561 213 l 594 371 q 750 204 651 276 q 813 393 799 283 l 490 393 l 490 783 l 821 783 l 821 903 l 456 903 l 456 1021 l 821 1021 l 821 1158 l 949 1158 l 949 1021 l 1332 1021 l 1332 903 l 949 903 l 949 783 l 1292 783 l 1292 393 z "},"侄":{"ha":1389,"x_min":44,"x_max":1329,"o":"m 1311 592 l 1194 532 q 1146 631 1178 574 q 634 594 738 603 q 499 571 531 585 q 453 696 481 640 q 546 740 517 711 q 721 972 604 799 l 483 972 l 483 1089 l 1301 1089 l 1301 972 l 872 972 q 690 718 764 814 l 1083 739 q 989 879 1032 824 l 1097 931 q 1311 592 1249 728 m 350 1163 l 471 1125 q 340 828 422 985 l 340 -107 l 213 -107 l 213 617 q 117 497 149 531 q 44 628 90 565 q 217 867 136 725 q 350 1163 299 1010 m 949 56 l 1329 56 l 1329 -61 l 428 -61 l 428 56 l 818 56 l 818 278 l 508 278 l 508 394 l 818 394 l 818 565 l 949 565 l 949 394 l 1267 394 l 1267 278 l 949 278 l 949 56 z "},"侈":{"ha":1389,"x_min":33,"x_max":1318,"o":"m 364 1158 l 488 1121 q 346 817 429 965 l 346 -107 l 221 -107 l 221 619 q 104 476 167 544 q 33 614 82 536 q 219 858 132 713 q 364 1158 307 1003 m 1232 547 l 1318 504 q 464 -115 1140 21 q 401 -10 444 -58 q 861 149 675 36 q 708 263 793 213 l 807 328 q 965 219 908 268 q 1143 432 1079 311 l 849 432 q 525 217 707 306 q 442 310 494 272 q 875 638 729 433 q 482 490 694 540 q 417 590 454 554 q 758 704 604 628 q 633 789 679 764 l 735 851 q 869 768 799 819 q 1056 931 983 840 l 749 931 q 501 761 633 831 q 415 849 460 821 q 647 995 546 911 q 807 1164 747 1079 l 938 1138 q 856 1035 908 1094 l 1133 1035 l 1156 1042 l 1240 994 q 910 657 1140 796 l 1028 635 q 954 540 993 586 l 1208 540 l 1232 547 z "},"例":{"ha":1389,"x_min":46,"x_max":1283,"o":"m 279 1164 l 396 1129 q 307 872 354 986 l 307 -108 l 186 -108 l 186 628 q 106 508 147 564 q 46 644 78 596 q 279 1164 196 839 m 415 974 l 415 1094 l 890 1094 l 890 974 l 665 974 q 624 789 646 874 l 775 789 l 796 793 l 871 774 q 479 -110 807 129 q 399 -10 447 -56 q 628 275 536 81 q 496 390 572 329 l 565 479 q 676 392 617 442 q 743 671 722 531 l 588 671 q 436 351 528 481 q 340 433 389 401 q 543 974 475 613 l 415 974 m 1056 1011 l 1056 233 l 942 233 l 942 1011 l 1056 1011 m 1164 1156 l 1283 1156 l 1283 56 q 1269 -31 1283 -1 q 1222 -75 1256 -61 q 993 -99 1167 -101 q 953 26 982 -36 q 1133 24 1032 24 q 1164 56 1164 25 l 1164 1156 z "},"侍":{"ha":1389,"x_min":32,"x_max":1333,"o":"m 361 1160 l 482 1122 q 340 824 419 963 l 340 -108 l 218 -108 l 218 633 q 103 494 160 554 q 32 625 75 561 q 217 864 129 721 q 361 1160 304 1007 m 538 275 l 647 332 q 818 94 768 197 l 700 31 q 538 275 656 136 m 1333 610 l 1140 610 l 1140 475 l 1322 475 l 1322 357 l 1140 357 l 1140 35 q 1126 -47 1140 -19 q 1076 -87 1113 -74 q 842 -108 1025 -108 q 800 14 832 -47 q 910 10 853 11 q 979 11 968 10 q 1003 18 997 13 q 1010 38 1010 24 l 1010 357 l 442 357 l 442 475 l 1010 475 l 1010 610 l 425 610 l 425 728 l 813 728 l 813 878 l 508 878 l 508 996 l 813 996 l 813 1160 l 944 1160 l 944 996 l 1261 996 l 1261 878 l 944 878 l 944 728 l 1333 728 l 1333 610 z "},"供":{"ha":1389,"x_min":33,"x_max":1332,"o":"m 363 1163 l 483 1124 q 346 835 425 972 l 346 -108 l 219 -108 l 219 636 q 104 496 164 560 q 33 628 78 561 q 218 867 131 725 q 363 1163 306 1010 m 669 253 l 792 214 q 522 -106 689 32 q 419 -24 482 -65 q 669 253 574 85 m 976 193 l 1081 250 q 1319 -40 1240 92 l 1211 -110 q 976 193 1133 33 m 764 758 l 764 446 l 1003 446 l 1003 758 l 764 758 m 1129 446 l 1332 446 l 1332 319 l 438 319 l 438 446 l 638 446 l 638 758 l 471 758 l 471 882 l 638 882 l 638 1151 l 764 1151 l 764 882 l 1003 882 l 1003 1154 l 1129 1154 l 1129 882 l 1318 882 l 1318 758 l 1129 758 l 1129 446 z "},"依":{"ha":1389,"x_min":46,"x_max":1347,"o":"m 1225 674 l 1322 582 q 1050 371 1168 450 q 1347 35 1175 142 q 1253 -71 1292 -8 q 801 674 953 136 q 692 543 768 629 l 692 74 l 926 150 q 943 39 929 86 q 651 -68 719 -40 q 558 -115 582 -96 q 492 -19 539 -67 q 565 111 565 33 l 565 421 q 419 306 508 369 q 339 407 382 361 l 339 -111 l 217 -111 l 217 621 q 117 496 160 542 q 46 626 94 560 q 224 867 140 725 q 360 1161 307 1010 l 481 1125 q 339 815 428 978 l 339 418 q 736 796 579 563 l 422 796 l 422 915 l 843 915 q 753 1125 808 1024 l 868 1163 q 965 954 938 1044 l 861 915 l 1311 915 l 1311 796 l 890 796 q 1000 467 931 622 q 1225 674 1143 581 z "},"侠":{"ha":1389,"x_min":42,"x_max":1347,"o":"m 353 1163 l 472 1126 q 343 838 421 982 l 343 -114 l 218 -114 l 218 633 q 110 496 175 571 q 42 628 88 561 q 217 867 135 724 q 353 1163 300 1010 m 1321 392 l 951 392 q 1347 -1 1067 93 q 1260 -111 1294 -49 q 878 272 1006 -7 q 472 -115 775 21 q 383 -11 433 -51 q 783 392 711 115 l 422 392 l 422 510 l 804 510 q 810 657 810 576 l 810 857 l 467 857 l 467 975 l 810 975 l 810 1150 l 942 1150 l 942 975 l 1294 975 l 1294 857 l 942 857 l 942 656 q 935 510 942 571 l 1321 510 l 1321 392 m 507 785 l 614 821 q 710 582 690 682 l 596 542 q 507 785 574 653 m 1117 539 l 1022 576 q 1125 821 1089 703 l 1250 776 q 1117 539 1144 579 z "},"侣":{"ha":1389,"x_min":42,"x_max":1247,"o":"m 1074 749 l 1074 997 l 654 997 l 654 749 l 1074 749 m 1200 1111 l 1200 633 l 532 633 l 532 1111 l 1200 1111 m 326 1158 l 447 1125 q 343 861 401 988 l 343 -110 l 217 -110 l 217 628 q 107 475 167 549 q 42 611 83 542 q 326 1158 222 822 m 599 85 l 1113 85 l 1113 365 l 599 365 l 599 85 m 471 483 l 1247 483 l 1247 -99 l 1113 -99 l 1113 -32 l 599 -32 l 599 -107 l 471 -107 l 471 483 z "},"侥":{"ha":1389,"x_min":40,"x_max":1338,"o":"m 413 969 l 672 994 q 646 1161 653 1069 l 776 1161 q 801 1007 783 1081 l 1258 1051 l 1269 939 l 838 896 q 911 758 871 814 q 1125 908 1051 825 l 1240 860 q 985 672 1151 758 q 1151 596 1069 594 q 1192 621 1181 596 q 1210 717 1204 646 q 1311 667 1258 681 q 1261 517 1297 556 q 1146 479 1225 479 q 864 618 992 479 q 488 506 703 550 q 411 613 450 574 q 793 707 619 646 q 706 883 742 785 l 424 854 l 413 969 m 333 1167 l 456 1129 q 335 844 413 1003 l 335 -108 l 211 -108 l 211 633 q 108 501 156 551 q 79 569 101 525 q 40 636 57 614 q 333 1167 226 840 m 1082 14 l 1183 14 q 1213 38 1206 14 q 1224 146 1221 61 q 1338 101 1258 121 q 1298 -53 1328 -14 q 1197 -93 1268 -93 l 1060 -93 q 941 -62 971 -93 q 911 53 911 -32 l 911 314 l 763 314 q 674 42 746 142 q 426 -112 603 -57 q 349 -10 399 -53 q 558 107 499 33 q 631 314 617 181 l 382 314 l 382 428 l 1300 428 l 1300 314 l 1044 314 l 1044 54 q 1051 21 1044 28 q 1082 14 1057 14 z "},"侦":{"ha":1389,"x_min":39,"x_max":1324,"o":"m 618 661 l 618 204 l 500 204 l 500 776 l 769 776 l 769 1163 l 894 1163 l 894 1051 l 1283 1051 l 1283 935 l 894 935 l 894 776 l 1229 776 l 1229 208 l 1107 208 l 1107 661 l 618 661 m 368 1163 l 489 1125 q 350 831 439 993 l 350 -108 l 226 -108 l 226 638 q 110 496 179 572 q 39 628 83 561 q 224 867 136 724 q 368 1163 311 1010 m 925 581 l 925 389 q 908 259 925 319 q 847 131 892 199 q 710 1 803 63 q 479 -107 617 -60 q 401 -6 449 -47 q 583 65 507 25 q 701 144 660 106 q 767 230 743 182 q 797 313 790 278 q 803 392 803 347 l 803 581 l 925 581 m 907 103 l 976 190 q 1324 -12 1197 89 l 1250 -111 q 1097 -2 1196 -64 q 907 103 997 60 z "},"侧":{"ha":1389,"x_min":40,"x_max":1281,"o":"m 501 985 l 501 207 l 400 207 l 400 1081 l 882 1081 l 882 213 l 778 213 l 778 985 l 501 985 m 261 1165 l 371 1136 q 292 879 335 997 l 292 -104 l 188 -104 l 188 632 q 104 492 147 553 q 40 615 68 576 q 261 1165 182 818 m 686 903 l 686 418 q 676 273 686 339 q 641 134 667 207 q 560 -2 615 61 q 425 -111 506 -65 q 360 -35 404 -69 q 482 60 433 7 q 553 176 531 114 q 583 293 575 239 q 590 418 590 347 l 590 903 l 686 903 m 660 133 l 736 183 q 917 -39 853 64 l 835 -99 q 660 133 783 1 m 1076 1033 l 1076 201 l 975 201 l 975 1033 l 1076 1033 m 1174 1151 l 1281 1151 l 1281 31 q 1232 -82 1281 -58 q 1049 -106 1188 -106 q 1015 6 1039 -56 q 1150 4 1076 4 q 1169 10 1164 4 q 1174 31 1174 15 l 1174 1151 z "},"侨":{"ha":1389,"x_min":31,"x_max":1346,"o":"m 353 1160 l 471 1122 q 333 826 419 982 l 333 -108 l 214 -108 l 214 636 q 99 494 160 560 q 31 625 67 571 q 212 864 126 721 q 353 1160 297 1007 m 621 392 l 621 461 l 743 461 l 743 389 q 689 115 743 250 q 506 -115 635 -19 q 407 -31 464 -65 q 621 392 621 118 m 971 -106 l 971 461 l 1099 461 l 1099 -106 l 971 -106 m 1299 685 l 1060 685 q 1190 549 1114 611 q 1346 450 1267 486 q 1263 356 1297 411 q 1077 496 1167 407 q 931 685 988 585 l 801 685 q 436 347 676 467 q 360 453 410 400 q 657 685 551 538 l 413 685 l 413 801 l 725 801 q 781 967 763 881 q 532 950 658 954 q 499 1057 525 1001 q 1154 1140 936 1081 l 1228 1032 q 914 978 1101 1000 q 857 801 892 885 l 1299 801 l 1299 685 z "},"侮":{"ha":1389,"x_min":38,"x_max":1338,"o":"m 308 1160 l 429 1125 q 326 854 382 982 l 326 -110 l 204 -110 l 204 619 q 103 475 150 532 q 38 611 79 549 q 192 856 121 710 q 308 1160 263 1001 m 1292 901 l 631 901 q 488 678 563 771 q 379 749 447 711 q 510 934 450 822 q 608 1167 571 1046 l 731 1135 q 686 1017 713 1078 l 1292 1017 l 1292 901 m 918 206 l 1090 206 q 1106 389 1100 290 l 831 389 q 975 246 928 318 l 918 206 m 797 389 l 647 389 q 619 206 622 224 l 888 206 q 742 351 835 282 l 797 389 m 826 674 l 682 674 q 663 507 669 575 l 910 507 q 778 639 860 578 l 826 674 m 1121 674 l 867 674 q 994 544 954 608 l 944 507 l 1113 507 q 1121 674 1117 571 m 1338 389 l 1225 389 q 1211 206 1222 347 l 1300 206 l 1300 94 l 1196 94 q 1151 -43 1181 -10 q 1050 -97 1117 -90 q 876 -99 1001 -104 q 842 10 871 -36 q 996 3 908 3 q 1046 25 1031 3 q 1074 94 1061 43 l 476 94 q 526 389 496 190 l 401 389 l 401 507 l 543 507 q 574 785 565 701 l 1244 785 q 1242 728 1243 744 q 1236 599 1240 679 q 1232 507 1232 518 l 1338 507 l 1338 389 z "},"侯":{"ha":1389,"x_min":54,"x_max":1342,"o":"m 415 847 l 958 847 q 981 993 972 929 l 538 993 l 538 1101 l 1007 1101 l 1026 1107 l 1119 1096 q 1083 847 1110 994 l 1314 847 l 1314 738 l 415 738 l 415 847 m 324 1157 l 444 1124 q 339 843 403 988 l 339 -108 l 214 -108 l 214 603 q 121 471 163 524 q 54 607 99 543 q 208 853 138 707 q 324 1157 279 999 m 1307 231 l 938 231 q 1342 1 1033 57 q 1272 -107 1304 -35 q 856 161 974 -43 q 463 -115 754 -11 q 379 -19 435 -64 q 753 231 678 72 l 406 231 l 406 343 l 785 343 q 786 390 786 360 l 786 506 l 607 506 q 511 382 565 440 q 407 449 456 422 q 599 735 531 563 l 714 703 q 674 615 701 674 l 1238 615 l 1238 506 l 913 506 l 913 388 q 911 343 913 358 l 1307 343 l 1307 231 z "},"侵":{"ha":1389,"x_min":33,"x_max":1319,"o":"m 1221 1117 l 1221 663 l 528 663 l 528 757 l 1100 757 l 1100 842 l 571 842 l 571 938 l 1100 938 l 1100 1022 l 528 1022 l 528 1117 l 1221 1117 m 363 1160 l 485 1124 q 346 828 431 979 l 346 -108 l 222 -108 l 222 635 q 104 493 171 564 q 33 625 75 568 q 219 865 132 722 q 363 1160 307 1008 m 1042 311 l 704 311 q 875 147 764 221 q 1042 311 982 221 m 1131 417 l 1203 386 q 983 89 1136 208 q 1310 -4 1126 21 q 1235 -110 1271 -42 q 874 18 1033 -72 q 472 -112 714 -69 q 418 -6 453 -50 q 769 89 610 19 q 585 297 658 175 l 624 311 l 563 311 l 563 413 l 1108 413 l 1131 417 m 436 588 l 1319 588 l 1319 369 l 1206 369 l 1206 493 l 544 493 l 544 368 l 436 368 l 436 588 z "},"便":{"ha":1389,"x_min":49,"x_max":1349,"o":"m 347 1160 l 469 1124 q 339 821 422 985 l 339 -108 l 217 -108 l 217 615 q 121 494 161 539 q 49 624 94 567 q 217 864 138 721 q 347 1160 296 1007 m 613 435 l 821 435 q 822 500 822 456 l 822 560 l 613 560 l 613 435 m 613 776 l 613 651 l 822 651 l 822 776 l 613 776 m 1143 776 l 950 776 l 950 651 l 1143 651 l 1143 776 m 1143 435 l 1143 560 l 950 560 l 950 499 q 949 435 950 456 l 1143 435 m 1269 338 l 936 338 q 840 114 914 208 q 1349 18 1035 38 q 1271 -101 1307 -24 q 749 24 954 -74 q 457 -114 642 -58 q 378 -8 425 -51 q 635 88 533 26 q 450 269 519 165 l 563 308 q 728 165 619 228 q 810 338 789 233 l 493 338 l 493 874 l 822 874 l 822 976 l 464 976 l 464 1089 l 1310 1089 l 1310 976 l 950 976 l 950 874 l 1269 874 l 1269 338 z "},"促":{"ha":1389,"x_min":29,"x_max":1340,"o":"m 314 1161 l 435 1126 q 331 865 390 993 l 331 -110 l 204 -110 l 204 631 q 93 476 154 550 q 29 614 69 543 q 190 858 115 713 q 314 1161 265 1004 m 653 989 l 653 736 l 1107 736 l 1107 989 l 653 989 m 949 308 l 949 50 q 1081 42 1011 42 q 1150 42 1100 42 q 1263 42 1200 42 q 1340 42 1325 42 q 1300 -79 1311 -10 l 1071 -79 q 789 -32 901 -79 q 601 142 676 15 q 454 -112 547 -12 q 353 -36 421 -78 q 549 499 514 119 l 672 486 q 644 303 663 393 q 819 89 700 149 l 819 622 l 531 622 l 531 1103 l 1236 1103 l 1236 622 l 949 622 l 949 429 l 1260 429 l 1260 308 l 949 308 z "},"俄":{"ha":1389,"x_min":29,"x_max":1343,"o":"m 1315 860 l 1214 814 q 1088 1074 1182 919 l 1183 1114 q 1315 860 1278 969 m 1179 574 l 1294 543 q 1100 200 1215 350 q 1206 11 1144 11 q 1249 226 1240 11 q 1343 158 1293 181 q 1297 -56 1329 1 q 1190 -112 1265 -112 q 1006 89 1072 -112 q 825 -65 925 4 q 742 26 797 -26 q 971 222 867 104 q 922 631 938 385 l 717 631 l 717 442 l 886 485 l 900 368 q 717 319 839 353 l 717 36 q 661 -85 717 -61 q 456 -108 614 -108 q 417 11 444 -44 q 569 10 525 7 q 596 38 596 11 l 596 286 l 399 235 l 368 360 q 596 413 486 386 l 596 631 l 374 631 l 374 743 l 596 743 l 596 935 q 411 896 528 918 q 379 979 406 926 q 326 854 361 929 l 326 -110 l 204 -110 l 204 628 q 93 475 153 546 q 29 611 68 547 q 190 857 115 711 q 314 1160 265 1003 l 435 1125 q 388 999 413 1058 q 803 1131 664 1063 l 897 1032 q 717 968 810 994 l 717 743 l 917 743 q 907 1149 907 924 l 1033 1149 q 1039 743 1029 956 l 1307 743 l 1307 631 l 1044 631 q 1072 358 1057 458 q 1179 574 1136 460 z "},"俊":{"ha":1389,"x_min":44,"x_max":1318,"o":"m 926 725 l 1015 788 q 1313 549 1213 650 l 1217 476 q 926 725 1119 585 m 1278 818 l 1176 757 q 1125 833 1135 819 q 627 789 731 800 q 492 765 524 778 q 453 879 469 840 q 535 931 486 885 q 633 1030 571 961 q 742 1171 696 1099 l 867 1129 q 665 910 775 1011 l 1044 936 q 939 1058 982 1014 l 1035 1111 q 1278 818 1206 935 m 675 769 l 786 724 q 486 460 642 569 q 397 551 431 524 q 675 769 551 640 m 365 1167 l 488 1128 q 349 832 433 983 l 349 -107 l 226 -107 l 226 636 q 115 500 172 564 q 44 632 89 569 q 226 872 140 729 q 365 1167 311 1014 m 701 361 l 694 354 q 863 183 754 263 q 1032 361 975 265 l 701 361 m 1125 469 l 1207 431 q 974 117 1132 240 q 1318 4 1117 40 q 1243 -104 1278 -32 q 867 43 1038 -61 q 444 -110 686 -61 q 381 1 422 -53 q 760 121 600 36 q 617 276 674 194 q 501 181 560 224 q 410 267 442 244 q 594 415 506 328 q 739 596 683 503 l 851 556 q 833 526 843 542 q 809 492 822 511 q 789 464 796 474 l 1100 464 l 1125 469 z "},"俏":{"ha":1389,"x_min":49,"x_max":1304,"o":"m 1181 1129 l 1304 1082 q 1157 822 1225 921 l 1044 867 q 1181 1129 1135 1006 m 356 1158 l 478 1122 q 344 822 425 976 l 344 -108 l 222 -108 l 222 624 q 119 494 169 546 q 88 560 111 518 q 49 624 65 603 q 222 864 140 721 q 356 1158 303 1007 m 736 871 l 618 814 q 565 940 603 867 q 485 1072 528 1014 l 596 1121 q 736 871 697 985 m 647 288 l 1129 288 l 1129 418 l 647 418 l 647 288 m 1129 656 l 647 656 l 647 528 l 1129 528 l 1129 656 m 1256 776 l 1256 40 q 1242 -40 1256 -11 q 1196 -82 1229 -68 q 975 -104 1149 -104 q 935 18 964 -42 q 1037 15 983 15 q 1101 15 1090 14 q 1123 22 1117 17 q 1129 42 1129 28 l 1129 178 l 647 178 l 647 -110 l 521 -110 l 521 776 l 826 776 l 826 1165 l 957 1165 l 957 776 l 1256 776 z "},"俐":{"ha":1389,"x_min":39,"x_max":1282,"o":"m 704 633 l 704 606 q 901 365 749 560 l 828 258 q 704 450 796 315 l 704 -94 l 586 -94 l 586 396 q 404 85 500 200 q 339 204 388 129 q 469 396 404 278 q 575 633 533 514 l 378 633 l 378 749 l 586 749 l 586 947 q 418 918 475 925 q 388 999 411 950 q 322 844 349 901 l 322 -108 l 204 -108 l 204 621 q 106 482 143 526 q 39 618 78 563 q 313 1165 214 826 l 433 1129 q 393 1014 421 1092 q 806 1126 656 1063 l 896 1033 q 704 975 814 1001 l 704 749 l 886 749 l 886 633 l 704 633 m 1049 1006 l 1049 206 l 940 206 l 940 1006 l 1049 1006 m 1164 1147 l 1282 1147 l 1282 39 q 1226 -83 1282 -57 q 1019 -107 1176 -107 q 982 11 1011 -43 q 1136 10 1017 10 q 1158 16 1151 10 q 1164 39 1164 22 l 1164 1147 z "},"俗":{"ha":1389,"x_min":36,"x_max":1349,"o":"m 1313 836 l 1207 757 q 919 1085 1128 871 l 1019 1151 q 1313 836 1239 935 m 686 1150 l 808 1108 q 518 736 681 888 q 411 818 476 776 q 562 969 488 879 q 686 1150 636 1058 m 353 1160 l 475 1124 q 340 831 418 971 l 340 -107 l 217 -107 l 217 632 q 107 494 163 554 q 36 625 79 561 q 215 866 131 724 q 353 1160 299 1008 m 564 414 l 1144 414 q 850 722 971 539 q 564 414 733 538 m 647 61 l 1050 61 l 1050 299 l 647 299 l 647 61 m 815 924 l 933 881 q 922 858 929 872 q 913 836 915 844 q 1349 442 1060 589 q 1267 333 1289 388 q 1217 365 1249 344 q 1178 389 1186 385 l 1178 -100 l 1050 -100 l 1050 -54 l 647 -54 l 647 -110 l 524 -110 l 524 385 q 443 335 481 356 q 357 443 417 386 q 629 641 508 515 q 815 924 750 767 z "},"俘":{"ha":1389,"x_min":46,"x_max":1308,"o":"m 1197 1165 l 1276 1060 q 497 964 997 985 q 464 1069 493 1011 q 1197 1165 967 1100 m 1107 692 l 1007 735 q 1132 994 1085 861 l 1253 946 q 1107 692 1149 753 m 942 749 l 826 708 q 757 932 806 811 l 867 967 q 942 749 913 860 m 703 740 l 592 693 q 500 904 567 779 l 604 943 q 703 740 665 844 m 339 1160 l 460 1124 q 339 838 415 990 l 339 -107 l 214 -107 l 214 622 q 117 496 158 543 q 46 625 89 571 q 212 865 135 724 q 339 1160 289 1007 m 1308 363 l 1308 244 l 947 244 l 947 18 q 936 -52 947 -28 q 894 -89 925 -76 q 710 -108 850 -108 q 668 3 699 -53 q 799 1 725 1 q 817 6 813 3 q 822 21 822 10 l 822 244 l 424 244 l 424 363 l 822 363 l 822 431 q 992 567 911 486 l 513 567 l 513 683 l 1110 683 l 1136 692 l 1221 625 q 947 389 1099 490 l 947 363 l 1308 363 z "},"保":{"ha":1389,"x_min":36,"x_max":1361,"o":"m 375 1161 l 496 1122 q 360 840 439 981 l 360 -107 l 238 -107 l 238 653 q 108 499 175 568 q 36 629 76 578 q 228 867 138 725 q 375 1161 318 1008 m 654 988 l 654 764 l 1122 764 l 1122 988 l 654 988 m 1324 381 l 1018 381 q 1174 190 1082 279 q 1361 47 1267 100 q 1271 -56 1300 -8 q 1100 93 1185 1 q 949 290 1015 185 l 949 -111 l 819 -111 l 819 283 q 481 -53 669 60 q 392 50 442 7 q 588 190 492 101 q 751 381 683 278 l 436 381 l 436 497 l 819 497 l 819 649 l 533 649 l 533 1101 l 1251 1101 l 1251 649 l 949 649 l 949 497 l 1324 497 l 1324 381 z "},"信":{"ha":1389,"x_min":47,"x_max":1317,"o":"m 347 1160 l 464 1125 q 351 863 417 994 l 351 -112 l 233 -112 l 233 657 q 117 501 186 582 q 47 625 85 572 q 216 865 136 722 q 347 1160 296 1007 m 1113 238 l 625 238 l 625 46 l 1113 46 l 1113 238 m 515 -108 l 515 342 l 1226 342 l 1226 -104 l 1113 -104 l 1113 -58 l 625 -58 l 625 -108 l 515 -108 m 535 443 l 535 546 l 1211 546 l 1211 443 l 535 443 m 1211 742 l 1211 639 l 535 639 l 535 742 l 1211 742 m 861 943 l 1317 943 l 1317 838 l 436 838 l 436 943 l 843 943 q 750 1124 811 1026 l 861 1167 q 961 986 926 1071 l 861 943 z "},"俩":{"ha":1389,"x_min":42,"x_max":1313,"o":"m 292 1160 l 406 1128 q 321 882 367 993 l 321 -110 l 203 -110 l 203 629 q 106 482 144 531 q 42 611 86 547 q 292 1160 200 818 m 926 779 l 926 956 l 793 956 l 793 779 l 926 779 m 1163 263 l 1163 665 l 1033 665 q 1025 526 1031 574 q 1163 263 1126 358 m 549 665 l 549 193 q 682 665 676 353 l 549 665 m 1313 956 l 1033 956 l 1033 779 l 1276 779 l 1276 43 q 1265 -31 1276 -4 q 1224 -69 1254 -57 q 1028 -90 1181 -90 q 993 21 1019 -29 q 1139 19 1058 19 q 1158 24 1153 19 q 1163 44 1163 29 l 1163 238 l 1090 172 q 1001 374 1063 254 q 867 83 958 194 q 789 160 838 125 q 926 665 924 314 l 793 665 q 781 511 790 589 q 876 351 851 408 l 807 276 q 754 381 793 311 q 615 99 714 217 q 549 165 592 132 l 549 -106 l 433 -106 l 433 779 l 683 779 l 683 956 l 408 956 l 408 1076 l 1313 1076 l 1313 956 z "},"俭":{"ha":1389,"x_min":38,"x_max":1344,"o":"m 324 1163 l 444 1128 q 326 838 392 975 l 326 -107 l 204 -107 l 204 617 q 101 478 151 536 q 38 614 85 542 q 324 1163 219 825 m 589 736 l 1107 736 q 821 986 940 858 q 589 736 721 847 m 567 626 l 567 718 q 406 606 499 663 q 331 711 375 665 q 603 908 479 788 q 801 1174 728 1029 l 913 1133 q 885 1083 904 1117 q 1096 894 967 989 q 1344 743 1225 800 q 1281 622 1304 689 q 1119 726 1197 669 l 1119 626 l 567 626 m 935 240 l 826 219 q 763 540 810 367 l 867 557 q 935 240 917 386 m 682 196 l 575 164 q 482 499 556 303 l 582 525 q 682 196 654 343 m 1121 539 l 1243 510 q 1039 74 1138 250 l 1290 74 l 1290 -44 l 397 -44 l 397 74 l 924 74 q 1121 539 1039 283 z "},"修":{"ha":1389,"x_min":32,"x_max":1347,"o":"m 317 1158 l 438 1124 q 326 846 393 986 l 326 -108 l 204 -108 l 204 621 q 97 474 150 539 q 32 610 71 551 q 194 856 119 711 q 317 1158 269 1001 m 1124 915 l 786 915 q 956 747 850 822 q 1124 915 1061 821 m 1213 1025 l 1288 989 q 1054 688 1217 813 q 1347 590 1189 618 q 1276 488 1308 551 q 954 619 1099 529 q 582 479 799 529 q 532 564 558 532 l 532 115 l 424 115 l 424 779 l 532 779 l 532 579 q 858 689 715 615 q 722 835 775 761 q 617 719 668 765 q 518 796 568 765 q 669 959 600 861 q 776 1167 738 1057 l 896 1138 q 842 1019 876 1088 l 1192 1019 l 1213 1025 m 1094 404 l 1189 364 q 713 114 1039 199 q 649 197 685 161 q 908 281 786 226 q 1094 404 1029 336 m 963 539 l 1058 497 q 704 300 938 375 q 633 375 678 340 q 820 445 729 401 q 963 539 911 489 m 1211 253 l 1321 206 q 642 -107 1132 -19 q 575 -3 619 -49 q 1211 253 1042 63 z "},"俯":{"ha":1389,"x_min":42,"x_max":1325,"o":"m 303 1158 l 418 1126 q 314 844 371 975 l 314 -108 l 193 -108 l 193 608 q 106 479 142 525 q 42 611 78 556 q 303 1158 206 815 m 731 892 l 838 868 q 772 667 804 747 l 772 -103 l 664 -103 l 664 449 q 603 365 644 418 q 554 467 583 419 q 661 659 615 543 q 731 892 707 775 m 1208 876 l 1208 694 l 1318 694 l 1318 586 l 1208 586 l 1208 26 q 1160 -82 1208 -58 q 978 -103 1117 -103 q 944 6 971 -51 q 1074 6 1047 3 q 1092 10 1088 6 q 1097 28 1097 14 l 1097 586 l 826 586 l 826 694 l 1097 694 l 1097 876 l 1208 876 m 1061 228 l 969 179 q 838 465 933 282 l 925 507 q 1061 228 1022 332 m 961 1029 l 1325 1029 l 1325 917 l 546 917 l 546 561 q 444 -107 546 106 q 343 -43 399 -64 q 431 561 431 144 l 431 1029 l 831 1029 q 783 1146 806 1100 l 897 1176 q 961 1029 931 1115 z "},"俱":{"ha":1389,"x_min":28,"x_max":1329,"o":"m 664 426 l 664 319 l 1076 319 l 1076 426 l 664 426 m 1076 1008 l 664 1008 l 664 908 l 1076 908 l 1076 1008 m 1076 622 l 664 622 l 664 517 l 1076 517 l 1076 622 m 1076 713 l 1076 817 l 664 817 l 664 713 l 1076 713 m 407 319 l 540 319 l 540 1113 l 1206 1113 l 1206 319 l 1322 319 l 1322 206 l 407 206 l 407 319 m 357 1161 l 478 1124 q 342 835 419 971 l 342 -107 l 218 -107 l 218 640 q 99 496 168 571 q 28 626 71 563 q 213 866 125 724 q 357 1161 300 1008 m 694 201 l 794 131 q 482 -111 681 -10 q 401 -21 436 -49 q 565 82 485 22 q 694 201 646 142 m 956 121 l 1038 201 q 1329 -22 1236 72 l 1242 -111 q 956 121 1149 -10 z "},"俺":{"ha":1389,"x_min":32,"x_max":1356,"o":"m 625 253 l 783 253 l 783 360 l 625 360 l 625 253 m 947 886 l 772 886 q 628 656 714 761 l 783 656 l 783 763 l 904 763 l 904 656 l 1085 656 q 947 886 1003 760 m 904 554 l 904 454 l 1072 454 l 1072 554 l 904 554 m 625 554 l 625 454 l 783 454 l 783 554 l 625 554 m 904 253 l 1072 253 l 1072 360 l 904 360 l 904 253 m 1192 151 l 904 151 l 904 68 q 916 16 904 28 q 969 4 928 4 l 1154 4 q 1200 33 1189 4 q 1217 156 1211 61 q 1325 110 1265 122 q 1281 -60 1314 -15 q 1163 -104 1247 -104 l 954 -104 q 818 -69 853 -104 q 783 68 783 -35 l 783 151 l 625 151 l 625 93 l 507 93 l 507 533 q 426 474 458 494 q 339 575 389 533 q 633 886 521 682 l 419 886 l 419 992 q 332 817 381 903 l 332 -108 l 208 -108 l 208 621 q 104 493 144 536 q 32 625 74 568 q 211 866 126 724 q 349 1160 296 1008 l 472 1122 q 424 1000 451 1063 l 686 1000 q 739 1167 719 1081 l 864 1142 q 819 1000 844 1068 l 1328 1000 l 1328 886 l 1074 886 q 1198 709 1124 789 q 1356 585 1272 629 q 1271 488 1308 547 q 1192 544 1231 511 l 1192 151 z "},"倍":{"ha":1389,"x_min":42,"x_max":1328,"o":"m 1283 1013 l 1283 899 l 488 899 l 488 1013 l 826 1013 q 788 1158 813 1088 l 908 1179 q 957 1013 942 1089 l 1283 1013 m 771 665 l 656 629 q 581 857 638 740 l 689 890 q 771 665 747 779 m 358 1163 l 476 1124 q 339 825 428 989 l 339 -108 l 217 -108 l 217 628 q 111 497 164 557 q 42 626 83 565 q 220 867 136 725 q 358 1163 304 1010 m 1085 290 l 669 290 l 669 60 l 1085 60 l 1085 290 m 547 -108 l 547 406 l 1211 406 l 1211 -103 l 1085 -103 l 1085 -54 l 669 -54 l 669 -108 l 547 -108 m 1079 628 l 1328 628 l 1328 511 l 433 511 l 433 628 l 958 628 q 1058 896 1022 767 l 1181 864 q 1079 628 1121 710 z "},"倒":{"ha":1389,"x_min":31,"x_max":1281,"o":"m 1076 1049 l 1076 233 l 967 233 l 967 1049 l 1076 1049 m 294 1161 l 411 1128 q 307 844 369 988 l 307 -110 l 189 -110 l 189 613 q 94 474 142 531 q 31 613 72 549 q 182 859 113 714 q 294 1161 251 1004 m 696 338 l 696 165 q 803 186 728 171 q 919 208 879 201 l 928 101 q 657 48 857 88 q 371 -8 457 8 l 350 107 q 575 143 443 121 l 575 338 l 389 338 l 389 444 l 575 444 l 575 588 l 696 588 l 696 444 l 900 444 l 900 338 l 696 338 m 700 868 l 793 908 q 947 629 904 749 l 850 582 q 811 675 842 610 q 513 624 581 638 q 422 597 446 610 q 383 707 401 672 q 442 767 408 713 q 532 963 492 849 l 410 963 l 410 1072 l 911 1072 l 911 963 l 660 963 q 542 735 606 835 l 763 768 q 700 868 721 838 m 1165 1125 l 1281 1125 l 1281 57 q 1267 -23 1281 4 q 1219 -64 1253 -50 q 996 -87 1168 -87 q 953 26 986 -29 q 1132 25 1085 22 q 1158 33 1151 26 q 1165 57 1165 39 l 1165 1125 z "},"倔":{"ha":1389,"x_min":50,"x_max":1288,"o":"m 340 1158 l 463 1124 q 347 840 419 990 l 347 -107 l 225 -107 l 225 624 q 122 485 179 553 q 50 617 97 546 q 215 860 138 715 q 340 1158 292 1004 m 1157 1000 l 610 1000 l 610 854 l 1157 854 l 1157 1000 m 1278 746 l 610 746 l 610 681 q 494 -108 610 147 q 392 -40 443 -64 q 490 679 490 183 l 490 1107 l 1278 1107 l 1278 746 m 1182 275 l 1288 275 l 1288 -103 l 1182 -103 l 1182 -56 l 663 -56 l 663 276 l 768 276 l 768 46 l 917 46 l 917 344 l 685 344 l 685 656 l 786 656 l 786 447 l 917 447 l 917 707 l 1024 707 l 1024 447 l 1163 447 l 1163 657 l 1268 657 l 1268 344 l 1024 344 l 1024 46 l 1182 46 l 1182 275 z "},"倘":{"ha":1389,"x_min":46,"x_max":1271,"o":"m 1151 1126 l 1271 1086 q 1076 806 1157 901 l 982 846 q 1074 981 1025 900 q 1151 1126 1122 1061 m 314 1160 l 435 1126 q 328 843 389 976 l 328 -110 l 206 -110 l 206 607 q 113 475 149 519 q 46 611 89 549 q 314 1160 214 815 m 729 861 l 628 803 q 453 1076 576 931 l 549 1125 q 729 861 669 992 m 936 429 l 779 429 l 779 247 l 936 247 l 936 429 m 1039 146 l 779 146 l 779 76 l 678 76 l 678 529 l 1039 529 l 1039 146 m 1261 749 l 1261 33 q 1249 -44 1261 -17 q 1204 -86 1236 -72 q 983 -107 1156 -107 q 944 10 972 -42 q 1110 8 1018 8 q 1133 15 1126 10 q 1139 35 1139 21 l 1139 632 l 579 632 l 579 -110 l 458 -110 l 458 749 l 792 749 l 792 1165 l 921 1165 l 921 749 l 1261 749 z "},"候":{"ha":1389,"x_min":46,"x_max":1347,"o":"m 1318 853 l 1318 744 l 572 744 l 572 853 l 1053 853 q 1075 994 1053 856 l 644 994 l 644 1101 l 1101 1101 l 1121 1107 l 1210 1096 q 1176 853 1199 993 l 1318 853 m 310 1157 l 431 1124 q 319 828 381 958 l 319 -111 l 196 -111 l 196 593 q 111 472 151 522 q 46 608 82 557 q 310 1157 214 819 m 525 878 l 525 160 l 414 160 l 414 878 l 525 878 m 1321 243 l 1028 243 q 1347 4 1099 65 q 1274 -103 1301 -39 q 956 140 1054 -39 q 606 -112 861 -19 q 522 -17 574 -61 q 868 243 811 72 l 575 243 l 575 353 l 888 353 l 888 369 l 888 513 l 754 513 q 657 371 701 418 q 557 438 621 403 q 722 742 671 556 l 840 714 q 806 619 832 689 l 1279 619 l 1279 513 l 1014 513 l 1014 368 l 1014 353 l 1321 353 l 1321 243 z "},"倚":{"ha":1389,"x_min":28,"x_max":1333,"o":"m 468 1026 l 815 1026 q 831 1151 826 1089 l 964 1151 q 949 1026 956 1065 l 1296 1026 l 1296 917 l 921 917 q 915 901 919 911 q 910 888 911 892 q 1290 708 1165 786 l 1213 613 q 853 793 1090 690 q 486 613 750 668 q 421 714 468 669 q 660 790 576 742 q 782 917 743 839 l 468 917 l 468 1026 m 357 1158 l 478 1122 q 339 828 425 983 l 339 -107 l 217 -107 l 217 638 q 99 494 165 564 q 28 625 74 557 q 213 864 125 722 q 357 1158 300 1006 m 824 311 l 619 311 l 619 174 l 824 174 l 824 311 m 939 79 l 619 79 l 619 0 l 507 0 l 507 406 l 939 406 l 939 79 m 1333 611 l 1333 497 l 1215 497 l 1215 24 q 1201 -53 1215 -28 q 1151 -93 1188 -79 q 910 -111 1101 -111 q 871 1 904 -64 q 1057 0 911 0 q 1082 6 1075 1 q 1089 25 1089 11 l 1089 497 l 408 497 l 408 611 l 1333 611 z "},"借":{"ha":1389,"x_min":51,"x_max":1322,"o":"m 382 1160 l 503 1122 q 361 824 443 968 l 361 -107 l 238 -107 l 238 632 q 124 493 189 564 q 51 625 96 564 q 238 864 150 721 q 382 1160 325 1007 m 1096 400 l 724 400 l 724 278 l 1096 278 l 1096 400 m 724 53 l 1096 53 l 1096 175 l 724 175 l 724 53 m 597 -108 l 597 507 l 1226 507 l 1226 -106 l 1096 -106 l 1096 -51 l 724 -51 l 724 -108 l 597 -108 m 806 879 l 806 719 l 1001 719 l 1001 879 l 806 879 m 1126 719 l 1322 719 l 1322 604 l 488 604 l 488 719 l 682 719 l 682 879 l 522 879 l 522 993 l 682 993 l 682 1164 l 806 1164 l 806 993 l 1001 993 l 1001 1164 l 1126 1164 l 1126 993 l 1294 993 l 1294 879 l 1126 879 l 1126 719 z "},"倡":{"ha":1389,"x_min":36,"x_max":1271,"o":"m 1075 903 l 1075 1011 l 642 1011 l 642 903 l 1075 903 m 1075 697 l 1075 807 l 642 807 l 642 697 l 1075 697 m 1207 1113 l 1207 596 l 515 596 l 515 1113 l 1207 1113 m 344 1160 l 471 1122 q 335 817 418 974 l 335 -107 l 208 -107 l 208 613 q 107 488 157 539 q 36 625 85 553 q 210 865 128 722 q 344 1160 292 1007 m 585 54 l 1138 54 l 1138 176 l 585 176 l 585 54 m 1138 399 l 585 399 l 585 283 l 1138 283 l 1138 399 m 456 508 l 1271 508 l 1271 -101 l 1138 -101 l 1138 -56 l 585 -56 l 585 -107 l 456 -107 l 456 508 z "},"倦":{"ha":1389,"x_min":44,"x_max":1319,"o":"m 1093 1124 l 1199 1093 q 1076 894 1143 976 q 981 944 1057 910 q 1093 1124 1049 1026 m 729 963 l 636 900 q 515 1082 604 961 l 604 1135 q 729 963 697 1014 m 351 1158 l 472 1122 q 339 821 418 972 l 339 -107 l 217 -107 l 217 622 q 115 494 154 538 q 84 560 107 518 q 44 625 61 603 q 218 865 136 724 q 351 1158 300 1007 m 681 444 l 1061 444 q 994 557 1022 499 l 756 557 q 681 444 726 504 m 1315 557 l 1115 557 q 1319 363 1201 424 q 1238 269 1276 328 q 1094 399 1161 317 l 1094 229 q 1085 167 1094 189 q 1051 133 1076 146 q 890 117 1015 117 q 858 215 885 161 q 964 215 940 213 q 982 231 982 215 l 982 342 l 701 342 l 701 67 q 718 24 701 33 q 793 14 735 14 l 1046 14 q 1106 40 1092 14 q 1125 158 1119 65 q 1233 113 1165 131 q 1186 -53 1222 -11 q 1056 -94 1150 -94 l 783 -94 q 625 -62 665 -94 q 585 67 585 -29 l 585 338 q 467 246 519 281 q 379 347 440 290 q 607 557 513 426 l 411 557 l 411 661 l 671 661 q 726 786 703 725 l 497 786 l 497 889 l 758 889 q 814 1165 794 1013 l 940 1150 q 888 889 921 1018 l 1232 889 l 1232 786 l 857 786 q 808 661 826 700 l 1315 661 l 1315 557 z "},"债":{"ha":1389,"x_min":49,"x_max":1318,"o":"m 803 878 l 803 951 l 464 951 l 464 1050 l 803 1050 l 803 1165 l 922 1165 l 922 1050 l 1244 1050 l 1244 951 l 922 951 l 922 878 l 1208 878 l 1208 786 l 922 786 l 922 703 l 1304 703 l 1304 607 l 428 607 l 428 703 l 803 703 l 803 786 l 507 786 l 507 878 l 803 878 m 1229 146 l 1107 146 l 1107 449 l 615 449 l 615 146 l 499 146 l 499 538 l 1229 538 l 1229 146 m 321 1160 l 444 1125 q 339 856 401 990 l 339 -108 l 217 -108 l 217 628 q 122 493 168 549 q 90 560 114 517 q 49 625 65 603 q 321 1160 218 824 m 913 375 l 913 265 q 905 190 913 225 q 870 112 897 156 q 797 31 843 68 q 668 -44 751 -6 q 472 -112 585 -82 q 393 -21 444 -62 q 578 31 500 1 q 697 89 656 61 q 760 152 738 117 q 789 212 783 188 q 794 268 794 236 l 794 375 l 913 375 m 899 60 l 960 143 q 1318 -8 1181 69 l 1253 -101 q 899 60 1131 -25 z "},"值":{"ha":1389,"x_min":44,"x_max":1328,"o":"m 354 1161 l 474 1125 q 333 818 415 969 l 333 -110 l 214 -110 l 214 624 q 113 496 165 556 q 44 628 94 557 q 219 867 138 725 q 354 1161 301 1008 m 646 133 l 646 33 l 1094 33 l 1094 133 l 646 133 m 1094 707 l 646 707 l 646 608 l 1094 608 l 1094 707 m 1094 326 l 646 326 l 646 225 l 1094 225 l 1094 326 m 1094 417 l 1094 515 l 646 515 l 646 417 l 1094 417 m 1214 33 l 1328 33 l 1328 -76 l 403 -76 l 403 33 l 531 33 l 531 804 l 768 804 q 790 918 783 876 l 464 918 l 464 1029 l 807 1029 q 822 1163 818 1107 l 958 1157 q 935 1029 949 1104 l 1292 1029 l 1292 918 l 913 918 q 885 804 899 854 l 1214 804 l 1214 33 z "},"倾":{"ha":1389,"x_min":26,"x_max":1333,"o":"m 749 847 l 911 847 q 947 975 931 903 l 689 975 l 689 1085 l 1326 1085 l 1326 975 l 1082 975 q 1029 847 1060 918 l 1268 847 l 1268 204 l 1151 204 l 1151 735 l 860 735 l 860 200 l 749 200 l 749 847 m 288 1163 l 404 1129 q 310 872 364 997 l 310 -111 l 194 -111 l 194 640 q 89 485 142 551 q 26 621 68 546 q 288 1163 192 824 m 536 294 l 690 367 q 690 257 683 315 q 433 101 463 135 q 383 214 419 165 q 428 306 428 240 l 428 1011 l 536 1011 l 536 757 l 699 757 l 699 647 l 536 647 l 536 294 m 1053 675 l 1053 394 q 1048 285 1053 333 q 1023 176 1043 238 q 967 67 1003 115 q 867 -30 932 19 q 714 -115 803 -79 q 644 -36 694 -75 q 951 394 951 83 l 951 675 l 1053 675 m 1011 100 l 1079 179 q 1333 -19 1256 63 l 1263 -110 q 1011 100 1179 -17 z "},"假":{"ha":1389,"x_min":47,"x_max":1343,"o":"m 1264 1107 l 1264 661 l 871 661 l 871 771 l 1144 771 l 1144 997 l 871 997 l 871 1107 l 1264 1107 m 282 1158 l 403 1131 q 315 853 367 988 l 315 -108 l 192 -108 l 192 592 q 113 476 157 532 q 47 611 83 557 q 282 1158 199 801 m 708 1000 l 556 1000 l 556 765 l 708 765 l 708 1000 m 810 165 l 556 165 l 556 -106 l 436 -106 l 436 1107 l 821 1107 l 821 658 l 556 658 l 556 529 l 793 529 l 793 422 l 556 422 l 556 274 l 810 274 l 810 165 m 1149 464 l 951 464 q 1049 242 988 343 q 1149 464 1114 338 m 1211 574 l 1285 551 q 1121 146 1238 306 q 1343 -11 1219 36 q 1265 -110 1301 -49 q 1046 58 1144 -53 q 779 -114 938 -50 q 713 -18 753 -58 q 978 153 875 40 q 853 447 901 276 l 921 464 l 835 464 l 835 569 l 1190 569 l 1211 574 z "},"偎":{"ha":1389,"x_min":47,"x_max":1342,"o":"m 1115 900 l 1115 1015 l 932 1015 l 932 900 l 1115 900 m 1115 692 l 1115 808 l 932 808 l 932 692 l 1115 692 m 642 808 l 642 692 l 821 692 l 821 808 l 642 808 m 642 1015 l 642 900 l 821 900 l 821 1015 l 642 1015 m 1232 1114 l 1232 593 l 529 593 l 529 1114 l 1232 1114 m 361 1160 l 483 1124 q 343 818 428 975 l 343 -111 l 221 -111 l 221 622 q 118 493 163 543 q 47 625 89 568 q 224 865 140 722 q 361 1160 308 1007 m 1203 347 l 1282 263 q 1088 143 1196 199 q 1342 -17 1194 29 q 1297 -65 1321 -35 q 1263 -121 1274 -96 q 826 385 946 0 l 689 385 l 689 47 l 903 92 q 900 -21 894 28 q 558 -118 597 -93 q 511 7 543 -40 q 567 104 567 33 l 567 385 l 432 385 l 432 497 l 1331 497 l 1331 385 l 942 385 q 1025 221 972 297 q 1203 347 1143 294 z "},"偏":{"ha":1389,"x_min":42,"x_max":1286,"o":"m 374 1160 l 493 1122 q 354 829 436 978 l 354 -107 l 231 -107 l 231 638 q 111 494 171 556 q 42 624 83 565 q 228 864 139 721 q 374 1160 317 1007 m 1142 914 l 613 914 l 613 768 l 1142 768 l 1142 914 m 1267 663 l 613 663 q 483 -97 600 163 q 436 -56 468 -79 q 385 -22 404 -32 q 493 736 493 225 l 493 1019 l 831 1019 q 778 1139 801 1093 l 897 1168 q 964 1019 939 1090 l 1267 1019 l 1267 663 m 1083 300 l 1185 300 l 1185 482 l 1083 482 l 1083 300 m 900 300 l 999 300 l 999 482 l 900 482 l 900 300 m 721 300 l 817 300 l 817 482 l 721 482 l 721 300 m 1286 583 l 1286 14 q 1251 -79 1286 -57 q 1126 -100 1218 -100 q 1092 0 1119 -50 q 1171 0 1153 -3 q 1185 15 1185 0 l 1185 200 l 1083 200 l 1083 -65 l 999 -65 l 999 200 l 900 200 l 900 -68 l 817 -68 l 817 200 l 721 200 l 721 -104 l 619 -104 l 619 583 l 1286 583 z "},"做":{"ha":1389,"x_min":29,"x_max":1342,"o":"m 314 1158 l 435 1125 q 322 846 386 983 l 322 -110 l 204 -110 l 204 631 q 94 478 154 549 q 29 614 65 551 q 190 858 115 714 q 314 1158 265 1003 m 1156 793 l 997 793 q 988 760 992 771 q 1069 374 1013 540 q 1156 793 1128 532 m 717 153 l 717 431 l 529 431 l 529 153 l 717 153 m 1331 793 l 1268 793 q 1131 232 1229 439 q 1342 -6 1213 76 q 1264 -108 1292 -56 q 1067 118 1151 -26 q 835 -110 974 -19 q 754 -21 800 -58 q 1008 238 919 76 q 915 581 949 386 q 857 481 889 526 q 831 521 847 500 l 831 42 l 529 42 l 529 -51 l 417 -51 l 417 542 l 564 542 l 564 788 l 386 788 l 386 904 l 564 904 l 564 1147 l 686 1147 l 686 904 l 851 904 l 851 788 l 686 788 l 686 542 l 817 542 q 782 585 799 565 q 960 1164 906 771 l 1076 1143 q 1028 903 1049 978 l 1331 903 l 1331 793 z "},"停":{"ha":1389,"x_min":44,"x_max":1322,"o":"m 457 1049 l 824 1049 q 778 1140 807 1089 l 896 1174 q 961 1049 936 1111 l 1318 1049 l 1318 942 l 457 942 l 457 1049 m 667 786 l 667 690 l 1086 690 l 1086 786 l 667 786 m 1211 600 l 549 600 l 549 876 l 1211 876 l 1211 600 m 353 1163 l 469 1124 q 331 813 411 961 l 331 -110 l 213 -110 l 213 621 q 113 497 154 540 q 44 628 92 560 q 219 867 138 725 q 353 1163 300 1010 m 560 231 l 560 333 l 1188 333 l 1188 231 l 946 231 l 946 24 q 932 -51 946 -25 q 882 -89 918 -76 q 653 -106 833 -106 q 614 7 644 -51 q 788 6 739 3 q 810 10 804 6 q 815 28 815 15 l 815 231 l 560 231 m 431 528 l 1322 528 l 1322 292 l 1207 292 l 1207 424 l 542 424 l 542 293 l 431 293 l 431 528 z "},"健":{"ha":1389,"x_min":49,"x_max":1335,"o":"m 1135 960 l 1029 960 l 1029 872 l 1135 872 l 1135 960 m 1135 685 l 1135 775 l 1029 775 l 1029 685 l 1135 685 m 922 872 l 922 960 l 754 960 l 754 1056 l 922 1056 l 922 1165 l 1029 1165 l 1029 1056 l 1235 1056 l 1235 872 l 1325 872 l 1325 775 l 1235 775 l 1235 589 l 1029 589 l 1029 504 l 1257 504 l 1257 403 l 1029 403 l 1029 311 l 1299 311 l 1299 210 l 1029 210 l 1029 61 l 922 61 l 922 210 l 703 210 l 703 311 l 922 311 l 922 403 l 736 403 l 736 504 l 922 504 l 922 589 l 754 589 l 754 685 l 922 685 l 922 775 l 693 775 l 693 872 l 922 872 m 289 1163 l 406 1129 q 307 857 363 985 l 307 -108 l 193 -108 l 193 632 q 110 510 140 547 q 49 644 88 582 q 289 1163 204 840 m 640 669 l 707 656 q 607 168 682 356 q 1076 17 758 17 q 1335 18 1278 17 q 1294 -87 1306 -28 l 1069 -87 q 778 -53 904 -87 q 558 68 653 -19 q 401 -110 496 -42 q 317 -31 367 -61 q 483 158 418 36 q 364 413 410 263 l 457 446 q 531 268 486 343 q 593 567 575 397 l 385 567 q 538 958 453 722 l 399 958 l 399 1069 l 693 1069 q 543 668 626 876 l 628 668 l 640 669 z "},"偶":{"ha":1389,"x_min":40,"x_max":1304,"o":"m 357 1160 l 481 1124 q 339 818 421 964 l 339 -110 l 217 -110 l 217 624 q 113 493 167 554 q 40 625 85 564 q 219 866 135 724 q 357 1160 304 1008 m 638 682 l 819 682 l 819 796 l 638 796 l 638 682 m 638 1003 l 638 890 l 819 890 l 819 1003 l 638 1003 m 1124 890 l 1124 1003 l 932 1003 l 932 890 l 1124 890 m 1124 682 l 1124 796 l 932 796 l 932 682 l 1124 682 m 1304 485 l 1304 17 q 1292 -56 1304 -31 q 1246 -93 1279 -81 q 1031 -111 1199 -111 q 993 -4 1021 -51 q 1157 -6 1031 -6 q 1178 0 1172 -4 q 1183 18 1183 4 l 1183 375 l 932 375 l 932 219 l 1036 229 q 994 314 1026 254 l 1072 340 q 1183 83 1151 203 l 1101 53 q 1075 136 1096 76 q 631 79 817 100 l 606 190 q 819 210 685 196 l 819 375 l 574 375 l 574 -110 l 451 -110 l 451 485 l 819 485 l 819 582 l 518 582 l 518 1103 l 1249 1103 l 1249 582 l 932 582 l 932 485 l 1304 485 z "},"偷":{"ha":1389,"x_min":46,"x_max":1332,"o":"m 314 1158 l 435 1126 q 328 842 389 976 l 328 -110 l 206 -110 l 206 606 q 113 475 153 524 q 84 542 106 499 q 46 610 63 586 q 314 1158 215 817 m 565 271 l 740 271 l 740 364 l 565 364 l 565 271 m 740 547 l 565 547 l 565 460 l 740 460 l 740 547 m 849 649 l 849 25 q 808 -76 849 -54 q 668 -97 772 -97 q 638 11 661 -47 q 724 10 675 10 q 740 26 740 11 l 740 175 l 565 175 l 565 -106 l 454 -106 l 454 649 l 849 649 m 1140 26 l 1140 669 l 1247 669 l 1247 25 q 1237 -46 1247 -21 q 1199 -83 1226 -71 q 1015 -104 1154 -104 q 982 6 1011 -58 q 1118 6 1088 3 q 1136 10 1132 6 q 1140 26 1140 14 m 1043 617 l 1043 117 l 942 117 l 942 617 l 1043 617 m 831 1172 l 933 1125 q 914 1099 929 1119 q 1332 857 1060 958 q 1256 758 1279 810 q 847 1025 1011 865 q 590 826 738 913 l 1107 826 l 1107 725 l 582 725 l 582 822 q 443 751 511 782 q 363 847 411 804 q 629 988 501 900 q 831 1172 757 1075 z "},"偿":{"ha":1389,"x_min":38,"x_max":1331,"o":"m 1172 821 l 560 821 l 560 688 l 1172 688 l 1172 821 m 549 568 l 549 654 l 436 654 l 436 931 l 610 931 q 493 1093 572 999 l 600 1143 q 731 974 692 1049 l 650 931 l 799 931 l 799 1169 l 929 1169 l 929 931 l 1108 931 l 1008 967 q 1132 1143 1078 1047 l 1264 1101 q 1118 931 1193 1006 l 1301 931 l 1301 654 l 1197 654 l 1197 568 l 549 568 m 311 1160 l 433 1124 q 329 853 393 999 l 329 -108 l 203 -108 l 203 615 q 104 478 151 532 q 38 617 82 547 q 192 859 121 715 q 311 1160 264 1003 m 1331 333 l 844 333 q 649 75 753 192 l 1081 111 q 975 253 1039 174 l 1085 307 q 1326 -40 1254 106 l 1208 -106 q 1149 6 1190 -64 q 639 -46 756 -31 q 486 -75 522 -61 q 440 57 468 -4 q 528 124 475 64 q 682 333 599 199 l 401 333 l 401 456 l 1331 456 l 1331 333 z "},"傅":{"ha":1389,"x_min":26,"x_max":1338,"o":"m 356 1158 l 476 1122 q 339 831 422 979 l 339 -107 l 217 -107 l 217 640 q 97 494 154 554 q 26 625 69 561 q 211 863 124 721 q 356 1158 299 1006 m 547 164 l 644 221 q 822 36 761 110 l 721 -31 q 547 164 671 35 m 936 550 l 1136 550 l 1136 622 l 936 622 l 936 550 m 619 550 l 814 550 l 814 622 l 619 622 l 619 550 m 814 774 l 619 774 l 619 704 l 814 704 l 814 774 m 1136 774 l 936 774 l 936 704 l 1136 704 l 1136 774 m 1338 333 l 1336 231 l 1147 231 l 1147 19 q 1135 -54 1147 -29 q 1088 -92 1122 -79 q 867 -108 1042 -108 q 831 0 857 -53 q 996 -1 951 -4 q 1017 5 1011 0 q 1022 24 1022 10 l 1022 231 l 415 231 l 415 333 l 1022 333 l 1022 425 l 1136 425 l 1136 469 l 936 469 l 936 410 l 814 410 l 814 469 l 619 469 l 619 390 l 500 390 l 500 861 l 814 861 l 814 932 l 449 932 l 449 1033 l 814 1033 l 814 1161 l 936 1161 l 936 1033 l 1117 1033 q 1001 1103 1088 1053 l 1074 1164 q 1238 1068 1186 1107 l 1200 1033 l 1319 1033 l 1319 932 l 936 932 l 936 861 l 1261 861 l 1261 392 l 1147 392 l 1147 333 l 1338 333 z "},"傍":{"ha":1389,"x_min":43,"x_max":1308,"o":"m 360 1158 l 481 1122 q 339 814 429 979 l 339 -107 l 217 -107 l 217 621 q 114 493 164 549 q 43 625 85 568 q 222 864 138 721 q 360 1158 307 1007 m 789 619 l 915 636 q 957 504 944 567 l 1279 504 l 1279 396 l 808 396 q 794 283 801 328 l 1224 283 l 1219 236 q 1194 22 1208 92 q 1154 -74 1179 -47 q 1058 -110 1117 -106 q 893 -111 1010 -115 q 858 -3 888 -47 q 996 -8 918 -8 q 1043 3 1031 -8 q 1083 178 1068 31 l 768 178 q 666 3 735 75 q 478 -115 597 -68 q 444 -65 468 -93 q 400 -22 421 -36 q 608 131 550 33 q 679 396 665 229 l 468 396 l 468 504 l 821 504 q 789 619 806 574 m 1106 776 l 1308 776 l 1308 549 l 1178 549 l 1178 674 l 572 674 l 572 546 l 447 546 l 447 776 l 653 776 q 611 913 639 843 l 731 933 q 783 776 772 843 l 976 776 q 1029 935 1007 851 l 478 935 l 478 1039 l 824 1039 q 793 1161 808 1108 l 919 1176 q 960 1039 944 1113 l 1272 1039 l 1272 935 l 1047 935 l 1165 915 q 1137 849 1157 897 q 1106 776 1117 800 z "},"储":{"ha":1389,"x_min":36,"x_max":1329,"o":"m 646 894 l 554 828 q 397 1029 507 919 l 485 1088 q 646 894 601 979 m 286 1169 l 396 1139 q 297 857 360 1013 l 297 -106 l 185 -106 l 185 628 q 97 496 142 554 q 36 619 76 560 q 286 1169 196 825 m 583 144 l 706 213 q 735 111 714 172 q 479 -61 508 -26 q 418 43 461 -6 q 474 156 474 81 l 474 608 l 346 608 l 346 732 l 583 732 l 583 144 m 1158 282 l 1158 400 l 890 400 l 890 282 l 1158 282 m 890 64 l 1158 64 l 1158 186 l 890 186 l 890 64 m 976 910 l 976 756 l 999 756 q 1100 910 1058 836 l 976 910 m 1329 640 l 1054 640 q 928 504 979 553 l 1272 504 l 1272 -99 l 1158 -99 l 1158 -40 l 890 -40 l 890 -104 l 781 -104 l 781 378 q 697 321 714 332 q 615 418 661 375 q 897 640 772 507 l 651 640 l 651 756 l 858 756 l 858 910 l 693 910 l 693 1018 l 858 1018 l 858 1165 l 976 1165 l 976 1018 l 1121 1018 l 1121 944 q 1207 1129 1167 1028 l 1321 1099 q 1140 756 1249 917 l 1329 756 l 1329 640 z "},"催":{"ha":1389,"x_min":42,"x_max":1329,"o":"m 1268 1100 l 1268 789 l 501 789 l 501 1100 l 619 1100 l 619 901 l 828 901 l 828 1163 l 951 1163 l 951 901 l 1144 901 l 1144 1100 l 1268 1100 m 310 1158 l 429 1125 q 338 876 382 975 l 338 -110 l 214 -110 l 214 629 q 108 475 160 540 q 42 611 74 560 q 310 1158 213 821 m 625 153 l 625 61 l 886 61 l 886 153 l 625 153 m 886 438 l 886 528 l 625 528 l 625 438 l 886 438 m 886 249 l 886 343 l 625 343 l 625 249 l 886 249 m 1329 61 l 1329 -49 l 625 -49 l 625 -110 l 508 -110 l 508 371 q 426 265 463 303 q 360 386 399 336 q 569 776 501 536 l 683 744 q 644 632 654 660 l 892 632 q 838 749 869 690 l 951 781 q 1024 632 996 708 l 1304 632 l 1304 528 l 1008 528 l 1008 438 l 1274 438 l 1274 343 l 1008 343 l 1008 249 l 1274 249 l 1274 153 l 1008 153 l 1008 61 l 1329 61 z "},"傲":{"ha":1389,"x_min":46,"x_max":1350,"o":"m 314 1165 l 435 1131 q 322 838 386 974 l 322 -110 l 204 -110 l 204 613 q 113 482 153 532 q 46 618 83 561 q 314 1165 214 822 m 1153 807 l 1031 807 q 1024 787 1029 801 q 1015 764 1018 772 q 1094 376 1043 529 q 1153 807 1139 542 m 1328 807 l 1265 807 q 1158 224 1240 425 q 1350 -3 1235 78 q 1268 -110 1301 -49 q 1096 99 1167 -29 q 894 -117 1015 -29 q 831 -11 869 -58 q 1038 222 961 74 q 943 588 978 371 q 901 511 925 550 q 882 535 885 532 l 882 456 l 618 456 q 610 346 615 397 l 857 346 q 854 300 856 315 q 803 -50 842 -4 q 729 -87 775 -83 q 604 -90 683 -94 q 578 17 601 -33 q 671 11 619 11 q 707 25 694 11 q 739 244 728 53 l 594 244 q 417 -112 553 8 q 378 -67 406 -94 q 333 -25 351 -39 q 458 162 421 44 q 503 456 494 279 l 371 456 l 371 561 l 586 561 l 586 690 l 422 690 l 422 796 l 586 796 l 586 913 l 401 913 l 401 1015 l 586 1015 l 586 1149 l 704 1149 l 704 1015 l 874 1015 l 874 913 l 704 913 l 704 796 l 850 796 l 850 690 l 704 690 l 704 561 l 858 561 q 817 606 822 601 q 992 1164 939 796 l 1110 1144 q 1061 917 1085 1004 l 1328 917 l 1328 807 z "},"傻":{"ha":1389,"x_min":39,"x_max":1326,"o":"m 575 954 l 575 676 l 669 676 q 606 749 642 715 q 774 817 707 785 q 621 878 714 844 l 679 943 q 874 867 778 910 q 990 946 947 911 l 1079 911 q 964 825 1028 867 q 1099 751 1044 788 l 1035 678 q 874 771 988 711 q 679 676 778 715 l 1138 676 l 1138 954 l 575 954 m 467 368 l 406 444 q 718 586 561 500 l 464 586 l 464 1044 l 747 1044 q 807 1160 783 1106 l 943 1135 q 875 1044 915 1094 l 1253 1044 l 1253 586 l 993 586 q 1308 453 1192 524 l 1244 368 q 929 511 1128 440 l 988 586 l 732 586 l 789 519 q 467 368 678 447 m 324 1158 l 444 1124 q 336 851 394 976 l 336 -106 l 214 -106 l 214 626 q 104 474 164 544 q 39 610 81 535 q 200 854 125 708 q 324 1158 275 1000 m 1025 268 l 689 268 q 865 132 761 188 q 1025 268 963 188 m 1114 363 l 1188 329 q 974 81 1117 181 q 1326 -7 1132 18 q 1258 -104 1288 -47 q 869 18 1043 -68 q 443 -108 693 -69 q 392 -12 425 -56 q 763 81 608 15 q 610 214 683 133 q 493 147 558 178 q 417 225 457 199 q 740 454 628 317 l 857 431 q 790 358 821 388 l 1094 358 l 1114 363 z "},"像":{"ha":1389,"x_min":40,"x_max":1347,"o":"m 351 1160 l 472 1122 q 336 821 419 972 l 336 -106 l 214 -106 l 214 621 q 111 493 157 542 q 80 559 103 517 q 40 624 57 601 q 216 864 133 721 q 351 1160 299 1007 m 614 778 l 614 663 l 782 663 q 829 778 819 718 l 614 778 m 910 968 l 681 968 q 603 875 619 893 l 840 875 q 910 968 879 921 m 1129 663 l 1129 778 l 935 778 q 904 663 928 721 l 1129 663 m 1185 519 l 1271 439 q 1129 360 1243 422 q 1217 184 1160 263 q 1347 65 1274 106 q 1265 -29 1299 24 q 1035 315 1111 72 q 974 288 993 296 q 994 85 1004 181 q 940 -56 985 -11 q 814 -108 894 -108 q 729 -107 790 -110 q 700 4 726 -39 q 788 -1 746 -1 q 851 26 833 -1 q 882 179 890 65 q 464 -57 696 24 q 390 33 438 -6 q 650 140 519 71 q 860 286 781 210 q 835 350 844 332 q 661 235 760 290 q 476 149 563 179 q 406 229 439 201 q 616 313 507 258 q 789 422 725 367 q 743 472 769 450 q 469 344 633 394 q 399 421 443 383 q 694 567 592 482 l 500 567 l 500 774 q 470 749 490 765 q 440 725 450 733 q 357 807 401 779 q 667 1164 557 946 l 789 1142 q 747 1067 769 1104 l 979 1067 l 1003 1074 l 1078 1018 q 972 875 1035 947 l 1249 875 l 1249 567 l 844 567 q 817 535 843 565 q 942 374 894 471 q 1185 519 1083 443 z "},"僚":{"ha":1389,"x_min":33,"x_max":1361,"o":"m 563 231 l 679 196 q 474 -61 597 46 q 375 10 431 -24 q 563 231 497 101 m 1028 176 l 1128 229 q 1321 -6 1264 96 l 1213 -64 q 1134 52 1188 -17 q 1028 176 1081 121 m 1063 538 l 1063 631 l 649 631 l 649 538 l 1063 538 m 1063 358 l 1063 453 l 649 453 l 649 358 l 1063 358 m 925 915 l 807 915 q 686 719 746 796 l 1033 719 q 925 915 976 801 m 1225 897 l 1324 826 q 1188 714 1265 774 q 1361 576 1272 624 q 1278 481 1313 540 q 1182 551 1228 510 l 1182 269 l 925 269 l 925 18 q 913 -55 925 -31 q 868 -92 901 -79 q 664 -110 824 -110 q 625 3 654 -61 q 772 1 733 -1 q 792 6 788 1 q 797 22 797 10 l 797 269 l 533 269 l 533 561 q 431 489 474 514 q 349 585 393 547 q 533 722 449 638 q 421 818 485 771 l 500 892 q 607 808 567 844 q 676 915 650 865 l 417 915 l 417 1015 q 324 821 372 907 l 324 -107 l 204 -107 l 204 621 q 103 494 147 542 q 33 624 76 567 q 206 865 125 722 q 340 1160 288 1007 l 460 1124 q 421 1024 435 1057 l 728 1024 q 774 1165 753 1086 l 892 1142 q 853 1024 878 1090 l 1318 1024 l 1318 915 l 1046 915 q 1125 789 1085 842 q 1225 897 1197 861 z "},"僧":{"ha":1389,"x_min":42,"x_max":1269,"o":"m 353 1160 l 474 1124 q 339 828 411 957 l 339 -108 l 217 -108 l 217 628 q 111 496 158 549 q 42 625 83 564 q 217 865 135 722 q 353 1160 300 1007 m 1067 328 l 653 328 l 653 240 l 1067 240 l 1067 328 m 653 60 l 1067 60 l 1067 149 l 653 149 l 653 60 m 528 -106 l 528 428 l 1197 428 l 1197 -104 l 1067 -104 l 1067 -42 l 653 -42 l 653 -106 l 528 -106 m 606 821 l 683 850 q 776 663 747 751 l 693 626 q 606 821 672 707 m 1010 621 l 933 646 q 1028 851 996 758 l 1115 825 q 1010 621 1063 710 m 1147 593 l 1147 874 l 910 874 l 910 593 l 1147 593 m 574 874 l 574 593 l 811 593 l 811 874 l 574 874 m 1081 967 l 1269 967 l 1269 500 l 460 500 l 460 967 l 658 967 q 564 1122 622 1043 l 675 1161 q 781 1001 743 1079 l 693 967 l 949 967 q 1063 1169 1022 1071 l 1197 1125 q 1081 967 1136 1035 z "},"僵":{"ha":1389,"x_min":47,"x_max":1325,"o":"m 1315 1110 l 1315 1017 l 439 1017 l 439 1110 l 1315 1110 m 624 764 l 624 696 l 814 696 l 814 764 l 624 764 m 624 894 l 624 829 l 814 829 l 814 894 l 624 894 m 1113 829 l 1113 894 l 931 894 l 931 829 l 1113 829 m 1113 696 l 1113 764 l 931 764 l 931 696 l 1113 696 m 1236 624 l 506 624 l 506 967 l 1236 967 l 1236 624 m 1318 572 l 1318 482 l 426 482 l 426 572 l 1318 572 m 617 219 l 617 147 l 814 147 l 814 219 l 617 219 m 617 356 l 617 286 l 814 286 l 814 356 l 617 356 m 1118 286 l 1118 356 l 931 356 l 931 286 l 1118 286 m 1118 147 l 1118 219 l 931 219 l 931 147 l 1118 147 m 1242 75 l 499 75 l 499 428 l 1242 428 l 1242 75 m 314 1160 l 425 1129 q 326 867 378 979 l 326 -110 l 206 -110 l 206 629 q 108 489 153 544 q 47 614 89 554 q 314 1160 214 817 m 386 18 l 1325 18 l 1325 -83 l 386 -83 l 386 18 z "},"僻":{"ha":1389,"x_min":44,"x_max":1329,"o":"m 1313 1001 l 1313 889 l 850 889 l 850 1001 l 1035 1001 q 993 1143 1018 1081 l 1106 1167 q 1158 1001 1140 1082 l 1313 1001 m 1039 665 l 942 633 q 892 846 932 731 l 983 872 q 1039 665 1025 751 m 299 1165 l 407 1129 q 306 842 364 983 l 306 -108 l 194 -108 l 194 613 q 104 476 146 528 q 44 614 79 554 q 299 1165 206 824 m 719 386 l 590 386 l 590 114 l 719 114 l 719 386 m 699 985 l 536 985 l 536 831 q 535 756 536 782 l 699 756 l 699 985 m 828 494 l 828 6 l 590 6 l 590 -97 l 488 -97 l 488 260 q 399 -22 451 88 q 358 22 388 -6 q 313 58 329 49 q 429 831 429 311 l 429 1092 l 807 1092 l 807 650 l 532 650 q 521 494 525 540 l 828 494 m 1329 511 l 1142 511 l 1142 342 l 1311 342 l 1311 231 l 1142 231 l 1142 -108 l 1024 -108 l 1024 231 l 861 231 l 861 342 l 1024 342 l 1024 511 l 829 511 l 829 624 l 1094 624 q 1175 875 1146 749 l 1286 847 q 1247 747 1281 832 q 1194 624 1213 663 l 1329 624 l 1329 511 z "},"儒":{"ha":1389,"x_min":36,"x_max":1321,"o":"m 792 946 l 792 1019 l 463 1019 l 463 1121 l 1254 1121 l 1254 1019 l 910 1019 l 910 946 l 1303 946 l 1303 753 l 1201 753 l 1201 853 l 910 853 l 910 556 l 792 556 l 792 853 l 504 853 l 504 753 l 407 753 l 407 946 l 792 946 m 950 589 l 950 660 l 1217 660 l 1217 589 l 950 589 m 950 789 l 1193 789 l 1193 718 l 950 718 l 950 789 m 747 789 l 747 718 l 511 718 l 511 789 l 747 789 m 483 589 l 483 660 l 747 660 l 747 589 l 483 589 m 332 1160 l 446 1126 q 321 828 397 981 l 321 -108 l 204 -108 l 204 626 q 104 496 142 538 q 36 617 82 557 q 332 1160 222 822 m 1321 421 l 907 421 l 874 343 l 1271 343 l 1271 8 q 1231 -90 1271 -68 q 1090 -108 1194 -108 q 1058 -6 1086 -64 q 1139 -6 1121 -8 q 1151 -3 1149 -6 q 1154 10 1154 0 l 1154 242 l 1025 242 l 1025 -93 l 919 -93 l 919 242 l 796 242 l 796 -93 l 690 -93 l 690 242 l 569 242 l 569 -107 l 457 -107 l 457 343 l 749 343 q 768 421 761 389 l 393 421 l 393 524 l 1321 524 l 1321 421 z "},"儿":{"ha":1389,"x_min":46,"x_max":1339,"o":"m 858 1108 l 989 1108 l 989 108 q 997 44 989 58 q 1036 31 1006 31 l 1160 31 q 1203 84 1193 31 q 1218 311 1214 138 q 1339 251 1276 265 q 1296 -19 1329 54 q 1171 -93 1263 -93 l 1017 -93 q 891 -51 924 -93 q 858 110 858 -8 l 858 1108 m 354 1107 l 483 1107 l 483 663 q 477 492 483 567 q 450 328 471 418 q 393 165 429 238 q 292 19 357 93 q 138 -111 228 -54 q 46 -10 94 -47 q 210 133 144 53 q 304 306 275 213 q 344 478 333 399 q 354 664 354 558 l 354 1107 z "},"允":{"ha":1389,"x_min":46,"x_max":1339,"o":"m 974 40 l 1144 40 q 1200 85 1188 40 q 1218 293 1213 131 q 1339 238 1263 258 q 1292 -18 1328 47 q 1156 -83 1256 -83 l 956 -83 q 813 -45 850 -83 q 776 101 776 -7 l 776 582 l 592 567 q 571 372 585 453 q 526 211 557 292 q 444 74 494 131 q 315 -33 394 17 q 125 -117 236 -82 q 46 -4 94 -49 q 249 81 169 31 q 372 204 329 131 q 432 356 414 278 q 457 554 450 435 q 203 518 247 536 q 157 646 188 576 q 271 739 196 656 q 412 919 319 789 q 568 1175 504 1049 l 711 1129 q 374 675 557 876 l 982 717 q 813 940 889 844 l 919 1006 q 1003 899 940 979 q 1102 774 1067 819 q 1183 669 1138 729 q 1253 568 1228 608 l 1138 488 q 1061 607 1121 518 l 908 593 l 908 101 q 920 51 908 63 q 974 40 932 40 z "},"元":{"ha":1389,"x_min":64,"x_max":1331,"o":"m 1186 1063 l 1186 938 l 208 938 l 208 1063 l 1186 1063 m 988 36 l 1144 36 q 1194 79 1183 36 q 1210 278 1206 122 q 1331 222 1254 243 q 1285 -23 1319 40 q 1154 -86 1250 -86 l 969 -86 q 832 -48 868 -86 q 796 93 796 -10 l 796 557 l 558 557 q 528 345 547 433 q 465 167 508 257 q 342 8 422 76 q 144 -107 263 -60 q 64 -3 122 -53 q 210 75 149 29 q 309 169 272 121 q 370 286 346 218 q 404 414 394 354 q 421 557 414 474 l 86 557 l 86 682 l 1307 682 l 1307 557 l 929 557 l 929 94 q 940 47 929 57 q 988 36 950 36 z "},"兄":{"ha":1389,"x_min":50,"x_max":1332,"o":"m 353 967 l 353 632 l 1044 632 l 1044 967 l 353 967 m 979 28 l 1144 28 q 1196 69 1185 28 q 1213 271 1207 111 q 1332 218 1263 236 q 1287 -31 1322 32 q 1154 -94 1251 -94 l 963 -94 q 822 -58 858 -94 q 786 82 786 -21 l 786 504 l 569 504 q 539 297 560 382 q 472 131 518 213 q 341 -10 425 49 q 131 -110 257 -69 q 50 4 104 -46 q 207 68 142 31 q 311 148 272 106 q 375 251 350 190 q 410 367 400 311 q 426 504 419 422 l 224 504 l 224 1093 l 1182 1093 l 1182 504 l 918 504 l 918 82 q 928 38 918 47 q 979 28 939 28 z "},"充":{"ha":1389,"x_min":75,"x_max":1335,"o":"m 982 42 l 1146 42 q 1195 81 1183 42 q 1211 258 1207 121 q 1335 203 1251 225 q 1288 -23 1324 35 q 1157 -81 1251 -81 l 963 -81 q 819 -43 856 -81 q 782 96 782 -6 l 782 463 l 603 453 q 569 260 592 340 q 497 106 546 181 q 365 -22 449 32 q 157 -114 281 -76 q 75 4 126 -43 q 258 74 185 33 q 372 174 331 115 q 431 294 413 232 q 460 444 450 356 q 214 417 265 433 q 169 549 201 468 q 265 613 207 554 q 450 825 343 679 l 96 825 l 96 951 l 681 951 q 579 1136 653 1021 l 710 1174 q 819 988 789 1063 l 707 951 l 1296 951 l 1296 825 l 624 825 q 394 567 511 675 l 978 592 q 825 733 892 678 l 933 796 q 1130 621 1031 717 q 1281 454 1229 525 l 1164 379 q 1086 478 1143 411 l 922 469 l 922 97 q 933 51 922 61 q 982 42 943 42 z "},"兆":{"ha":1389,"x_min":60,"x_max":1332,"o":"m 1146 1054 l 1274 990 q 1036 656 1125 758 l 936 713 q 1050 878 990 781 q 1146 1054 1110 975 m 425 711 l 307 646 q 228 806 283 711 q 111 983 172 901 l 219 1040 q 425 711 372 844 m 464 615 l 464 1149 l 590 1149 l 590 615 q 587 490 590 546 q 572 369 583 433 q 540 252 560 304 q 488 145 521 200 q 408 45 454 90 q 298 -42 363 0 q 151 -118 233 -85 q 74 -10 128 -64 q 338 167 251 61 q 449 414 424 274 q 119 257 281 333 l 60 386 q 463 549 182 429 q 464 615 464 571 m 968 33 l 1153 33 q 1197 64 1186 33 q 1215 192 1208 94 q 1332 139 1264 154 q 1285 -40 1321 10 q 1163 -90 1250 -90 l 949 -90 q 810 -49 846 -90 q 774 115 774 -7 l 774 1149 l 904 1149 l 904 569 l 933 604 q 1153 477 1039 550 q 1328 349 1267 404 l 1244 243 q 904 483 1132 353 l 904 115 q 915 48 904 63 q 968 33 926 33 z "},"先":{"ha":1389,"x_min":68,"x_max":1319,"o":"m 989 33 l 1143 33 q 1188 69 1178 33 q 1203 233 1199 104 q 1319 181 1240 204 q 1276 -34 1310 21 q 1154 -89 1243 -89 l 974 -89 q 838 -53 872 -89 q 803 83 803 -17 l 803 458 l 569 458 q 535 274 557 353 q 467 119 513 196 q 342 -17 421 42 q 149 -118 263 -76 q 68 -4 121 -54 q 241 74 171 28 q 349 184 311 121 q 406 309 388 247 q 433 458 424 371 l 89 458 l 89 583 l 631 583 l 631 839 l 365 839 q 251 636 310 713 q 138 697 194 675 q 253 899 203 776 q 329 1138 304 1021 l 461 1113 q 414 963 433 1017 l 631 963 l 631 1165 l 761 1165 l 761 963 l 1201 963 l 1201 839 l 761 839 l 761 583 l 1304 583 l 1304 458 l 933 458 l 933 83 q 943 42 933 51 q 989 33 953 33 z "},"光":{"ha":1389,"x_min":67,"x_max":1319,"o":"m 1093 1075 l 1228 1025 q 1007 731 1119 857 l 896 778 q 1093 1075 1018 921 m 496 797 l 385 729 q 185 1022 328 847 l 289 1082 q 496 797 435 914 m 979 40 l 1149 40 q 1188 63 1178 40 q 1200 164 1197 85 q 1319 114 1246 131 q 1275 -42 1308 -1 q 1160 -82 1242 -82 l 963 -82 q 824 -47 858 -82 q 789 92 789 -11 l 789 538 l 588 538 q 570 392 581 456 q 540 262 560 328 q 488 144 519 196 q 410 43 456 92 q 298 -44 364 -6 q 147 -114 232 -83 q 67 -3 118 -47 q 225 69 158 26 q 332 157 292 111 q 398 268 372 203 q 435 393 424 333 q 453 538 446 453 l 90 538 l 90 663 l 625 663 l 625 1169 l 760 1169 l 760 663 l 1293 663 l 1293 538 l 919 538 l 919 93 q 930 49 919 58 q 979 40 940 40 z "},"克":{"ha":1389,"x_min":58,"x_max":1331,"o":"m 375 668 l 375 478 l 1015 478 l 1015 668 l 375 668 m 971 26 l 1143 26 q 1194 60 1182 26 q 1210 224 1206 94 q 1331 171 1251 192 q 1284 -43 1319 10 q 1154 -96 1249 -96 l 954 -96 q 813 -60 849 -96 q 776 74 776 -25 l 776 363 l 590 363 q 553 199 578 267 q 479 68 529 131 q 344 -38 429 6 q 133 -112 260 -82 q 101 -49 124 -85 q 58 6 79 -14 q 244 60 169 28 q 360 140 318 93 q 421 238 401 188 q 451 363 440 288 l 250 363 l 250 782 l 625 782 l 625 918 l 101 918 l 101 1035 l 625 1035 l 625 1165 l 756 1165 l 756 1035 l 1293 1035 l 1293 918 l 756 918 l 756 782 l 1149 782 l 1149 363 l 907 363 l 907 76 q 919 35 907 44 q 971 26 931 26 z "},"免":{"ha":1389,"x_min":51,"x_max":1328,"o":"m 1082 706 l 769 706 q 740 490 757 571 l 1082 490 l 1082 706 m 338 490 l 604 490 q 633 706 619 560 l 338 706 l 338 490 m 781 960 l 464 960 q 344 821 407 886 l 676 821 q 781 960 728 878 m 957 32 l 1142 32 q 1194 65 1182 32 q 1210 218 1206 99 q 1328 168 1256 186 q 1281 -33 1317 18 q 1151 -83 1246 -83 l 939 -83 q 792 -49 829 -83 q 754 81 754 -15 l 754 375 l 710 375 q 523 87 654 204 q 144 -99 392 -31 q 71 10 118 -35 q 401 153 285 63 q 569 375 517 244 l 208 375 l 208 696 q 144 647 167 663 q 51 742 99 711 q 284 942 183 828 q 446 1169 385 1056 l 588 1143 q 540 1067 571 1111 l 854 1067 l 874 1072 l 964 1015 q 829 821 908 918 l 1218 821 l 1218 375 l 889 375 l 889 82 q 901 41 889 50 q 957 32 913 32 z "},"兑":{"ha":1389,"x_min":82,"x_max":1329,"o":"m 353 778 l 353 517 l 1028 517 l 1028 778 l 353 778 m 978 32 l 1146 32 q 1194 63 1182 32 q 1210 201 1206 93 q 1329 149 1254 165 q 1283 -39 1318 8 q 1160 -86 1249 -86 l 960 -86 q 818 -52 856 -86 q 781 79 781 -18 l 781 401 l 606 401 q 569 226 593 299 q 497 85 546 153 q 365 -31 449 18 q 157 -114 281 -79 q 82 -1 126 -43 q 267 63 193 25 q 381 154 340 100 q 441 264 422 208 q 469 401 460 319 l 221 401 l 221 892 l 446 892 q 314 1118 404 989 l 426 1165 q 574 926 532 1029 l 494 892 l 792 892 q 954 1164 894 1029 l 1090 1122 q 936 892 1008 988 l 1168 892 l 1168 401 l 914 401 l 914 81 q 926 41 914 50 q 978 32 938 32 z "},"兔":{"ha":1389,"x_min":42,"x_max":1333,"o":"m 326 463 l 603 463 q 636 697 624 546 l 326 697 l 326 463 m 772 957 l 461 957 q 339 811 404 881 l 667 811 q 772 957 722 878 m 1086 463 l 1086 697 l 771 697 q 739 463 760 564 l 1086 463 m 929 13 l 1142 13 q 1199 42 1186 13 q 1217 175 1213 71 q 1333 126 1257 144 q 1285 -58 1321 -11 q 1153 -104 1249 -104 l 915 -104 q 761 -70 800 -104 q 722 61 722 -36 l 722 349 l 706 349 q 513 67 646 182 q 132 -114 379 -47 q 61 -4 110 -56 q 390 135 271 47 q 564 349 508 224 l 201 349 l 201 683 q 132 632 167 656 q 42 726 92 692 q 279 932 176 814 q 442 1169 382 1050 l 581 1144 q 535 1067 564 1113 l 849 1067 l 869 1072 l 958 1014 q 818 811 910 925 l 1221 811 l 1221 349 l 850 349 l 850 64 q 865 22 850 31 q 929 13 879 13 m 910 272 l 996 340 q 1190 156 1135 233 l 1101 78 q 910 272 1044 161 z "},"党":{"ha":1389,"x_min":64,"x_max":1324,"o":"m 222 797 l 222 603 l 97 603 l 97 913 l 356 913 q 233 1090 313 1000 l 343 1150 q 479 960 444 1036 l 399 913 l 626 913 l 626 1164 l 758 1164 l 758 913 l 917 913 q 1042 1149 997 1039 l 1178 1106 q 1050 913 1081 953 l 1297 913 l 1297 603 l 1167 603 l 1167 797 l 222 797 m 446 585 l 446 410 l 939 410 l 939 585 l 446 585 m 960 21 l 1142 21 q 1191 51 1179 21 q 1207 189 1203 81 q 1324 139 1244 158 q 1278 -52 1313 -4 q 1153 -100 1243 -100 l 944 -100 q 801 -65 838 -100 q 764 67 764 -31 l 764 296 l 617 296 q 481 37 586 132 q 135 -108 376 -58 q 64 8 115 -42 q 361 112 271 44 q 479 296 451 179 l 317 296 l 317 699 l 1075 699 l 1075 296 l 893 296 l 893 68 q 906 30 893 39 q 960 21 918 21 z "},"兜":{"ha":1389,"x_min":65,"x_max":1331,"o":"m 1243 1060 l 1243 414 l 949 414 l 949 533 l 1115 533 l 1115 940 l 949 940 l 949 1060 l 1243 1060 m 794 772 l 794 917 l 583 917 l 583 772 l 794 772 m 794 531 l 794 678 l 583 678 l 583 531 l 794 531 m 475 1017 l 592 1017 q 635 1171 625 1115 l 768 1151 q 751 1107 761 1135 q 732 1057 740 1079 q 717 1017 724 1035 l 908 1017 l 908 431 l 475 431 l 475 1017 m 283 557 l 446 625 q 464 507 449 558 q 154 351 186 381 q 100 463 136 417 q 157 563 157 494 l 157 1001 q 388 1129 297 1064 l 485 1035 q 283 942 397 985 l 283 557 m 454 385 l 589 385 q 556 208 578 279 q 486 72 535 138 q 352 -39 438 6 q 138 -114 267 -83 q 65 -1 114 -47 q 256 55 181 21 q 371 140 331 89 q 428 246 411 192 q 454 385 446 300 m 983 25 l 1147 25 q 1196 58 1185 25 q 1211 215 1207 92 q 1331 164 1251 185 q 1285 -44 1319 8 q 1160 -96 1250 -96 l 967 -96 q 826 -61 861 -96 q 790 71 790 -26 l 790 385 l 922 385 l 922 72 q 933 33 922 42 q 983 25 944 25 z "},"兢":{"ha":1389,"x_min":40,"x_max":1347,"o":"m 231 679 l 231 513 l 503 513 l 503 679 l 231 679 m 538 163 l 682 236 q 708 138 688 192 q 426 -37 456 -4 q 375 58 411 14 q 425 164 425 86 l 425 407 l 322 407 q 272 79 314 201 q 119 -115 231 -43 q 40 -15 86 -53 q 166 139 133 42 q 204 407 199 236 l 113 407 l 113 785 l 306 785 l 306 919 l 75 919 l 75 1031 l 306 1031 l 306 1164 l 436 1164 l 436 1031 l 651 1031 l 651 919 l 436 919 l 436 785 l 628 785 l 628 407 l 538 407 l 538 163 m 850 681 l 850 510 l 1147 510 l 1147 681 l 850 681 m 1171 26 l 1203 26 q 1232 33 1222 26 q 1247 67 1239 40 q 1250 221 1251 142 q 1347 167 1288 188 q 1331 -11 1342 29 q 1289 -75 1319 -54 q 1213 -94 1258 -94 l 1138 -94 q 1053 -65 1082 -94 q 1030 -27 1035 -50 q 1025 53 1025 -4 l 1025 404 l 931 404 q 875 66 924 183 q 688 -118 826 -51 q 614 -17 664 -60 q 715 47 676 11 q 775 137 754 82 q 804 251 796 192 q 815 404 813 310 l 731 404 l 731 786 l 929 786 l 929 919 l 704 919 l 704 1031 l 929 1031 l 929 1164 l 1064 1164 l 1064 1031 l 1310 1031 l 1310 919 l 1064 919 l 1064 786 l 1274 786 l 1274 404 l 1139 404 l 1139 56 q 1146 35 1139 42 q 1171 26 1154 26 z "},"入":{"ha":1389,"x_min":58,"x_max":1339,"o":"m 399 1035 l 479 1144 q 663 973 581 1071 q 797 781 746 875 q 904 582 847 688 q 1013 386 961 476 q 1149 206 1064 296 q 1339 50 1233 115 q 1276 -97 1288 -33 q 1140 -1 1204 -57 q 1032 108 1076 56 q 940 238 988 161 q 865 367 893 314 q 792 508 836 421 q 722 642 747 594 q 176 -99 564 129 q 58 7 136 -49 q 416 320 281 119 q 618 814 551 521 q 399 1035 524 949 z "},"全":{"ha":1389,"x_min":38,"x_max":1356,"o":"m 314 663 l 1081 663 q 693 994 860 810 q 314 663 543 814 m 1119 549 l 763 549 l 763 356 l 1114 356 l 1114 243 l 763 243 l 763 42 l 1286 42 l 1286 -74 l 111 -74 l 111 42 l 626 42 l 626 243 l 290 243 l 290 356 l 626 356 l 626 549 l 276 549 l 276 638 q 126 556 189 585 q 38 661 88 619 q 403 883 231 744 q 676 1179 576 1021 l 792 1125 q 779 1107 788 1118 q 767 1089 771 1096 q 1356 658 992 836 q 1268 549 1299 611 q 1119 636 1182 597 l 1119 549 z "},"八":{"ha":1389,"x_min":46,"x_max":1349,"o":"m 410 1033 l 553 1024 q 524 771 539 882 q 477 524 508 660 q 404 282 446 388 q 294 72 363 176 q 140 -106 226 -32 q 46 -6 100 -50 q 216 196 146 76 q 324 463 286 315 q 381 740 363 611 q 410 1033 399 868 m 807 1057 l 933 1067 q 940 974 936 1018 q 957 820 943 931 q 999 610 971 710 q 1071 392 1028 510 q 1186 170 1114 275 q 1349 -10 1258 65 q 1236 -103 1274 -53 q 1050 126 1131 -12 q 928 388 969 265 q 857 661 886 511 q 821 883 828 811 q 808 1035 814 956 q 807 1057 807 1051 z "},"公":{"ha":1389,"x_min":71,"x_max":1335,"o":"m 436 1128 l 576 1090 q 407 772 510 924 q 190 518 304 621 q 71 611 156 554 q 281 838 183 700 q 436 1128 378 975 m 836 379 l 960 435 q 1282 -35 1175 164 l 1154 -106 q 1064 51 1113 -24 q 283 -14 351 -3 q 224 -29 247 -19 q 172 108 197 58 q 300 219 218 119 q 456 437 353 278 q 631 750 558 596 l 771 690 q 400 136 604 375 l 985 171 q 836 379 899 299 m 808 1088 l 936 1139 q 1114 862 1000 1006 q 1335 629 1228 718 q 1228 518 1272 579 q 1002 781 1118 624 q 808 1088 886 938 z "},"六":{"ha":1389,"x_min":61,"x_max":1315,"o":"m 81 808 l 1313 808 l 1313 675 l 81 675 l 81 808 m 419 533 l 564 488 q 388 172 489 332 q 192 -101 286 13 q 61 -11 157 -71 q 256 237 158 89 q 419 533 354 385 m 818 485 l 942 544 q 1315 -18 1232 131 l 1179 -92 q 818 485 1097 71 m 554 1115 l 688 1161 q 822 879 792 954 l 679 826 q 554 1115 650 918 z "},"兰":{"ha":1389,"x_min":81,"x_max":1304,"o":"m 565 925 l 450 865 q 296 1107 401 976 l 404 1163 q 565 925 519 1024 m 1263 863 l 1263 733 l 128 733 l 128 863 l 804 863 q 974 1165 907 1013 l 1107 1124 q 943 863 1028 979 l 1263 863 m 1163 354 l 206 354 l 206 482 l 1163 482 l 1163 354 m 81 81 l 1304 81 l 1304 -46 l 81 -46 l 81 81 z "},"共":{"ha":1389,"x_min":72,"x_max":1321,"o":"m 444 267 l 581 214 q 399 37 506 125 q 190 -110 293 -51 q 86 -19 138 -57 q 289 115 189 35 q 444 267 389 194 m 804 204 l 918 271 q 1301 -33 1183 79 l 1176 -108 q 804 204 1060 11 m 515 761 l 515 461 l 874 461 l 874 761 l 515 761 m 1008 461 l 1321 461 l 1321 335 l 72 335 l 72 461 l 382 461 l 382 761 l 125 761 l 125 886 l 382 886 l 382 1154 l 515 1154 l 515 886 l 874 886 l 874 1154 l 1008 1154 l 1008 886 l 1275 886 l 1275 761 l 1008 761 l 1008 461 z "},"关":{"ha":1389,"x_min":63,"x_max":1338,"o":"m 1297 401 l 806 401 q 1338 26 972 111 q 1246 -101 1285 -26 q 722 300 900 -3 q 158 -108 599 39 q 63 7 118 -40 q 600 401 513 150 l 97 401 l 97 529 l 626 529 q 628 579 628 547 l 628 750 l 185 750 l 185 878 l 436 878 q 304 1101 392 988 l 413 1156 q 557 926 513 1036 l 468 878 l 825 878 q 974 1163 926 1038 l 1113 1115 q 968 878 1051 1003 l 1224 878 l 1224 750 l 776 750 l 776 576 q 775 529 776 546 l 1297 529 l 1297 401 z "},"兴":{"ha":1389,"x_min":60,"x_max":1319,"o":"m 76 513 l 1314 513 l 1314 389 l 76 389 l 76 513 m 829 264 l 949 325 q 1319 -32 1218 88 l 1190 -104 q 829 264 1078 38 m 411 329 l 554 278 q 376 70 479 174 q 171 -104 272 -33 q 60 -11 108 -42 q 260 149 161 54 q 411 329 358 244 m 79 999 l 196 1049 q 320 847 261 957 q 408 653 379 736 l 282 594 q 201 790 258 676 q 79 999 143 904 m 488 1111 l 608 1151 q 707 939 663 1054 q 771 736 751 824 l 639 690 q 581 894 624 775 q 488 1111 539 1014 m 1154 1115 l 1304 1072 q 1003 549 1156 763 l 876 592 q 1028 844 950 697 q 1154 1115 1107 992 z "},"兵":{"ha":1389,"x_min":71,"x_max":1318,"o":"m 471 236 l 589 157 q 390 13 506 86 q 168 -110 274 -60 q 76 -12 124 -53 q 293 102 181 31 q 471 236 406 174 m 804 149 l 900 233 q 1304 -6 1179 88 l 1201 -104 q 804 149 1060 10 m 439 674 l 439 385 l 875 385 l 875 674 l 439 674 m 1007 385 l 1318 385 l 1318 264 l 71 264 l 71 385 l 307 385 l 307 1079 q 1110 1163 835 1106 l 1178 1044 q 439 969 888 989 l 439 794 l 1243 794 l 1243 674 l 1007 674 l 1007 385 z "},"其":{"ha":1389,"x_min":65,"x_max":1314,"o":"m 453 436 l 453 306 l 933 306 l 933 436 l 453 436 m 933 896 l 453 896 l 453 779 l 933 779 l 933 896 m 453 669 l 453 544 l 933 544 l 933 669 l 453 669 m 1310 306 l 1310 186 l 81 186 l 81 306 l 325 306 l 325 896 l 121 896 l 121 1014 l 325 1014 l 325 1163 l 453 1163 l 453 1014 l 933 1014 l 933 1163 l 1064 1163 l 1064 1014 l 1276 1014 l 1276 896 l 1064 896 l 1064 306 l 1310 306 m 496 175 l 608 92 q 150 -108 424 -21 q 65 -10 113 -54 q 301 74 178 21 q 496 175 425 126 m 782 83 l 874 164 q 1314 -21 1114 82 l 1194 -106 q 782 83 1017 -1 z "},"具":{"ha":1389,"x_min":56,"x_max":1328,"o":"m 406 413 l 406 307 l 994 307 l 994 413 l 406 413 m 994 994 l 406 994 l 406 896 l 994 896 l 994 994 m 994 608 l 406 608 l 406 508 l 994 508 l 994 608 m 994 704 l 994 801 l 406 801 l 406 704 l 994 704 m 1319 190 l 922 190 q 1328 -12 1157 92 l 1228 -107 q 825 110 1054 8 l 899 190 l 454 190 l 565 115 q 372 -6 488 54 q 149 -107 257 -67 q 56 -12 114 -62 q 274 80 163 22 q 447 190 385 138 l 75 190 l 75 307 l 276 307 l 276 1099 l 1129 1099 l 1129 307 l 1319 307 l 1319 190 z "},"典":{"ha":1389,"x_min":57,"x_max":1331,"o":"m 465 204 l 586 126 q 391 -1 508 64 q 164 -110 274 -67 q 65 -17 124 -61 q 290 86 176 24 q 465 204 403 149 m 808 121 l 899 206 q 1304 -18 1150 88 l 1186 -104 q 808 121 1025 14 m 319 557 l 319 333 l 486 333 l 486 557 l 319 557 m 486 883 l 319 883 l 319 676 l 486 676 l 486 883 m 779 883 l 606 883 l 606 676 l 779 676 l 779 883 m 1075 883 l 903 883 l 903 676 l 1075 676 l 1075 883 m 779 333 l 779 557 l 606 557 l 606 333 l 779 333 m 903 557 l 903 333 l 1075 333 l 1075 557 l 903 557 m 1206 333 l 1331 333 l 1331 211 l 57 211 l 57 333 l 194 333 l 194 1003 l 486 1003 l 486 1169 l 606 1169 l 606 1003 l 779 1003 l 779 1169 l 903 1169 l 903 1003 l 1206 1003 l 1206 333 z "},"兹":{"ha":1389,"x_min":71,"x_max":1325,"o":"m 276 93 l 518 122 q 458 249 489 193 l 561 282 q 658 65 619 179 q 772 164 694 79 q 947 386 839 233 q 693 349 736 364 q 656 463 682 394 q 735 532 683 469 q 821 656 764 567 q 918 832 878 744 l 388 832 l 461 797 q 249 486 363 619 l 450 500 q 542 660 500 579 l 657 599 q 276 93 482 314 m 1325 -46 l 1214 -92 q 1175 25 1200 -36 q 805 -27 892 -12 q 690 -56 718 -42 l 688 -46 l 579 -82 q 554 18 569 -33 q 220 -29 300 -15 q 113 -57 140 -43 q 71 61 93 13 q 196 164 110 71 q 371 385 261 228 q 114 349 150 363 q 75 463 92 424 q 156 532 103 467 q 242 658 186 571 q 338 832 297 746 l 83 832 l 83 950 l 397 950 q 294 1115 367 1017 l 408 1163 q 533 969 501 1047 l 493 950 l 839 950 q 968 1168 922 1065 l 1101 1121 q 979 950 1058 1053 l 1315 950 l 1315 832 l 968 832 l 1042 799 q 829 486 942 621 l 1026 501 q 1119 660 1058 550 l 1233 600 q 854 94 1065 322 l 1132 128 q 1063 251 1094 201 l 1167 290 q 1325 -46 1281 121 z "},"养":{"ha":1389,"x_min":53,"x_max":1335,"o":"m 1296 521 l 975 521 q 1335 343 1121 397 q 1250 235 1286 301 q 967 382 1096 285 l 967 -110 l 832 -110 l 832 401 l 942 401 q 822 521 875 456 l 576 521 q 460 403 518 449 l 542 403 l 542 310 q 531 199 542 250 q 491 88 521 149 q 396 -25 461 28 q 233 -118 331 -78 q 144 -15 199 -57 q 287 59 231 17 q 369 148 343 101 q 403 232 394 194 q 411 315 411 269 l 411 364 q 142 236 296 283 q 53 351 100 308 q 390 521 261 406 l 86 521 l 86 628 l 492 628 q 551 721 521 669 l 215 721 l 215 822 l 599 822 q 629 911 621 881 l 147 911 l 147 1015 l 428 1015 q 350 1139 401 1076 l 464 1175 q 554 1042 524 1111 l 483 1015 l 840 1015 q 929 1176 906 1118 l 1065 1143 q 983 1015 1019 1068 l 1251 1015 l 1251 911 l 760 911 q 732 822 744 856 l 1176 822 l 1176 721 l 693 721 q 647 628 689 713 l 1296 628 l 1296 521 z "},"兼":{"ha":1389,"x_min":57,"x_max":1335,"o":"m 604 346 l 767 346 l 767 457 l 604 457 l 604 346 m 604 665 l 604 565 l 767 565 l 767 665 l 604 665 m 604 871 l 604 767 l 767 767 l 767 871 l 604 871 m 1053 665 l 892 665 l 892 565 l 1053 565 l 1053 665 m 1053 346 l 1053 457 l 892 457 l 892 346 l 1053 346 m 1178 246 l 963 246 q 1335 21 1121 96 q 1249 -82 1289 -17 q 892 171 1054 3 l 892 -110 l 767 -110 l 767 246 l 604 246 l 604 -110 l 479 -110 l 479 156 q 142 -87 328 -4 q 57 11 99 -22 q 411 246 268 93 l 189 246 l 189 346 l 479 346 l 479 457 l 79 457 l 79 565 l 479 565 l 479 665 l 203 665 l 203 767 l 479 767 l 479 871 l 101 871 l 101 978 l 401 978 q 278 1115 360 1039 l 394 1168 q 547 1003 494 1083 l 496 978 l 850 978 q 988 1167 938 1078 l 1126 1122 q 1007 978 1058 1035 l 1290 978 l 1290 871 l 892 871 l 892 767 l 1178 767 l 1178 565 l 1314 565 l 1314 457 l 1178 457 l 1178 246 z "},"兽":{"ha":1389,"x_min":74,"x_max":1318,"o":"m 1075 797 l 1075 896 l 754 896 l 754 797 l 1075 797 m 1075 615 l 1075 715 l 754 715 l 754 615 l 1075 615 m 300 715 l 300 615 l 632 615 l 632 715 l 300 715 m 300 896 l 300 797 l 632 797 l 632 896 l 300 896 m 1200 983 l 1200 528 l 181 528 l 181 983 l 444 983 q 353 1126 403 1058 l 457 1172 q 564 1014 533 1081 l 504 983 l 822 983 q 933 1168 903 1094 l 1057 1125 q 951 983 992 1035 l 1200 983 m 1033 172 l 354 172 l 354 50 l 1033 50 l 1033 172 m 232 -110 l 232 278 l 1161 278 l 1161 -107 l 1033 -107 l 1033 -46 l 354 -46 l 354 -110 l 232 -110 m 74 453 l 1318 453 l 1318 353 l 74 353 l 74 453 z "},"冀":{"ha":1389,"x_min":72,"x_max":1321,"o":"m 1165 815 l 933 815 q 790 842 826 815 q 753 946 753 868 l 753 1165 l 875 1165 l 875 1051 q 1193 1139 1088 1090 l 1274 1069 q 875 969 1129 1008 l 875 947 q 888 914 875 921 q 947 907 901 907 l 1153 907 q 1199 924 1188 907 q 1214 1006 1210 942 q 1315 969 1257 982 q 1276 847 1307 879 q 1165 815 1244 815 m 342 558 l 342 493 l 633 493 l 633 558 l 342 558 m 342 697 l 342 633 l 633 633 l 633 697 l 342 697 m 1051 633 l 1051 697 l 754 697 l 754 633 l 1051 633 m 1051 493 l 1051 558 l 754 558 l 754 493 l 1051 493 m 222 414 l 222 775 l 1176 775 l 1176 414 l 222 414 m 97 810 l 88 901 q 465 940 129 904 l 465 997 l 110 997 l 110 1086 l 465 1086 l 465 1165 l 589 1165 l 589 801 l 465 801 l 465 857 q 267 831 392 847 q 97 810 142 815 m 515 251 l 515 172 l 869 172 l 869 251 l 515 251 m 1321 172 l 1321 85 l 856 85 q 1311 -25 1129 39 l 1274 -115 q 815 6 1081 -43 l 847 85 l 528 85 l 603 10 q 122 -115 411 -53 q 83 -26 111 -82 q 508 85 332 19 l 72 85 l 72 172 l 390 172 l 390 251 l 132 251 l 132 335 l 390 335 l 390 397 l 515 397 l 515 335 l 869 335 l 869 397 l 994 397 l 994 335 l 1258 335 l 1258 251 l 994 251 l 994 172 l 1321 172 z "},"内":{"ha":1389,"x_min":138,"x_max":1256,"o":"m 1256 932 l 1256 49 q 1240 -41 1256 -10 q 1186 -87 1224 -72 q 926 -111 1132 -111 q 882 19 917 -47 q 1012 16 944 17 q 1093 17 1079 15 q 1120 25 1113 18 q 1128 50 1128 32 l 1128 807 l 761 807 q 739 636 757 721 q 1107 269 1000 401 l 1001 185 q 699 511 906 311 q 376 163 607 297 q 285 260 347 211 q 458 383 388 314 q 563 526 529 451 q 611 666 597 601 q 628 807 625 731 l 267 807 l 267 -112 l 138 -112 l 138 932 l 629 932 l 629 1165 l 763 1165 l 763 932 l 1256 932 z "},"冈":{"ha":1389,"x_min":129,"x_max":1261,"o":"m 1043 201 l 946 107 q 726 379 874 214 q 422 60 579 192 q 308 140 372 104 q 640 471 482 265 q 339 757 493 625 l 431 831 q 714 572 554 728 q 896 904 825 742 l 1019 867 q 801 485 929 672 q 1043 201 958 317 m 1261 1096 l 1261 58 q 1244 -34 1261 -3 q 1186 -81 1226 -65 q 911 -104 1122 -107 q 858 24 896 -40 q 1086 22 992 18 q 1125 58 1125 22 l 1125 969 l 261 969 l 261 -110 l 129 -110 l 129 1096 l 1261 1096 z "},"冉":{"ha":1389,"x_min":64,"x_max":1328,"o":"m 757 404 l 1054 404 l 1054 585 l 757 585 l 757 404 m 343 585 l 343 404 l 628 404 l 628 585 l 343 585 m 628 875 l 343 875 l 343 701 l 628 701 l 628 875 m 1054 875 l 757 875 l 757 701 l 1054 701 l 1054 875 m 1328 404 l 1328 283 l 1183 283 l 1183 47 q 1117 -85 1183 -58 q 871 -108 1064 -108 q 825 18 861 -46 q 1021 17 963 14 q 1047 24 1040 18 q 1054 49 1054 31 l 1054 283 l 343 283 l 343 -111 l 217 -111 l 217 283 l 64 283 l 64 404 l 217 404 l 217 994 l 628 994 l 628 1164 l 757 1164 l 757 994 l 1183 994 l 1183 404 l 1328 404 z "},"册":{"ha":1389,"x_min":57,"x_max":1329,"o":"m 874 624 l 1061 624 l 1061 957 l 874 957 l 874 639 l 874 624 m 622 500 l 622 39 q 615 -22 622 3 q 746 500 729 156 l 622 500 m 333 624 l 497 624 l 497 957 l 333 957 l 333 643 l 333 624 m 1329 624 l 1329 500 l 1189 500 l 1189 39 q 1133 -85 1189 -57 q 928 -108 1086 -108 q 888 13 917 -37 q 1033 11 951 11 q 1061 40 1061 13 l 1061 500 l 871 500 q 711 -115 849 88 q 614 -26 663 -57 q 568 -78 601 -62 q 369 -101 522 -101 q 329 14 363 -43 q 471 13 432 10 q 497 40 497 14 l 497 500 l 329 500 q 150 -121 307 86 q 106 -70 136 -100 q 57 -28 76 -40 q 207 500 190 154 l 60 500 l 60 624 l 210 624 l 210 643 l 210 1078 l 622 1078 l 622 624 l 749 624 l 749 639 l 749 1078 l 1189 1078 l 1189 624 l 1329 624 z "},"再":{"ha":1389,"x_min":57,"x_max":1335,"o":"m 753 336 l 1043 336 l 1043 482 l 753 482 l 753 336 m 344 482 l 344 336 l 625 336 l 625 482 l 344 482 m 625 733 l 344 733 l 344 592 l 625 592 l 625 733 m 1043 733 l 753 733 l 753 592 l 1043 592 l 1043 733 m 1335 336 l 1335 217 l 1171 217 l 1171 39 q 1156 -45 1171 -15 q 1104 -89 1140 -75 q 858 -111 1051 -111 q 811 11 844 -44 q 1008 10 853 10 q 1035 17 1028 11 q 1043 40 1043 24 l 1043 217 l 344 217 l 344 -111 l 217 -111 l 217 217 l 57 217 l 57 336 l 217 336 l 217 850 l 625 850 l 625 967 l 110 967 l 110 1086 l 1281 1086 l 1281 967 l 753 967 l 753 850 l 1171 850 l 1171 336 l 1335 336 z "},"冒":{"ha":1389,"x_min":164,"x_max":1219,"o":"m 1001 478 l 386 478 l 386 394 l 1001 394 l 1001 478 m 386 221 l 1001 221 l 1001 304 l 386 304 l 386 221 m 386 44 l 1001 44 l 1001 132 l 386 132 l 386 44 m 261 -107 l 261 574 l 1131 574 l 1131 -100 l 1001 -100 l 1001 -53 l 386 -53 l 386 -107 l 261 -107 m 1018 926 l 1018 836 l 368 836 l 368 926 l 1018 926 m 1018 664 l 369 664 l 369 754 l 1018 754 l 1018 664 m 164 1101 l 1219 1101 l 1219 625 l 1089 625 l 1089 1006 l 289 1006 l 289 624 l 164 624 l 164 1101 z "},"冗":{"ha":1389,"x_min":54,"x_max":1335,"o":"m 247 946 l 247 708 l 114 708 l 114 1072 l 1282 1072 l 1282 708 l 1143 708 l 1143 946 l 247 946 m 1043 35 l 1160 35 q 1198 78 1189 35 q 1211 275 1207 122 q 1335 215 1260 236 q 1292 -29 1325 35 q 1169 -93 1258 -93 l 1021 -93 q 895 -54 929 -93 q 861 94 861 -15 l 861 604 l 522 604 l 522 443 q 136 -110 522 43 q 99 -49 125 -86 q 54 3 72 -12 q 203 79 140 36 q 300 163 265 122 q 355 256 335 204 q 381 351 375 308 q 386 447 386 393 l 386 725 l 997 725 l 997 94 q 1006 46 997 57 q 1043 35 1015 35 z "},"写":{"ha":1389,"x_min":108,"x_max":1281,"o":"m 457 544 l 1154 544 q 1150 489 1153 507 q 1100 115 1126 233 q 1033 -44 1074 -4 q 907 -94 989 -89 q 682 -92 849 -100 q 639 29 676 -31 q 861 19 746 19 q 925 36 908 19 q 1015 431 982 81 l 294 431 q 410 953 356 640 l 539 940 q 528 878 536 924 q 514 807 519 832 l 1107 807 l 1107 694 l 490 694 q 457 544 478 646 m 903 304 l 903 185 l 131 185 l 131 304 l 903 304 m 108 1096 l 1281 1096 l 1281 808 l 1147 808 l 1147 975 l 236 975 l 236 808 l 108 808 l 108 1096 z "},"军":{"ha":1389,"x_min":107,"x_max":1285,"o":"m 232 999 l 232 810 l 107 810 l 107 1111 l 1282 1111 l 1282 810 l 1153 810 l 1153 999 l 232 999 m 1285 222 l 1285 104 l 807 104 l 807 -110 l 678 -110 l 678 104 l 114 104 l 114 222 l 678 222 l 678 379 l 442 379 q 299 358 322 379 q 257 481 290 401 q 336 569 290 489 q 403 697 360 606 l 256 697 l 256 808 l 453 808 q 511 974 489 900 l 643 935 q 590 808 619 875 l 1131 808 l 1131 697 l 538 697 q 424 493 483 588 l 678 493 l 678 638 l 807 638 l 807 493 l 1172 493 l 1172 379 l 807 379 l 807 222 l 1285 222 z "},"农":{"ha":1389,"x_min":40,"x_max":1335,"o":"m 1124 658 l 1226 572 q 950 361 1107 464 q 1335 28 1108 132 q 1240 -82 1281 -15 q 651 700 832 129 q 475 483 576 581 l 475 75 l 790 161 q 803 44 793 82 q 447 -63 532 -35 q 332 -111 361 -92 q 275 4 315 -50 q 347 106 347 39 l 347 381 q 133 267 249 314 q 40 374 100 322 q 594 872 432 518 l 257 872 l 257 700 l 129 700 l 129 992 l 643 992 q 689 1164 668 1075 l 821 1139 q 781 992 797 1042 l 1271 992 l 1271 700 l 1138 700 l 1138 872 l 736 872 l 732 858 q 886 460 789 631 q 1124 658 1035 563 z "},"冠":{"ha":1389,"x_min":49,"x_max":1339,"o":"m 238 981 l 238 850 l 113 850 l 113 1100 l 1281 1100 l 1281 850 l 1164 850 l 1164 725 l 1313 725 l 1313 610 l 1164 610 l 1164 231 q 1152 158 1164 183 q 1110 119 1140 132 q 919 99 1063 96 q 879 211 910 151 q 1018 210 979 207 q 1043 232 1043 210 l 1043 610 l 707 610 l 707 725 l 1043 725 l 1043 881 l 1149 881 l 1149 981 l 238 981 m 744 508 l 846 549 q 964 329 929 440 l 856 281 q 744 508 832 379 m 174 719 l 174 839 l 658 839 l 658 719 l 174 719 m 724 22 l 1101 22 q 1194 55 1174 22 q 1224 208 1215 88 q 1339 163 1265 181 q 1279 -40 1324 10 q 1107 -90 1235 -90 l 721 -90 q 522 -54 574 -90 q 469 88 469 -18 l 469 449 l 342 449 l 342 369 q 136 -108 342 53 q 49 -18 104 -61 q 222 372 222 118 l 222 449 l 76 449 l 76 568 l 711 568 l 711 449 l 590 449 l 590 88 q 615 35 590 47 q 724 22 639 22 z "},"冤":{"ha":1389,"x_min":61,"x_max":1329,"o":"m 236 993 l 236 814 l 111 814 l 111 1107 l 1268 1107 l 1268 814 l 1139 814 l 1139 993 l 236 993 m 375 399 l 600 399 q 628 561 615 461 l 375 561 l 375 399 m 763 774 l 492 774 q 382 665 458 736 l 674 665 q 763 774 726 721 m 1029 399 l 1029 561 l 760 561 q 735 399 750 475 l 1029 399 m 918 24 l 1136 24 q 1196 53 1182 24 q 1215 196 1210 83 q 1329 147 1249 167 q 1282 -45 1318 3 q 1147 -93 1246 -93 l 907 -93 q 752 -60 792 -93 q 713 69 713 -26 l 713 294 l 701 294 q 512 43 644 143 q 131 -111 379 -57 q 63 0 110 -50 q 386 115 269 43 q 558 294 503 188 l 249 294 l 249 565 q 146 503 193 528 q 108 553 135 525 q 61 597 82 582 q 494 981 356 747 l 632 953 q 579 876 611 919 l 840 876 l 860 881 l 943 825 q 821 665 899 750 l 1163 665 l 1163 294 l 838 294 l 838 72 q 852 33 838 42 q 918 24 867 24 m 890 225 l 979 285 q 1138 131 1086 207 l 1046 67 q 890 225 997 143 z "},"冥":{"ha":1389,"x_min":81,"x_max":1313,"o":"m 233 990 l 233 838 l 108 838 l 108 1103 l 1290 1103 l 1290 838 l 1161 838 l 1161 990 l 233 990 m 385 614 l 385 517 l 1000 517 l 1000 614 l 385 614 m 385 794 l 385 701 l 1000 701 l 1000 794 l 385 794 m 1304 311 l 1304 197 l 88 197 l 88 311 l 654 311 q 607 394 629 361 l 700 424 l 261 424 l 261 888 l 1129 888 l 1129 424 l 732 424 q 800 311 764 383 l 1304 311 m 456 169 l 582 122 q 182 -108 450 -8 q 81 -10 124 -43 q 456 169 333 60 m 807 103 l 917 175 q 1313 -24 1121 89 l 1203 -106 q 807 103 1024 10 z "},"冬":{"ha":1389,"x_min":68,"x_max":1332,"o":"m 294 85 l 351 189 q 726 100 519 156 q 1054 -1 933 44 l 994 -124 q 668 -14 874 -75 q 294 85 463 47 m 469 326 l 525 426 q 1011 283 819 354 l 954 168 q 469 326 768 242 m 931 919 l 513 919 q 486 886 503 908 q 689 706 564 788 q 931 919 839 801 m 1039 1038 l 1126 988 q 811 636 1022 790 q 1332 482 1033 525 q 1249 358 1281 431 q 694 561 931 415 q 131 350 449 421 q 68 472 110 418 q 576 642 351 524 q 410 807 489 710 q 197 631 311 708 q 110 731 157 697 q 358 935 250 818 q 526 1168 465 1051 l 665 1140 q 597 1032 631 1081 l 1018 1032 l 1039 1038 z "},"冯":{"ha":1389,"x_min":47,"x_max":1286,"o":"m 178 -42 l 47 14 q 258 506 167 249 l 374 449 q 178 -42 289 201 m 65 1056 l 182 1104 q 386 753 332 888 l 258 693 q 65 1056 206 843 m 1060 308 l 1060 189 l 407 189 l 407 308 l 1060 308 m 1118 568 l 1286 568 q 1281 513 1283 531 q 1230 117 1257 243 q 1163 -50 1203 -10 q 1040 -99 1119 -94 q 817 -97 971 -107 q 775 21 811 -31 q 993 11 883 11 q 1057 29 1039 11 q 1151 449 1115 75 l 533 449 l 533 450 l 494 450 q 539 878 525 653 l 668 868 q 638 568 661 765 l 990 568 q 1033 961 1019 786 l 439 961 l 439 1088 l 1054 1088 l 1078 1093 l 1172 1083 q 1118 568 1154 851 z "},"冰":{"ha":1389,"x_min":57,"x_max":1358,"o":"m 386 894 l 306 788 q 58 974 238 858 l 135 1067 q 386 894 308 968 m 290 553 l 390 474 q 168 61 288 257 l 57 140 q 290 553 178 319 m 676 821 l 754 800 q 403 42 682 264 q 319 147 361 111 q 499 364 422 219 q 614 692 576 508 l 389 692 l 389 817 l 654 817 l 676 821 m 1199 901 l 1311 833 q 1036 544 1197 693 q 1358 161 1157 272 q 1265 50 1307 119 q 921 575 1042 200 l 921 57 q 861 -78 921 -47 q 644 -107 806 -107 q 593 28 631 -35 q 758 26 668 26 q 782 33 775 26 q 789 57 789 39 l 789 1164 l 921 1164 l 921 919 q 990 658 950 774 q 1199 901 1128 796 z "},"冲":{"ha":1389,"x_min":69,"x_max":1299,"o":"m 407 840 l 301 763 q 83 1049 242 874 l 179 1115 q 407 840 344 944 m 178 -51 l 69 31 q 324 486 193 219 l 418 404 q 178 -51 303 157 m 936 447 l 1171 447 l 1171 768 l 936 768 l 936 447 m 582 447 l 808 447 l 808 768 l 582 768 l 582 447 m 936 888 l 1299 888 l 1299 254 l 1171 254 l 1171 328 l 936 328 l 936 -108 l 808 -108 l 808 328 l 582 328 l 582 244 l 460 244 l 460 888 l 808 888 l 808 1150 l 936 1150 l 936 888 z "},"决":{"ha":1389,"x_min":51,"x_max":1346,"o":"m 392 829 l 282 757 q 69 1050 224 871 l 172 1111 q 392 829 335 935 m 290 486 l 388 408 q 164 -47 285 169 l 51 32 q 290 486 171 221 m 899 832 l 899 699 q 892 539 899 607 l 1081 539 l 1081 832 l 899 832 m 1332 415 l 963 415 q 1346 7 1069 103 q 1258 -106 1299 -35 q 857 357 974 11 q 444 -112 763 51 q 350 -8 404 -51 q 736 415 665 135 l 432 415 l 432 539 l 757 539 q 764 699 764 607 l 764 832 l 500 832 l 500 954 l 764 954 l 764 1164 l 899 1164 l 899 954 l 1204 954 l 1204 539 l 1332 539 l 1332 415 z "},"况":{"ha":1389,"x_min":53,"x_max":1340,"o":"m 397 842 l 289 761 q 72 1049 235 865 l 169 1117 q 397 842 325 958 m 307 486 l 404 403 q 163 -54 286 151 l 53 31 q 307 486 176 217 m 646 983 l 646 650 l 1108 650 l 1108 983 l 646 983 m 1097 22 l 1186 22 q 1216 58 1208 22 q 1226 224 1224 94 q 1340 174 1274 190 q 1301 -38 1331 17 q 1199 -93 1272 -93 l 1076 -93 q 963 -58 992 -93 q 933 72 933 -24 l 933 531 l 788 531 q 772 352 782 426 q 740 203 763 278 q 680 74 717 128 q 584 -27 643 21 q 443 -108 525 -75 q 365 -4 415 -44 q 490 63 439 24 q 573 147 542 103 q 623 255 604 190 q 649 380 642 319 q 661 531 657 440 l 517 531 l 517 1103 l 1244 1103 l 1244 531 l 1063 531 l 1063 72 q 1069 31 1063 40 q 1097 22 1075 22 z "},"冶":{"ha":1389,"x_min":53,"x_max":1319,"o":"m 400 846 l 294 764 q 71 1049 232 876 l 169 1118 q 400 846 329 958 m 163 -53 l 53 32 q 314 485 185 225 l 408 400 q 163 -53 296 167 m 1319 593 l 1203 528 q 1157 617 1186 563 q 612 576 719 586 q 468 553 504 567 q 425 675 458 590 q 519 761 460 683 q 631 932 561 814 q 750 1167 701 1050 l 885 1128 q 624 703 769 897 l 1083 731 q 921 939 997 854 l 1032 994 q 1197 789 1117 901 q 1319 593 1278 676 m 1078 333 l 636 333 l 636 68 l 1078 68 l 1078 333 m 511 -110 l 511 453 l 1208 453 l 1208 -106 l 1078 -106 l 1078 -51 l 636 -51 l 636 -110 l 511 -110 z "},"冷":{"ha":1389,"x_min":50,"x_max":1332,"o":"m 365 794 l 242 735 q 67 1054 194 867 l 182 1103 q 365 794 314 919 m 181 -40 l 50 15 q 256 496 167 243 l 371 439 q 181 -40 278 175 m 1140 531 l 1233 471 q 917 86 1131 292 q 1061 -24 1018 14 l 967 -111 q 581 176 842 3 l 668 254 q 814 158 757 197 q 1036 404 931 264 l 496 404 l 496 524 l 1118 524 l 1140 531 m 725 721 l 826 775 q 967 617 911 694 l 861 551 q 725 721 818 617 m 815 1168 l 943 1124 q 930 1099 939 1115 q 917 1074 921 1082 q 1106 852 992 960 q 1332 682 1221 744 q 1232 571 1275 638 q 1033 745 1135 639 q 851 968 931 851 q 436 565 685 724 q 342 668 403 618 q 620 891 494 757 q 815 1168 746 1025 z "},"冻":{"ha":1389,"x_min":56,"x_max":1328,"o":"m 363 783 l 250 715 q 65 1040 201 843 l 171 1099 q 363 783 308 907 m 265 478 l 371 411 q 174 -40 281 172 l 56 24 q 265 478 175 243 m 556 350 l 688 315 q 468 -40 592 93 q 368 36 436 -8 q 476 183 425 96 q 556 350 528 271 m 1256 453 l 950 453 l 950 40 q 938 -40 950 -12 q 893 -82 925 -68 q 679 -104 844 -104 q 640 17 669 -47 q 796 15 708 15 q 817 22 811 17 q 824 42 824 28 l 824 453 l 621 453 q 488 432 511 453 q 443 556 471 494 q 524 668 479 568 q 604 867 557 725 l 399 867 l 399 986 l 644 986 q 694 1172 679 1104 l 835 1146 q 788 986 821 1092 l 1313 986 l 1313 867 l 744 867 q 617 569 688 713 l 824 569 l 824 764 l 950 764 l 950 569 l 1256 569 l 1256 453 m 1029 306 l 1140 351 q 1328 28 1276 146 l 1208 -28 q 1029 306 1160 97 z "},"净":{"ha":1389,"x_min":65,"x_max":1328,"o":"m 379 793 l 257 729 q 65 1054 200 854 l 181 1107 q 379 793 326 899 m 200 -47 l 65 11 q 272 479 175 219 l 392 418 q 200 -47 290 153 m 1100 332 l 1100 456 l 896 456 l 896 332 l 1100 332 m 896 692 l 896 571 l 1100 571 l 1100 692 l 896 692 m 926 936 l 672 936 q 578 806 635 878 l 844 806 q 926 936 879 853 m 1328 571 l 1328 456 l 1222 456 l 1222 165 l 1100 165 l 1100 218 l 896 218 l 896 38 q 882 -44 896 -15 q 833 -86 868 -72 q 604 -107 778 -110 q 565 14 597 -50 q 740 13 603 13 q 765 19 758 14 q 771 39 771 25 l 771 218 l 474 218 l 474 332 l 771 332 l 771 456 l 397 456 l 397 571 l 771 571 l 771 692 l 519 692 l 519 738 l 463 681 q 361 767 415 731 q 528 945 449 838 q 657 1167 608 1053 l 781 1129 q 739 1047 765 1094 l 994 1047 l 1014 1053 l 1100 996 q 981 806 1051 900 l 1222 806 l 1222 571 l 1328 571 z "},"凄":{"ha":1389,"x_min":49,"x_max":1324,"o":"m 326 806 l 225 742 q 60 1054 176 874 l 157 1110 q 326 806 286 919 m 161 -37 l 49 15 q 214 476 128 190 l 313 421 q 161 -37 239 165 m 864 622 l 864 536 l 1078 536 l 1078 622 l 864 622 m 864 794 l 864 713 l 1078 713 l 1078 794 l 864 794 m 953 260 l 708 260 q 651 189 706 256 q 842 139 767 160 q 953 260 911 185 m 1201 440 l 832 440 q 781 361 799 385 l 1318 361 l 1318 260 l 1090 260 q 969 100 1047 167 q 1285 -21 1154 43 l 1186 -103 q 863 28 1074 -43 q 371 -106 696 -62 q 314 0 354 -51 q 714 75 576 22 q 458 139 582 111 q 567 260 492 171 l 349 260 l 349 361 l 642 361 q 696 440 657 381 l 425 440 l 425 536 l 739 536 l 739 622 l 324 622 l 324 713 l 739 713 l 739 794 l 432 794 l 432 890 l 739 890 l 739 964 l 347 964 l 347 1065 l 739 1065 l 739 1167 l 864 1167 l 864 1065 l 1299 1065 l 1299 964 l 864 964 l 864 890 l 1201 890 l 1201 715 l 1324 715 l 1324 614 l 1201 614 l 1201 440 z "},"准":{"ha":1389,"x_min":65,"x_max":1325,"o":"m 367 793 l 243 731 q 65 1054 194 849 l 181 1107 q 367 793 317 908 m 200 -47 l 65 13 q 272 479 174 215 l 392 417 q 200 -47 279 122 m 618 265 l 618 100 l 890 100 l 890 265 l 618 265 m 890 649 l 890 810 l 618 810 l 618 649 l 890 649 m 890 376 l 890 536 l 618 536 l 618 376 l 890 376 m 1325 100 l 1325 -15 l 618 -15 l 618 -111 l 500 -111 l 500 657 q 379 508 447 578 q 288 603 343 558 q 474 844 389 697 q 611 1154 558 990 l 731 1124 q 651 922 701 1033 l 936 922 q 838 1107 904 1000 l 947 1158 q 1058 963 1025 1044 l 981 922 l 1301 922 l 1301 810 l 1017 810 l 1017 649 l 1274 649 l 1274 536 l 1017 536 l 1017 376 l 1272 376 l 1272 265 l 1017 265 l 1017 100 l 1325 100 z "},"凉":{"ha":1389,"x_min":50,"x_max":1303,"o":"m 1288 1013 l 1288 890 l 413 890 l 413 1013 l 793 1013 q 742 1133 768 1076 l 868 1169 q 940 1013 917 1071 l 1288 1013 m 361 763 l 240 692 q 65 1054 197 833 l 176 1115 q 361 763 311 904 m 258 496 l 374 440 q 179 -40 285 188 l 50 14 q 258 496 158 222 m 535 336 l 656 297 q 449 -42 563 100 q 347 35 413 -6 q 535 336 461 165 m 618 682 l 618 507 l 1069 507 l 1069 682 l 618 682 m 1200 399 l 918 399 l 918 28 q 905 -48 918 -22 q 856 -87 892 -74 q 639 -107 803 -107 q 593 11 628 -51 q 756 10 708 7 q 776 14 771 10 q 782 32 782 18 l 782 399 l 494 399 l 494 792 l 1200 792 l 1200 399 m 1024 289 l 1133 336 q 1303 35 1250 154 l 1188 -19 q 1024 289 1138 106 z "}}}
